<svg
    width="20"
    height="21"
    viewBox="0 0 20 21"
    fill="none"
    xmlns="http://www.w3.org/2000/svg"
  >
    <path
      d="M12.4472 3.79494L11.6455 1.67643L13.0305 1.351L13.9555 3.03334L12.4472 3.79494Z"
      fill="#A14603"
      stroke="black"
      stroke-width="0.478699"
    />
    <path
      d="M12.5517 4.09192C12.551 4.08956 12.5502 4.08722 12.5495 4.0849L14.1666 3.25171C14.1775 3.26063 14.1892 3.27021 14.2016 3.28046C14.2996 3.36167 14.4409 3.48453 14.6104 3.6486C14.9495 3.97691 15.4003 4.46919 15.8435 5.12182C16.7291 6.42608 17.5826 8.3684 17.4555 10.928C17.2954 14.1558 15.3047 16.6793 12.6938 18.0902C10.0791 19.5032 6.87589 19.7816 4.3287 18.5543L4.2248 18.7699L4.32869 18.5543C3.92214 18.3584 3.72168 17.888 3.8583 17.4528C3.96051 17.1272 4.23457 16.885 4.57094 16.8227C6.21547 16.5178 10.4767 15.3948 12.4621 11.6804C13.3272 10.0618 13.3214 8.1003 13.113 6.57082C13.0082 5.80181 12.8508 5.13208 12.7196 4.65443C12.654 4.41544 12.5947 4.22409 12.5517 4.09192Z"
      fill="#FFE470"
      stroke="black"
      stroke-width="0.478699"
    />
    <path
      d="M13.4359 3.29596L12.5704 1.45933L13.0307 1.35118L13.9557 3.03352L13.4359 3.29596Z"
      fill="#6F2E01"
      stroke="black"
      stroke-width="0.478699"
    />
    <path
      d="M14.1931 2.96877L13.2468 3.45636L14.7862 6.72302C17.2744 12.0267 13.2353 18.0751 7.38303 17.809L3.58013 17.6361C3.54215 18.1026 3.78858 18.5598 4.22475 18.77C9.48286 21.3035 17.3643 17.5953 17.6945 10.9399C17.9549 5.69468 14.1931 2.96877 14.1931 2.96877Z"
      fill="#FFD400"
    />
    <path
      d="M12.5517 4.09192C12.5509 4.08956 12.5502 4.08722 12.5494 4.0849L14.1665 3.25171C14.1775 3.26063 14.1892 3.27021 14.2015 3.28046C14.2996 3.36167 14.4408 3.48453 14.6103 3.6486C14.9494 3.97691 15.4003 4.46919 15.8434 5.12182C16.729 6.42608 17.5825 8.3684 17.4555 10.928C17.2953 14.1558 15.3046 16.6793 12.6938 18.0902C10.079 19.5032 6.87583 19.7816 4.32864 18.5543L4.22474 18.7699L4.32863 18.5543C3.92208 18.3584 3.72162 17.888 3.85824 17.4528C3.96044 17.1272 4.23451 16.885 4.57088 16.8227C6.21541 16.5178 10.4766 15.3948 12.462 11.6804C13.3272 10.0618 13.3213 8.1003 13.1129 6.57082C13.0081 5.80181 12.8507 5.13208 12.7195 4.65443C12.6539 4.41544 12.5947 4.22409 12.5517 4.09192Z"
      stroke="black"
      stroke-width="0.478699"
    />
  </svg>