<svg
    width="12"
    height="12"
    viewBox="0 0 10 10"
    fill="none"
    xmlns="http://www.w3.org/2000/svg"
  >
    <path
      d="M4.78324 9.20013C7.12481 9.42955 9.209 7.71731 9.43842 5.37575C9.66784 3.03419 7.95561 0.949995 5.61404 0.720576C3.27248 0.491157 1.18829 2.20339 0.958868 4.54495C0.729449 6.88651 2.44168 8.97071 4.78324 9.20013Z"
      fill="#FFE58B"
    />
    <path
      d="M6.61637 5.07131C7.17165 4.9578 7.34855 4.59902 7.3932 4.14339C7.41722 3.89817 7.38088 2.98411 6.1088 2.85195L6.17803 2.14534L5.70945 2.09943L5.64029 2.80525L5.23177 2.76523L5.30092 2.0594L4.8322 2.01348L4.76305 2.7193L3.4892 2.59449L3.44327 3.06321L4.06888 3.1245L3.72129 6.6722L3.09568 6.6109L3.04976 7.07962L4.32335 7.2044L4.25649 7.8868L4.72521 7.93273L4.79207 7.25033L5.20059 7.29035L5.13373 7.97275L5.60232 8.01866L5.66918 7.33626L5.8296 7.35198C7.12256 7.47866 7.35336 6.63186 7.39012 6.2567C7.42118 5.94097 7.38627 5.41004 6.61637 5.07131ZM6.30417 4.15334C6.252 4.64668 5.86235 4.61762 5.59109 4.59104L5.05394 4.53841L5.1502 3.55597L5.61185 3.6012C5.8309 3.62266 6.35484 3.67386 6.30417 4.15334ZM5.41853 6.47096L4.86986 6.4172L4.97577 5.33622L5.57037 5.39448C5.82383 5.41932 6.40554 5.49996 6.35568 6.00884C6.29904 6.58418 5.69378 6.49859 5.41847 6.47161L5.41853 6.47096Z"
      fill="#FFC700"
    />
  </svg>