 <svg
    width="28"
    height="29"
    viewBox="0 0 28 29"
    fill="none"
    xmlns="http://www.w3.org/2000/svg"
  >
    <path
      fill-rule="evenodd"
      clip-rule="evenodd"
      d="M11.0296 10.5438C11.0227 10.581 11.0165 10.6181 11.011 10.6551C10.6694 11.0416 10.4248 11.5224 10.3233 12.0664C10.2669 12.3682 10.2586 12.6679 10.2928 12.9578C8.7268 13.1732 7.14953 14.1811 5.90664 15.5316C5.53757 17.5061 6.06517 18.8921 8.04423 19.2664C9.43829 19.5301 10.4469 19.41 11.1646 18.7051C11.5278 19.6252 12.3426 20.3456 13.3876 20.5436C14.7974 20.8107 16.16 20.0383 16.6826 18.7661C16.7833 18.7957 16.8863 18.8206 16.9916 18.8406C18.5841 19.1423 20.1198 18.1975 20.5898 16.6932C20.9417 16.7226 21.2981 16.6799 21.6497 16.5484C24.9548 14.9757 24.4491 12.4129 24.08 11.0352C23.4243 9.46741 22.0479 9.289 20.4866 9.08662L20.4866 9.08662C20.0868 9.0348 19.6749 8.98141 19.26 8.90273C18.23 8.70746 17.6893 8.93439 17.3574 9.46908C17.0628 9.46311 16.7745 9.50113 16.5002 9.57798C16.077 8.87509 15.3666 8.34809 14.4966 8.18327C12.8824 7.87747 11.3301 8.93433 11.0296 10.5438Z"
      fill="black"
      fill-opacity="0.13"
    />
    <path
      d="M6.12092 15.853C6.19127 16.2109 6.32609 16.5534 6.51875 16.8636C7.16014 17.8937 8.38729 18.4765 9.64215 18.2343C10.9265 17.9863 11.8541 16.9486 12.0255 15.7189C14.4321 15.4321 15.5779 14.1059 15.7405 11.9684C17.0886 11.3042 17.8772 9.79426 17.5697 8.24074C17.3709 7.23596 16.7539 6.41837 15.9365 5.93576C15.1631 5.47888 14.2437 5.34322 13.3757 5.55791C12.5077 5.77261 11.7604 6.32054 11.2942 7.08402C10.8845 6.91699 10.4405 6.85379 10.0018 6.90002C9.56316 6.94625 9.14333 7.10049 8.77966 7.34904C7.9365 7.92661 7.46923 8.96701 7.66633 10.0387C7.66831 10.0513 7.67069 10.0633 7.67316 10.0758C7.67614 10.0908 7.67901 10.1054 7.68248 10.1203L7.68258 10.1208C7.30064 10.1114 6.92471 10.212 6.5993 10.4106C6.2739 10.6092 6.01267 10.8975 5.84657 11.2414L5.84607 11.2415C5.64942 11.6483 5.59647 12.1108 5.69585 12.5535C5.79523 12.9962 6.04107 13.393 6.39329 13.6792C6.42059 13.702 6.44928 13.724 6.47837 13.7454C6.10361 14.3781 5.97629 15.1287 6.12092 15.853Z"
      fill="#FFB3B3"
    />
    <g opacity="0.3">
      <path
        opacity="0.3"
        d="M6.51876 16.864C7.16032 17.8943 8.38752 18.4772 9.64227 18.2351C10.9265 17.9872 11.8538 16.9495 12.025 15.7197C14.4315 15.4331 15.577 14.1069 15.7392 11.9691C17.0871 11.305 17.8753 9.79498 17.5676 8.24126C17.3685 7.23636 16.7515 6.41862 15.934 5.93589C16.4275 6.70728 15.6332 7.99332 14.1838 7.5562C14.1446 7.48833 14.0942 7.42756 14.0348 7.37649C13.86 7.22358 13.5919 7.34706 13.5907 7.57865C13.5877 8.25654 12.8898 8.69327 12.2471 7.58163L11.6599 7.26865C12.4971 8.69421 11.5502 9.48312 10.4011 9.32277C10.3031 9.30893 10.2361 9.41753 10.294 9.49836C11.0874 10.6152 10.2851 12.3734 8.39933 12.206C9.25938 13.3546 9.21084 15.0122 7.50976 14.9505C7.43294 14.9477 7.40185 15.0484 7.46771 15.0885C7.6722 15.213 8.04705 15.3536 8.63716 15.2704C9.69874 16.5361 8.95776 18.7524 6.51902 16.8634L6.51876 16.864Z"
        fill="black"
      />
    </g>
    <path
      d="M9.02164 15.4883C8.77824 15.5355 8.53041 15.5566 8.2823 15.5512C8.23564 15.5494 8.19146 15.5293 8.15929 15.4952C8.12712 15.4611 8.10953 15.4158 8.11032 15.369C8.11111 15.3221 8.13022 15.2776 8.16352 15.2449C8.19682 15.2123 8.24164 15.1942 8.28832 15.1944C8.5112 15.1992 8.73382 15.1802 8.95245 15.1378C10.6437 14.8103 11.747 13.162 11.4117 11.4635C11.2601 10.6908 10.824 10.0022 10.1904 9.53513C10.1523 9.50699 10.1268 9.46489 10.1196 9.41808C10.1123 9.37126 10.1239 9.32358 10.1517 9.28551C10.1796 9.24744 10.2214 9.22211 10.2681 9.21509C10.3147 9.20807 10.3623 9.21993 10.4004 9.24806C11.1061 9.7683 11.5918 10.5352 11.7606 11.396C12.1341 13.2877 10.9054 15.1235 9.02164 15.4883Z"
      fill="black"
    />
    <path
      d="M12.3138 10.2907C12.2675 10.2997 12.2195 10.2898 12.1802 10.2632C12.141 10.2367 12.1138 10.1957 12.1046 10.1492C12.0954 10.1027 12.105 10.0546 12.1312 10.0154C12.1574 9.97624 12.1982 9.9492 12.2445 9.94026C13.3328 9.73013 14.0754 8.70152 13.9351 7.59853C13.9319 7.57513 13.9333 7.55135 13.9393 7.52855C13.9453 7.50575 13.9557 7.4844 13.97 7.46573C13.9843 7.44706 14.0022 7.43145 14.0226 7.41979C14.043 7.40813 14.0655 7.40065 14.0889 7.39781C14.1122 7.39496 14.1359 7.39679 14.1586 7.40319C14.1813 7.40959 14.2026 7.42043 14.2211 7.4351C14.2397 7.44976 14.2551 7.46795 14.2666 7.48861C14.2782 7.50927 14.2855 7.532 14.2882 7.55546C14.4521 8.8436 13.585 10.0453 12.3138 10.2907Z"
      fill="black"
    />
    <path
      d="M8.63333 10.5336C8.59266 10.5414 8.55044 10.5347 8.51399 10.5147C8.25812 10.3742 7.97268 10.2974 7.68182 10.2906C7.63509 10.2889 7.59079 10.2689 7.55846 10.2348C7.52614 10.2007 7.5084 10.1554 7.50907 10.1085C7.50974 10.0617 7.52877 10.0171 7.56204 9.98446C7.59532 9.95179 7.64017 9.93363 7.68692 9.93391C8.03521 9.94187 8.37704 10.0338 8.68345 10.202C8.71568 10.2197 8.74174 10.2469 8.75809 10.2798C8.77444 10.3128 8.78027 10.35 8.77479 10.3862C8.76931 10.4225 8.75278 10.4561 8.72747 10.4825C8.70215 10.5088 8.66928 10.5267 8.63333 10.5336Z"
      fill="black"
    />
    <path
      d="M12.4362 8.08018C12.4043 8.0864 12.3711 8.08367 12.3405 8.07231C12.3099 8.06094 12.2829 8.04137 12.2625 8.01573C11.9932 7.67757 11.6419 7.41424 11.2426 7.25115C11.2006 7.23209 11.1675 7.1975 11.1502 7.15465C11.133 7.11179 11.1329 7.064 11.1501 7.02129C11.1672 6.97859 11.2002 6.9443 11.2421 6.92562C11.2841 6.90693 11.3317 6.90531 11.375 6.92108C11.8314 7.10737 12.2329 7.40831 12.5406 7.79482C12.5597 7.81885 12.5723 7.84737 12.5773 7.87764C12.5823 7.90791 12.5794 7.9389 12.5689 7.96763C12.5585 7.99637 12.5408 8.02187 12.5176 8.04169C12.4944 8.06151 12.4665 8.07498 12.4365 8.08079L12.4362 8.08018Z"
      fill="black"
    />
    <path
      d="M9.67682 18.4094C7.96073 18.7407 6.28723 17.609 5.94634 15.8867C5.80433 15.1725 5.91101 14.4326 6.24851 13.7908C5.86737 13.4693 5.607 13.0271 5.51089 12.538C5.27681 11.3553 6.04467 10.2082 7.22251 9.98081C7.30471 9.96498 7.38778 9.9539 7.47131 9.94763C7.2627 8.45633 8.25204 7.04603 9.7419 6.75842C10.2351 6.66253 10.7457 6.69978 11.2215 6.86636C11.7523 6.07386 12.5762 5.52668 13.5125 5.34483C15.4591 4.96905 17.3573 6.25298 17.7441 8.20697C18.0532 9.76879 17.3011 11.3474 15.9096 12.0826C15.7081 14.2898 14.4539 15.5668 12.18 15.879C12.0648 16.5051 11.7646 17.0809 11.3184 17.532C10.8721 17.9831 10.3003 18.2888 9.67682 18.4094ZM7.29187 10.3313C6.3065 10.5215 5.66414 11.4812 5.85996 12.4706C5.94932 12.9249 6.20758 13.329 6.5823 13.601C6.61826 13.6272 6.64323 13.6659 6.65233 13.7095C6.66144 13.7531 6.65401 13.7984 6.63151 13.8365C6.27955 14.4317 6.15987 15.1376 6.29539 15.8188C6.59804 17.3479 8.08409 18.3526 9.60737 18.0585C10.1811 17.9475 10.705 17.6601 11.1067 17.2362C11.5083 16.8123 11.7678 16.2729 11.8491 15.6926C11.8546 15.6538 11.8727 15.618 11.9005 15.5906C11.9284 15.5633 11.9644 15.5459 12.0032 15.5411C14.2348 15.2754 15.3995 14.1016 15.5629 11.9531C15.5653 11.9223 15.5756 11.8927 15.5928 11.8672C15.6099 11.8416 15.6335 11.8211 15.6611 11.8075C16.9664 11.1644 17.6794 9.7113 17.3949 8.27386C17.0464 6.51312 15.3358 5.35618 13.5818 5.6948C13.1421 5.7801 12.7253 5.95585 12.3577 6.21098C11.9902 6.46611 11.6797 6.79511 11.4459 7.17724C11.424 7.21319 11.39 7.24009 11.35 7.25315C11.31 7.26622 11.2666 7.2646 11.2275 7.2486C10.7782 7.06455 10.286 7.01576 9.81114 7.10825C8.45994 7.36909 7.57915 8.685 7.84769 10.0418C7.85028 10.0548 7.85279 10.0675 7.85581 10.0805C7.85619 10.0824 7.85657 10.0844 7.85694 10.0862C7.86216 10.1125 7.86146 10.1395 7.85489 10.1653C7.84832 10.1912 7.83605 10.2152 7.81897 10.2356C7.80189 10.256 7.78045 10.2722 7.75621 10.2832C7.73198 10.2941 7.70557 10.2995 7.67893 10.2988C7.54904 10.2957 7.41927 10.3065 7.29187 10.3313Z"
      fill="black"
    />
    <path
      d="M6.50308 13.9079C6.46883 13.9145 6.43334 13.9108 6.40102 13.8974C6.3687 13.8839 6.34099 13.8612 6.32133 13.8322C6.30167 13.8031 6.29093 13.769 6.29045 13.734C6.28998 13.699 6.29978 13.6646 6.31865 13.6353C6.45866 13.4235 6.61155 13.2207 6.77648 13.0278C6.79149 13.0096 6.80999 12.9946 6.83091 12.9836C6.85183 12.9727 6.87474 12.966 6.8983 12.9641C6.92187 12.9621 6.94561 12.9649 6.96815 12.9722C6.99069 12.9796 7.01157 12.9913 7.02957 13.0069C7.04756 13.0224 7.06232 13.0413 7.07297 13.0625C7.08362 13.0838 7.08996 13.1069 7.0916 13.1306C7.09324 13.1543 7.09017 13.178 7.08255 13.2004C7.07493 13.2228 7.06292 13.2434 7.04723 13.2611C6.89294 13.4419 6.74967 13.6319 6.61817 13.83C6.60525 13.8501 6.5884 13.8674 6.56862 13.8808C6.54885 13.8941 6.52655 13.9034 6.50308 13.9079Z"
      fill="black"
    />
    <path
      d="M16.3177 17.5855C16.2883 17.5912 16.2578 17.5893 16.2292 17.58C16.2006 17.5707 16.1748 17.5543 16.1541 17.5323C16.1335 17.5103 16.1187 17.4834 16.1112 17.4542C16.1037 17.425 16.1036 17.3944 16.1111 17.3652C16.1816 17.0901 16.2052 16.8048 16.1809 16.5214C16.1789 16.498 16.1815 16.4745 16.1886 16.4522C16.1956 16.4298 16.207 16.4092 16.222 16.3913C16.237 16.3734 16.2554 16.3587 16.2761 16.348C16.2969 16.3373 16.3195 16.3308 16.3428 16.3288C16.366 16.3269 16.3895 16.3296 16.4117 16.3368C16.434 16.344 16.4547 16.3555 16.4725 16.3706C16.4904 16.3858 16.5051 16.4043 16.5159 16.4252C16.5267 16.446 16.5332 16.4688 16.5353 16.4921C16.5629 16.8156 16.536 17.1411 16.4556 17.4551C16.4473 17.4877 16.43 17.5173 16.4056 17.5404C16.3811 17.5635 16.3507 17.5791 16.3177 17.5855Z"
      fill="black"
    />
    <path
      d="M10.1289 16.4712C10.0822 16.7804 10.0896 17.0957 10.1506 17.4031C10.4637 18.9842 12.0999 19.9986 13.806 19.6695C15.071 19.4254 16.018 18.5114 16.2957 17.4105C16.7545 17.609 17.2614 17.6647 17.7504 17.5701C18.8857 17.3511 19.6881 16.3823 19.776 15.252C20.0011 15.2643 20.2266 15.2489 20.4476 15.2061C21.9305 14.9201 22.8941 13.4814 22.5993 11.9925C22.3728 10.849 21.4696 10.0087 20.3905 9.81089C20.3977 9.63687 20.3842 9.46249 20.3503 9.29142C20.0829 7.94118 18.6163 7.08793 17.074 7.38546C16.1886 7.55627 15.47 8.07012 15.0702 8.73149C14.5984 8.58471 14.0983 8.55725 13.6147 8.65155C12.052 8.95303 11.0259 10.4134 11.3229 11.9135C11.33 11.9493 11.3375 11.9845 11.3464 12.0192C10.1036 12.5053 9.35922 13.8829 9.64257 15.3138C9.72352 15.7286 9.88908 16.1226 10.1289 16.4712Z"
      fill="#FFB3B3"
    />
    <g opacity="0.3">
      <path
        opacity="0.3"
        d="M12.2576 14.8501C13.7861 15.7073 16.0056 14.7477 15.2925 12.3719L15.7728 13.3487C16.5564 13.2627 16.8186 13.8122 16.9707 14.4956L17.4017 14.9042C17.4017 14.9042 16.5153 14.3949 15.2296 15.2666C13.9438 16.1384 13.5848 16.4169 13.3961 17.0764L13.2049 17.0693C12.3025 16.4485 11.6508 15.7848 11.956 14.9557C12.0006 14.8348 12.1448 14.7866 12.2576 14.8501Z"
        fill="black"
      />
    </g>
    <g opacity="0.3">
      <path
        opacity="0.3"
        d="M18.0727 12.5433C16.8366 12.6862 15.731 11.9552 16.3743 11.1373C17.4215 11.1953 17.5754 10.6139 17.5754 10.6139C18.014 9.62162 18.8146 9.54303 19.7387 9.77675C18.2833 10.2243 18.3742 12.2852 19.8272 12.3673C19.7713 12.4056 18.8104 12.8847 18.8104 12.8847L18.3317 12.6557"
        fill="black"
      />
    </g>
    <g opacity="0.3">
      <path
        opacity="0.3"
        d="M12.2102 9.33887C11.7291 10.6005 11.9056 11.5802 13.3292 12.0256C12.6949 11.838 12.0612 11.748 11.4289 11.924C11.0823 10.8428 11.5219 10.0457 12.2102 9.33887Z"
        fill="black"
      />
    </g>
    <g opacity="0.3">
      <path
        opacity="0.3"
        d="M16.9652 7.41466C16.2213 7.94751 15.7477 8.51852 16.108 9.20788L15.2884 8.65556L15.7643 8.09584L16.1203 7.80189"
        fill="black"
      />
    </g>
    <g opacity="0.3">
      <path
        opacity="0.3"
        d="M10.0599 16.4687C9.60134 15.3841 9.54382 14.4236 9.794 13.5583C9.79259 14.6075 10.0309 15.2053 10.707 14.9778L10.3549 15.5629"
        fill="black"
      />
    </g>
    <g opacity="0.3">
      <path
        opacity="0.3"
        d="M10.1407 17.3983C10.4549 18.9799 12.0924 19.9959 13.7991 19.6682C15.0645 19.4252 16.0115 18.5118 16.2886 17.411C16.7477 17.61 17.2549 17.666 17.744 17.5719C18.8797 17.3539 19.6819 16.3856 19.7692 15.2552C20.0925 15.273 20.416 15.2339 20.725 15.1397C22.0753 14.7304 22.8723 13.3745 22.5889 11.9842C22.559 11.8378 22.5175 11.694 22.4647 11.5541C22.5041 12.8702 21.5921 14.053 20.2618 14.3085C20.0407 14.351 19.8151 14.3663 19.5899 14.3538C19.5027 15.4842 18.7005 16.4524 17.5648 16.6705C17.1805 16.7445 16.7835 16.7259 16.4064 16.6161C16.3283 16.5933 16.2448 16.6007 16.1723 16.6367C16.0998 16.6727 16.0437 16.7348 16.0151 16.8107C15.6541 17.774 14.7679 18.5461 13.62 18.7665C12.0792 19.0624 10.5942 18.2624 10.0891 16.9401C10.0936 17.0939 10.1109 17.2471 10.1407 17.3983Z"
        fill="black"
      />
    </g>
    <path
      d="M10.151 16.6335C10.123 16.6389 10.0941 16.6374 10.0667 16.6293C10.0393 16.6211 10.0142 16.6065 9.99357 16.5866C9.97292 16.5667 9.95732 16.5422 9.94806 16.5151C9.93881 16.4879 9.93618 16.459 9.94039 16.4307C10.0296 15.8342 10.3005 15.2741 10.7232 14.8106C10.755 14.7758 10.7993 14.7552 10.8465 14.7532C10.8936 14.7512 10.9397 14.7682 10.9746 14.8002C11.0095 14.8323 11.0303 14.8769 11.0325 14.9241C11.0347 14.9714 11.0181 15.0176 10.9863 15.0524C10.6111 15.4636 10.3712 15.9593 10.2922 16.4856C10.2868 16.5219 10.2703 16.5556 10.2451 16.5821C10.2198 16.6086 10.1869 16.6265 10.151 16.6335Z"
      fill="black"
    />
    <path
      d="M19.8091 15.4329C19.7821 15.4381 19.7543 15.437 19.7278 15.4296C19.7013 15.4222 19.6769 15.4088 19.6563 15.3904C19.6358 15.372 19.6198 15.3491 19.6095 15.3234C19.5993 15.2978 19.595 15.2702 19.5972 15.2427C19.6151 15.0135 19.6015 14.7828 19.5568 14.5571C19.3754 13.6356 18.7162 12.9072 17.8366 12.6557C17.8133 12.65 17.7913 12.6397 17.7721 12.6253C17.7528 12.6109 17.7366 12.5928 17.7245 12.572C17.7124 12.5513 17.7045 12.5283 17.7014 12.5044C17.6983 12.4806 17.7001 12.4564 17.7066 12.4332C17.713 12.4101 17.7241 12.3886 17.7391 12.3699C17.754 12.3512 17.7726 12.3358 17.7938 12.3245C17.8149 12.3133 17.838 12.3064 17.8619 12.3044C17.8857 12.3023 17.9098 12.3051 17.9325 12.3126C18.942 12.601 19.6981 13.4351 19.9057 14.4894C19.9567 14.7473 19.9722 15.0109 19.9517 15.2727C19.9486 15.3114 19.933 15.348 19.9073 15.3769C19.8815 15.4059 19.847 15.4255 19.8091 15.4329Z"
      fill="black"
    />
    <path
      d="M20.4407 9.99705C20.4189 10.0012 20.3965 10.0012 20.3746 9.99712C20.1486 9.95527 19.9181 9.94434 19.6896 9.96462C19.6429 9.96808 19.5966 9.95298 19.5607 9.92258C19.5248 9.89217 19.5022 9.84892 19.4978 9.80219C19.4934 9.75545 19.5075 9.709 19.5371 9.67287C19.5667 9.63675 19.6094 9.61387 19.656 9.60918C19.9167 9.58608 20.1796 9.59857 20.4375 9.64633C20.4784 9.65392 20.5154 9.67555 20.5423 9.70751C20.5691 9.73946 20.584 9.77972 20.5844 9.82132C20.5848 9.86292 20.5707 9.90325 20.5445 9.93533C20.5183 9.96741 20.4817 9.98923 20.4409 9.99701L20.4407 9.99705Z"
      fill="black"
    />
    <path
      d="M15.1192 8.90662C15.0847 8.91327 15.049 8.90952 15.0165 8.89585C14.9841 8.88217 14.9563 8.85917 14.9368 8.82976C14.9172 8.80036 14.9067 8.76585 14.9067 8.73061C14.9067 8.69537 14.917 8.66096 14.9365 8.63174L14.9369 8.63114C14.9532 8.60685 14.9752 8.58701 15.0011 8.57336C15.0269 8.55971 15.0557 8.55268 15.085 8.5529C15.1142 8.55311 15.1431 8.56056 15.1689 8.57458C15.1946 8.5886 15.2166 8.60877 15.2329 8.63329C15.2491 8.65781 15.2591 8.68593 15.2619 8.71515C15.2647 8.74438 15.2603 8.77381 15.2491 8.80084C15.2378 8.82787 15.2201 8.85167 15.1975 8.87012C15.1748 8.88857 15.1479 8.90111 15.1192 8.90662Z"
      fill="black"
    />
    <path
      d="M16.1623 9.49427C16.1356 9.49946 16.108 9.49842 16.0817 9.49123C16.0554 9.48404 16.031 9.47089 16.0105 9.4528C15.7255 9.20354 15.3923 9.01616 15.032 8.90257C15.0096 8.89552 14.9889 8.88413 14.9709 8.86907C14.9529 8.854 14.938 8.83555 14.9271 8.81476C14.9162 8.79397 14.9094 8.77125 14.9072 8.74791C14.9051 8.72456 14.9075 8.70104 14.9144 8.67869C14.9213 8.65634 14.9325 8.6356 14.9474 8.61765C14.9623 8.5997 14.9806 8.58489 15.0013 8.57407C15.022 8.56325 15.0446 8.55663 15.0679 8.55459C15.0911 8.55256 15.1146 8.55513 15.137 8.56218C15.5447 8.69094 15.9218 8.90314 16.2442 9.1853C16.2693 9.20738 16.2877 9.23601 16.2974 9.26796C16.3072 9.29991 16.3078 9.33389 16.2992 9.36605C16.2907 9.39822 16.2733 9.42728 16.249 9.44995C16.2248 9.47262 16.1947 9.488 16.1621 9.49433L16.1623 9.49427Z"
      fill="black"
    />
    <path
      d="M13.8408 19.8448C12.0415 20.192 10.3079 19.1118 9.9762 17.4369C9.9157 17.1326 9.90456 16.8209 9.94321 16.5137C9.71023 16.1595 9.54869 15.7634 9.46775 15.3477C9.18154 13.9024 9.88153 12.4833 11.1413 11.912C10.8487 10.3302 11.9356 8.79393 13.5799 8.47671C14.0472 8.38644 14.5294 8.40252 14.9909 8.52379C15.4432 7.85146 16.1821 7.37595 17.0391 7.21061C18.675 6.895 20.2387 7.81352 20.5247 9.25817C20.5514 9.39287 20.5663 9.52956 20.5695 9.6667C21.1168 9.79679 21.616 10.0823 22.007 10.489C22.398 10.8958 22.6643 11.4063 22.7737 11.9593C23.0871 13.5422 22.0594 15.0774 20.4821 15.3817C20.302 15.4166 20.119 15.4345 19.9354 15.4352C19.7756 16.5907 18.912 17.5286 17.7851 17.746C17.3279 17.8345 16.8547 17.8006 16.4133 17.6475C16.0538 18.7563 15.0647 19.6087 13.8408 19.8448ZM13.6492 8.82713C12.1851 9.10959 11.2197 10.4792 11.4971 11.8802C11.5049 11.9195 11.5115 11.9491 11.5185 11.976C11.5293 12.0181 11.5245 12.0626 11.5049 12.1013C11.4853 12.1399 11.4523 12.1699 11.412 12.1858C10.2248 12.6502 9.55397 13.9517 9.81706 15.2803C9.89301 15.6711 10.049 16.0423 10.2752 16.3703C10.3012 16.4079 10.3118 16.454 10.305 16.499C10.2615 16.7878 10.2685 17.0824 10.3256 17.3695C10.619 18.8511 12.1648 19.8043 13.7716 19.4943C14.931 19.2706 15.854 18.4352 16.1232 17.3659C16.1295 17.341 16.141 17.3178 16.1571 17.2978C16.1732 17.2779 16.1935 17.2617 16.2164 17.2504C16.2394 17.239 16.2646 17.2328 16.2903 17.2322C16.3159 17.2316 16.3415 17.2365 16.3651 17.2467C16.791 17.4311 17.2617 17.4828 17.7157 17.395C18.7409 17.1972 19.5151 16.3098 19.5986 15.237C19.6022 15.1907 19.6236 15.1478 19.6584 15.1173C19.6932 15.0868 19.7385 15.0713 19.7848 15.0739C19.9952 15.0854 20.206 15.071 20.4125 15.0311C21.797 14.764 22.6996 13.4161 22.4244 12.0263C22.2171 10.9791 21.4065 10.1785 20.3593 9.98654C20.3168 9.97877 20.2786 9.95585 20.2516 9.92203C20.2246 9.88821 20.2106 9.84579 20.2124 9.80265C20.2189 9.64281 20.2065 9.48263 20.1755 9.32547C19.9276 8.0738 18.5518 7.28248 17.1084 7.56095C16.3013 7.71665 15.6139 8.17741 15.2224 8.82503C15.2019 8.85893 15.1707 8.88493 15.1336 8.89891C15.0966 8.91289 15.0559 8.91404 15.018 8.90218C14.5741 8.7648 14.104 8.73902 13.6493 8.82711L13.6492 8.82713Z"
      fill="black"
    />
    <path
      d="M13.9567 12.5293C13.933 12.5339 13.9086 12.5336 13.885 12.5284C13.8613 12.5232 13.839 12.5132 13.8192 12.4991C13.2316 12.0796 12.5312 11.9209 11.8469 12.0522C11.6985 12.0805 11.5531 12.1224 11.4124 12.1772C11.3687 12.1935 11.3203 12.1918 11.2775 12.1727C11.2347 12.1535 11.2011 12.1183 11.1838 12.0747C11.1665 12.0311 11.1669 11.9825 11.185 11.9395C11.2031 11.8965 11.2375 11.8625 11.2806 11.8448C11.4415 11.782 11.6079 11.7341 11.7777 11.7017C12.5586 11.5518 13.3566 11.732 14.025 12.209C14.0535 12.2293 14.0755 12.2575 14.0882 12.2901C14.101 12.3227 14.1039 12.3582 14.0967 12.3923C14.0895 12.4264 14.0724 12.4575 14.0476 12.4818C14.0229 12.5062 13.9914 12.5226 13.9573 12.5292L13.9567 12.5293Z"
      fill="black"
    />
    <path
      d="M14.0584 16.0495C13.7117 16.1172 13.3536 16.1053 13.0111 16.0147C12.6687 15.9241 12.3506 15.7571 12.0807 15.5263C12.0454 15.4953 12.0237 15.4517 12.0201 15.405C12.0165 15.3583 12.0313 15.3121 12.0614 15.2765C12.0915 15.2408 12.1345 15.2186 12.181 15.2145C12.2275 15.2104 12.2739 15.2249 12.3101 15.2547C12.5392 15.4507 12.8092 15.5925 13.1 15.6695C13.3907 15.7464 13.6947 15.7565 13.9891 15.6991C15.0705 15.4903 15.7755 14.4373 15.5606 13.3518C15.4705 12.898 15.2272 12.4883 14.8718 12.1918C14.8366 12.1611 14.8147 12.1179 14.8108 12.0714C14.8069 12.025 14.8213 11.9789 14.8508 11.9432C14.8804 11.9074 14.9228 11.8847 14.9691 11.88C15.0153 11.8753 15.0616 11.8889 15.0982 11.9179C15.5168 12.2672 15.8033 12.7498 15.9094 13.2843C16.1626 14.5632 15.3321 15.8036 14.0584 16.0495Z"
      fill="black"
    />
    <path
      d="M13.3145 17.2908C13.2916 17.2952 13.2681 17.2951 13.2452 17.2904C13.2223 17.2857 13.2005 17.2766 13.1812 17.2634C13.1618 17.2503 13.1451 17.2335 13.1322 17.2139C13.1193 17.1944 13.1103 17.1725 13.1058 17.1495C13.0202 16.7143 13.0436 16.265 13.1739 15.842C13.1808 15.8197 13.1921 15.7989 13.207 15.7809C13.2219 15.763 13.2402 15.7482 13.2609 15.7373C13.2815 15.7265 13.3041 15.7198 13.3274 15.7178C13.3507 15.7157 13.3741 15.7183 13.3964 15.7253C13.4187 15.7324 13.4394 15.7437 13.4574 15.7588C13.4753 15.7739 13.4902 15.7923 13.501 15.8131C13.5119 15.8339 13.5186 15.8566 13.5208 15.88C13.5229 15.9033 13.5204 15.9268 13.5135 15.9492C13.4008 16.3156 13.3806 16.7047 13.4548 17.0816C13.4593 17.1047 13.4593 17.1284 13.4547 17.1513C13.4501 17.1743 13.441 17.1962 13.428 17.2156C13.415 17.235 13.3982 17.2516 13.3788 17.2645C13.3593 17.2774 13.3375 17.2864 13.3145 17.2908Z"
      fill="black"
    />
    <path
      d="M17.5178 15.0685C17.4892 15.074 17.4597 15.0724 17.4317 15.0639C17.4038 15.0553 17.3784 15.0399 17.3577 15.0192C16.9227 14.5844 16.3477 14.3421 15.7387 14.3369C15.7149 14.3374 15.6912 14.3332 15.6691 14.3243C15.6469 14.3155 15.6267 14.3023 15.6096 14.2855C15.5925 14.2688 15.579 14.2488 15.5698 14.2267C15.5605 14.2046 15.5558 14.181 15.5558 14.1571C15.5559 14.1332 15.5607 14.1097 15.57 14.0877C15.5793 14.0658 15.593 14.0461 15.6101 14.0296C15.6272 14.0131 15.6475 14.0003 15.6697 13.9918C15.6919 13.9834 15.7156 13.9795 15.7394 13.9804C16.4425 13.986 17.1063 14.2658 17.6083 14.7675C17.6313 14.7905 17.6476 14.8192 17.6556 14.8506C17.6635 14.8821 17.6628 14.915 17.6536 14.946C17.6443 14.9769 17.6267 15.0047 17.6028 15.0263C17.5789 15.0479 17.5496 15.0626 17.5179 15.0687L17.5178 15.0685Z"
      fill="black"
    />
    <path
      d="M18.8616 13.1601C18.8244 13.1672 18.7857 13.1622 18.7512 13.1458C18.7168 13.1294 18.6884 13.1025 18.6702 13.0689C18.6521 13.0354 18.645 12.9969 18.6502 12.9593C18.6553 12.9216 18.6724 12.8867 18.6988 12.8596C18.9885 12.5637 19.347 12.3444 19.7428 12.2209C20.1385 12.0975 20.5593 12.0737 20.9681 12.1516C21.0136 12.1614 21.0538 12.1886 21.0798 12.2274C21.1059 12.2662 21.1158 12.3136 21.1075 12.3594C21.0992 12.4051 21.0733 12.4457 21.0354 12.4724C20.9974 12.499 20.9504 12.5097 20.9045 12.5021C20.5533 12.4351 20.1918 12.4555 19.8518 12.5615C19.5118 12.6676 19.2037 12.8559 18.9548 13.1101C18.9296 13.1359 18.8971 13.1533 18.8616 13.1601Z"
      fill="black"
    />
    <path
      d="M16.6629 11.3458C16.491 11.3789 16.3151 11.3871 16.1404 11.3702C16.0942 11.3647 16.0518 11.3412 16.0224 11.3049C15.993 11.2686 15.9788 11.2223 15.983 11.1759C15.9871 11.1295 16.0092 11.0867 16.0446 11.0567C16.0799 11.0267 16.1257 11.0118 16.1721 11.0152C16.4331 11.0405 16.6956 10.9959 16.9328 10.8861C17.1699 10.7762 17.3732 10.605 17.5218 10.39C17.5348 10.3704 17.5517 10.3536 17.5714 10.3406C17.591 10.3276 17.6131 10.3186 17.6363 10.3143C17.6595 10.31 17.6834 10.3103 17.7066 10.3153C17.7297 10.3203 17.7517 10.3299 17.7712 10.3435C17.7907 10.357 17.8073 10.3743 17.8201 10.3944C17.8329 10.4144 17.8416 10.4367 17.8457 10.4601C17.8498 10.4834 17.8492 10.5073 17.844 10.5304C17.8388 10.5535 17.829 10.5752 17.8153 10.5944C17.5455 10.9872 17.1317 11.257 16.6629 11.3458Z"
      fill="black"
    />
    <g opacity="0.6">
      <path
        opacity="0.6"
        d="M12.9722 10.1946C13.0515 10.5934 13.5734 10.1228 14.2117 10.0004C14.85 9.87801 15.3632 10.1501 15.2839 9.75136C15.2046 9.3526 14.6229 9.12863 13.9846 9.25102C13.3463 9.37342 12.893 9.79586 12.9722 10.1946Z"
        fill="white"
      />
    </g>
    <g opacity="0.6">
      <path
        opacity="0.6"
        d="M11.0537 13.1558C11.1215 13.4969 11.409 13.0876 11.8959 12.9942C12.3828 12.9007 12.8846 13.1586 12.8168 12.8174C12.749 12.4763 12.2994 12.2755 11.8125 12.3689C11.3256 12.4623 10.9859 12.8146 11.0537 13.1558Z"
        fill="white"
      />
    </g>
    <g opacity="0.6">
      <path
        opacity="0.6"
        d="M14.1043 17.8348C14.1353 17.4891 13.6395 17.7895 13.0025 17.727C12.3656 17.6646 11.8287 17.2639 11.7977 17.6094C11.7667 17.9548 12.2581 18.286 12.8949 18.3477C13.5318 18.4094 14.0734 18.1804 14.1043 17.8348Z"
        fill="white"
      />
    </g>
    <g opacity="0.6">
      <path
        opacity="0.6"
        d="M20.0797 10.897C19.9012 11.1935 20.3899 11.086 20.815 11.3451C21.2401 11.6041 21.4406 12.1316 21.6191 11.8351C21.7976 11.5385 21.5977 11.0882 21.1726 10.8291C20.7475 10.5701 20.2582 10.6004 20.0797 10.897Z"
        fill="white"
      />
    </g>
    <g opacity="0.6">
      <path
        opacity="0.6"
        d="M18.2572 8.24096C18.1021 8.45031 18.426 8.56376 18.7498 8.80611C19.0735 9.04846 19.2746 9.32782 19.4297 9.11856C19.5848 8.90929 19.4482 8.54312 19.1244 8.30079C18.8006 8.05845 18.4124 8.03168 18.2572 8.24096Z"
        fill="white"
      />
    </g>
    <g opacity="0.6">
      <path
        opacity="0.6"
        d="M17.9448 8.05103C17.9492 7.91348 17.7905 7.79579 17.5902 7.78816C17.39 7.78053 17.2242 7.88585 17.2198 8.0234C17.2154 8.16095 17.3741 8.27864 17.5743 8.28627C17.7745 8.2939 17.9404 8.18858 17.9448 8.05103Z"
        fill="white"
      />
    </g>
    <g opacity="0.6">
      <path
        opacity="0.6"
        d="M10.8389 13.8515C10.9236 13.6943 10.896 13.5142 10.7772 13.4493C10.6585 13.3845 10.4935 13.4594 10.4088 13.6166C10.3242 13.7739 10.3518 13.954 10.4705 14.0188C10.5893 14.0837 10.7542 14.0088 10.8389 13.8515Z"
        fill="white"
      />
    </g>
    <g opacity="0.6">
      <path
        opacity="0.6"
        d="M17.7173 13.6868C17.5903 13.7946 17.7975 13.8602 17.9678 14.0955C18.138 14.3309 18.1811 14.6048 18.3341 14.5391C18.614 14.4189 18.5946 14.0543 18.4243 13.8188C18.254 13.5834 17.9513 13.4881 17.7173 13.6868Z"
        fill="white"
      />
    </g>
    <path
      d="M9.14908 12.5974C9.11151 12.6046 9.0725 12.5995 9.03794 12.5826C8.81567 12.4746 8.56493 12.4417 8.32352 12.4888C8.25635 12.5017 8.19049 12.5205 8.12672 12.5451C8.08293 12.5613 8.0344 12.5595 7.99163 12.5402C7.94885 12.5208 7.91527 12.4855 7.89814 12.4417C7.88101 12.398 7.88171 12.3494 7.90008 12.3064C7.91846 12.2634 7.95303 12.2295 7.99634 12.2121C8.07979 12.1799 8.16599 12.1552 8.25393 12.1384C8.57056 12.0767 8.89943 12.1199 9.19091 12.2616C9.22471 12.278 9.25258 12.3046 9.27057 12.3376C9.28856 12.3706 9.29576 12.4084 9.29112 12.4456C9.28649 12.4827 9.27028 12.5174 9.24478 12.5447C9.21928 12.5719 9.1858 12.5904 9.14908 12.5974Z"
      fill="black"
    />
    <g opacity="0.3">
      <path
        opacity="0.3"
        d="M5.67898 12.4917C5.76903 12.9541 6.01922 13.3701 6.38517 13.6661L6.9957 13.0906C7.0136 13.0737 7.0267 13.0523 7.03368 13.0287C7.04067 13.005 7.04127 12.9799 7.03545 12.9559C7.02962 12.9319 7.01757 12.9098 7.00052 12.8919C6.98347 12.874 6.96202 12.861 6.93836 12.8541C5.73806 12.5057 5.84107 11.2283 5.84107 11.2283L5.84057 11.2284C5.65063 11.6199 5.59388 12.0636 5.67898 12.4917Z"
        fill="black"
      />
    </g>
    <g opacity="0.3">
      <path
        opacity="0.3"
        d="M7.67254 10.0321C8.04322 10.0616 8.44825 10.2075 8.72468 10.326C8.82247 10.3678 8.91466 10.2605 8.86132 10.1685C8.19584 9.02147 8.40142 8.15295 8.88977 7.37461L8.78703 7.341C7.94394 7.91943 7.47631 8.96043 7.67254 10.0321Z"
        fill="black"
      />
    </g>
    <g opacity="0.6">
      <path
        opacity="0.6"
        d="M9.23857 8.01462C9.29516 8.29939 9.60961 8.04942 10.0423 7.96639C10.4751 7.88336 10.862 7.99875 10.8054 7.71398C10.7489 7.4292 10.3522 7.26568 9.91959 7.3487C9.48693 7.43171 9.18198 7.72985 9.23857 8.01462Z"
        fill="white"
      />
    </g>
    <g opacity="0.6">
      <path
        opacity="0.6"
        d="M6.70427 11.4741C6.76086 11.7589 7.07531 11.5089 7.50796 11.4259C7.94062 11.3429 8.32773 11.4582 8.27114 11.1735C8.21455 10.8887 7.81793 10.7252 7.38521 10.8082C6.95248 10.8912 6.64768 11.1893 6.70427 11.4741Z"
        fill="white"
      />
    </g>
    <g opacity="0.6">
      <path
        opacity="0.6"
        d="M8.495 16.764C8.62011 16.5035 8.21761 16.5135 7.82014 16.3197C7.42267 16.1258 7.18055 15.8016 7.05553 16.0622C6.9305 16.3228 7.15132 16.6911 7.54879 16.8849C7.94625 17.0788 8.36997 17.0246 8.495 16.764Z"
        fill="white"
      />
    </g>
    <g opacity="0.6">
      <path
        opacity="0.6"
        d="M13.5969 6.41091C13.5703 6.69938 14.0107 6.5569 14.5332 6.60929C15.0557 6.66169 15.462 6.88919 15.4885 6.60073C15.5151 6.31227 15.1133 6.0359 14.5909 5.98357C14.0685 5.93123 13.6235 6.12229 13.5969 6.41091Z"
        fill="white"
      />
    </g>
    <path
      d="M13.2055 6.61941C13.2909 6.48972 13.2689 6.32377 13.1562 6.24874C13.0435 6.17371 12.8829 6.21801 12.7974 6.3477C12.712 6.47739 12.734 6.64334 12.8467 6.71837C12.9594 6.7934 13.12 6.74909 13.2055 6.61941Z"
      fill="white"
    />
    <g opacity="0.6">
      <path
        opacity="0.6"
        d="M8.11252 14.3945C8.35366 14.2334 8.4532 13.9598 8.33485 13.7835C8.2165 13.6072 7.92508 13.5949 7.68394 13.7561C7.4428 13.9172 7.34326 14.1908 7.46161 14.3671C7.57996 14.5434 7.87138 14.5557 8.11252 14.3945Z"
        fill="white"
      />
    </g>
    <path
      d="M13.865 19.9551C12.4011 20.2374 10.9167 19.5933 10.2153 18.3837C10.0476 18.4459 9.87508 18.4941 9.69941 18.5281C7.92042 18.8712 6.18544 17.698 5.83185 15.9127C5.6919 15.2034 5.78731 14.4691 6.10349 13.8222C5.74015 13.4886 5.49221 13.0477 5.396 12.5642C5.1493 11.3186 5.95802 10.1106 7.19869 9.87131C7.24579 9.86223 7.29341 9.85461 7.34103 9.84854C7.18959 8.33121 8.21362 6.93945 9.7181 6.64929C10.202 6.55575 10.7023 6.58472 11.1738 6.73358C11.7191 5.95965 12.5581 5.41602 13.4889 5.23649C15.0513 4.93516 16.6223 5.65809 17.4229 7.03894C18.1599 6.98344 18.8854 7.16342 19.4737 7.54932C20.0908 7.95397 20.5049 8.55184 20.6398 9.23282C20.6619 9.34475 20.6764 9.45802 20.6831 9.57183C21.8171 9.87291 22.6586 10.7708 22.889 11.9338C23.2149 13.5797 22.146 15.176 20.5062 15.4922C20.3514 15.5221 20.1943 15.54 20.0365 15.5457C19.835 16.7137 18.951 17.636 17.8092 17.8562C17.3703 17.9406 16.917 17.9175 16.4876 17.7888C16.085 18.8931 15.0904 19.7187 13.865 19.9551ZM10.2443 18.1247C10.2686 18.1201 10.2938 18.1234 10.3162 18.1342C10.3387 18.1449 10.3571 18.1625 10.3689 18.1844C10.9998 19.3628 12.4189 19.9971 13.8198 19.7269C15.0028 19.4987 15.955 18.6864 16.3045 17.6066C16.3092 17.592 16.3168 17.5785 16.3268 17.567C16.3368 17.5554 16.3491 17.5459 16.3628 17.5391C16.3765 17.5323 16.3914 17.5283 16.4067 17.5274C16.422 17.5265 16.4374 17.5286 16.4519 17.5336C16.8743 17.6795 17.3267 17.712 17.764 17.6279C18.8407 17.4202 19.6678 16.5308 19.8222 15.4147C19.8261 15.3872 19.8397 15.362 19.8605 15.3438C19.8813 15.3256 19.908 15.3154 19.9357 15.3152C20.1121 15.3146 20.2879 15.2975 20.4609 15.2641C21.9754 14.972 22.9625 13.4978 22.6614 11.9778C22.4433 10.8763 21.6326 10.033 20.545 9.77647C20.5199 9.77048 20.4974 9.75632 20.4811 9.73621C20.4648 9.7161 20.4556 9.69118 20.455 9.66536C20.4519 9.53491 20.4377 9.40489 20.4123 9.27676C20.1581 7.9929 18.8506 7.13316 17.371 7.27691C17.3485 7.27905 17.3257 7.27453 17.3056 7.2639C17.2855 7.25326 17.2689 7.23698 17.2578 7.21706C16.5187 5.88147 15.0224 5.17761 13.5342 5.46464C12.6343 5.63819 11.8261 6.17464 11.3167 6.93644C11.3024 6.95763 11.2816 6.97348 11.2573 6.98153C11.2331 6.98959 11.2069 6.9894 11.1827 6.98099C10.7262 6.82162 10.2364 6.78592 9.7633 6.87752C8.33992 7.15204 7.38339 8.49574 7.58484 9.93681C7.58698 9.9525 7.58592 9.96844 7.58171 9.98366C7.57751 9.99888 7.57025 10.0131 7.56039 10.0253C7.55052 10.0376 7.53825 10.0478 7.52432 10.0551C7.51039 10.0625 7.49509 10.0669 7.47937 10.0681C7.4003 10.074 7.32167 10.0845 7.24388 10.0995C6.12856 10.3146 5.40161 11.4006 5.62339 12.5204C5.71535 12.983 5.96177 13.4014 6.32195 13.7064C6.34216 13.7235 6.35598 13.7471 6.36113 13.7731C6.36628 13.7991 6.36245 13.826 6.35028 13.8494C6.02615 14.468 5.92348 15.1805 6.05933 15.8686C6.38799 17.5279 8.00067 18.6185 9.6543 18.2996C9.84892 18.2619 10.0393 18.2053 10.2228 18.1306C10.2297 18.1278 10.2369 18.1257 10.2442 18.1244L10.2443 18.1247Z"
      fill="black"
    />
    <path
      d="M2.79636 20.3946C2.87208 20.0143 3.17392 19.3491 3.56984 18.7982C3.76629 18.5248 3.97463 18.2957 4.17411 18.1476C4.37855 17.9958 4.53289 17.9582 4.64066 17.98C4.74844 18.0017 4.87646 18.0962 5.00702 18.3156C5.13439 18.5296 5.23893 18.8218 5.31555 19.1502C5.46996 19.8122 5.49384 20.543 5.41812 20.9233C5.27696 21.6322 4.57786 22.0955 3.8504 21.9488C3.12295 21.8021 2.6552 21.1035 2.79636 20.3946Z"
      fill="#FFB3B3"
      stroke="black"
      stroke-width="0.542332"
    />
    <path
      opacity="0.6"
      d="M3.53359 20.7459C3.74047 20.8213 3.63452 20.4695 3.77306 20.0908C3.91159 19.7121 4.24156 19.4497 4.03482 19.3744C3.82808 19.2991 3.54787 19.545 3.40979 19.9238C3.27172 20.3025 3.32671 20.6706 3.53359 20.7459Z"
      fill="white"
    />
    <path
      d="M4.4503 24.4428C4.49066 24.2401 4.6596 23.8644 4.88703 23.5495C4.9992 23.3941 5.11431 23.2697 5.21933 23.1922C5.32917 23.1112 5.38823 23.1096 5.4076 23.1135C5.42697 23.1174 5.48085 23.1418 5.55119 23.2591C5.61844 23.3713 5.67701 23.5308 5.72105 23.7177C5.81034 24.0965 5.82239 24.5087 5.78203 24.7114C5.71179 25.0642 5.35995 25.3001 4.98718 25.2249C4.61441 25.1497 4.38005 24.7956 4.4503 24.4428Z"
      fill="#FFB3B3"
      stroke="black"
      stroke-width="0.542332"
    />
    <path
      opacity="0.6"
      d="M4.97103 24.3778C5.06301 24.4113 5.01591 24.2549 5.0775 24.0865C5.13909 23.9182 5.28579 23.8015 5.19387 23.768C5.10196 23.7345 4.97738 23.8439 4.916 24.0123C4.85461 24.1806 4.87906 24.3443 4.97103 24.3778Z"
      fill="white"
    />
  </svg>