<svg
    width="26"
    height="26"
    viewBox="0 0 26 26"
    fill="none"
    xmlns="http://www.w3.org/2000/svg"
  >
    <path
      d="M15.1365 13.0004L21.822 6.31492C22.0593 6.07751 22.0593 5.69333 21.822 5.45599L20.5443 4.17776C20.4305 4.06403 20.2761 4 20.1149 4C19.9537 4 19.7993 4.06403 19.6855 4.17776L13 10.8637L6.31457 4.17776C6.20077 4.06403 6.04635 4 5.88513 4C5.72395 4 5.56949 4.06403 5.45573 4.17776L4.17805 5.45599C3.94065 5.69333 3.94065 6.07751 4.17805 6.31492L10.8635 13.0004L4.17871 19.6851C3.94143 19.9225 3.94143 20.3067 4.17871 20.544L5.45648 21.8222C5.57019 21.936 5.72466 22 5.88587 22C6.04709 22 6.20152 21.936 6.31535 21.8222L13 15.1371L19.6846 21.8222C19.7984 21.936 19.9529 22 20.1141 22C20.2753 22 20.4298 21.936 20.5435 21.8222L21.8212 20.544C22.0585 20.3067 22.0585 19.9225 21.8212 19.6851L15.1365 13.0004Z"
      fill="white"
    />
  </svg>