<svg width="60" height="60" viewBox="0 0 60 60" fill="none" xmlns="http://www.w3.org/2000/svg">
<circle cx="30" cy="30" r="29" fill="white" stroke="black" stroke-width="2"/>
<path d="M32.8556 21.7578C32.657 22.1119 32.48 22.4776 32.3256 22.853C30.8083 22.6141 29.2628 22.6141 27.7456 22.853C27.5912 22.4776 27.4142 22.1119 27.2156 21.7578C25.7864 22.0009 24.397 22.4363 23.0856 23.0521C20.7405 26.4215 19.677 30.512 20.0856 34.591C21.6138 35.7349 23.329 36.6072 25.1556 37.1696C25.5715 36.6227 25.9427 36.0434 26.2656 35.4373C25.6696 35.2186 25.0969 34.9418 24.5556 34.611C24.704 34.5126 24.8445 34.4028 24.9756 34.2824C26.554 35.0394 28.2835 35.4325 30.0356 35.4325C31.7876 35.4325 33.5171 35.0394 35.0956 34.2824C35.2356 34.4019 35.3756 34.5114 35.5156 34.611C34.9713 34.9392 34.3991 35.219 33.8056 35.4473C34.1151 36.0671 34.4764 36.6599 34.8856 37.2194C36.7098 36.6589 38.4221 35.7864 39.9456 34.6408C40.364 30.5611 39.2996 26.4672 36.9456 23.1019C35.6489 22.4734 34.2732 22.0213 32.8556 21.7578ZM26.7156 32.2614C26.2152 32.2256 25.7481 31.9982 25.4125 31.6269C25.0769 31.2557 24.8988 30.7694 24.9156 30.2702C24.8962 29.7703 25.0735 29.2826 25.4096 28.9108C25.7457 28.539 26.2142 28.3123 26.7156 28.279C27.2169 28.3123 27.6854 28.539 28.0216 28.9108C28.3577 29.2826 28.5349 29.7703 28.5156 30.2702C28.5349 30.77 28.3577 31.2577 28.0216 31.6295C27.6854 32.0014 27.2169 32.228 26.7156 32.2614ZM33.3556 32.2614C32.8552 32.2256 32.3881 31.9982 32.0525 31.6269C31.7169 31.2557 31.5388 30.7694 31.5556 30.2702C31.5362 29.7703 31.7135 29.2826 32.0496 28.9108C32.3857 28.539 32.8542 28.3123 33.3556 28.279C33.8578 28.3098 34.3279 28.5357 34.6645 28.9081C35.0012 29.2805 35.1775 29.7696 35.1556 30.2702C35.1775 30.7707 35.0012 31.2598 34.6645 31.6322C34.3279 32.0046 33.8578 32.2305 33.3556 32.2614Z" fill="black"/>
</svg>
