<svg
    width="16"
    height="15"
    viewBox="0 0 16 15"
    fill="none"
    xmlns="http://www.w3.org/2000/svg"
  >
    <path
      d="M13.1076 5.81795C13.9792 8.71894 12.334 11.7772 9.43302 12.6488C6.53204 13.5204 3.47377 11.8752 2.60219 8.9742C1.73062 6.07322 3.37578 3.01495 6.27677 2.14337C9.17776 1.2718 12.236 2.91696 13.1076 5.81795Z"
      fill="url(#paint0_linear_49_2716)"
      stroke="black"
      stroke-width="0.604377"
    />
    <path
      fill-rule="evenodd"
      clip-rule="evenodd"
      d="M4.88684 5.43975C4.96864 5.28943 5.11257 5.18285 5.28021 5.14846L10.3124 4.11634C10.4459 4.08896 10.5504 4.23014 10.4853 4.34982L9.93821 5.35518C9.85641 5.5055 9.71247 5.61208 9.54483 5.64647L4.51266 6.67859C4.37919 6.70597 4.27466 6.56479 4.33978 6.44511L4.88684 5.43975ZM10.1481 6.37831C10.0137 6.27233 9.83942 6.23101 9.67178 6.2654L4.63961 7.29752C4.50614 7.3249 4.46562 7.49582 4.57259 7.5802L5.47125 8.28904C5.60561 8.39503 5.77988 8.43634 5.94752 8.40196L10.9797 7.36983C11.1132 7.34246 11.1537 7.17153 11.0467 7.08715L10.1481 6.37831ZM6.07451 9.02108C5.90687 9.05546 5.76293 9.16205 5.68114 9.31236L5.13407 10.3177C5.06895 10.4374 5.17349 10.5786 5.30696 10.5512L10.3391 9.51908C10.5068 9.4847 10.6507 9.37811 10.7325 9.2278L11.2796 8.22243C11.3447 8.10275 11.2401 7.96158 11.1067 7.98895L6.07451 9.02108Z"
      fill="white"
    />
    <defs>
      <linearGradient
        id="paint0_linear_49_2716"
        x1="8.79783"
        y1="0.12802"
        x2="1.34942"
        y2="12.6917"
        gradientUnits="userSpaceOnUse"
      >
        <stop stop-color="#0EF4A7" />
        <stop offset="1" stop-color="#D325F9" />
      </linearGradient>
    </defs>
  </svg>