<svg
    width="16"
    height="17"
    viewBox="0 0 16 17"
    fill="none"
    xmlns="http://www.w3.org/2000/svg"
  >
    <path
      d="M5.94832 3.12131L5.95541 3.11855L5.96236 3.11544C6.67954 2.79398 7.4398 2.57893 8.21908 2.47709C8.85103 2.4149 9.36043 2.481 9.81264 2.65683C10.2677 2.83377 10.6844 3.12943 11.1198 3.55459C12.0906 4.51835 12.883 5.64641 13.4604 6.88654L13.4603 6.8866L13.4642 6.89432C13.7844 7.5337 13.9855 8.22607 14.0576 8.93751L14.0576 8.93759C14.0938 9.29342 14.0477 9.65276 13.9231 9.98789C13.7921 10.2701 13.6211 10.532 13.4154 10.7654L13.4095 10.772L13.404 10.779C12.7022 11.6761 11.8566 12.4507 10.9016 13.0713C9.9467 13.6651 8.8477 14.0315 7.75636 14.0032C6.23045 13.9626 4.77559 13.1314 3.83496 11.9246C2.89453 10.7181 2.43638 9.16173 2.39098 7.5973L2.39107 7.59729L2.39069 7.59012C2.36603 7.12342 2.41231 6.65569 2.52793 6.20291C2.76676 5.45916 3.22264 4.8038 3.83703 4.32117C4.47862 3.82056 5.18989 3.41634 5.94832 3.12131Z"
      fill="#ED190F"
      stroke="black"
      stroke-width="0.604377"
    />
    <path
      d="M8.07867 2.53332C7.31594 2.62755 6.57144 2.83457 5.86957 3.14764C5.13005 3.43162 4.43755 3.82541 3.81536 4.31572C3.18975 4.80886 2.72976 5.48138 2.497 6.24322C2.38127 6.7053 2.33769 7.18251 2.36781 7.65792C2.42392 9.19496 2.88172 10.742 3.8236 11.9575C4.76548 13.1731 6.21861 14.0236 7.75595 14.0766C8.86276 14.0882 9.94839 13.773 10.8769 13.1705C11.7998 12.569 12.6147 11.8162 13.2875 10.9439C13.5003 10.6996 13.6757 10.4251 13.8079 10.1292C13.9416 9.76576 13.9896 9.3763 13.9481 8.99123C13.871 8.27935 13.6672 7.587 13.3465 6.94681C12.7782 5.73127 12.0026 4.62402 11.0542 3.67477C10.1897 2.81048 9.3435 2.41222 8.07867 2.53332Z"
      fill="#FFA276"
    />
    <path
      d="M4.85507 4.23926C4.35706 4.53105 3.92813 4.92721 3.59776 5.40051C2.87026 6.51746 3.04152 7.98087 3.33254 9.28555C3.51055 10.0624 3.73075 10.8472 4.19132 11.5022C4.68751 12.2065 5.43547 12.7045 6.23042 13.0356C7.18501 13.4323 8.2733 13.6012 9.2551 13.2816C9.73957 13.1102 10.1936 12.8626 10.6 12.5481C11.0922 12.1878 11.5496 11.7822 11.9662 11.3365C12.5892 10.6687 13.1434 9.82557 13.0716 8.90674C13.0165 8.49301 12.8971 8.09042 12.7177 7.71358C12.1926 6.44728 11.6432 5.14492 10.6743 4.17428C9.85039 3.34925 9.23876 3.08427 8.07849 3.17546C6.93429 3.26657 5.82875 3.63143 4.85507 4.23926Z"
      fill="#FF7954"
    />
    <path
      d="M11.9945 10.6838C12.3092 10.2494 12.5429 9.76179 12.6845 9.24443C12.8258 8.71642 12.7828 8.15603 12.5628 7.65571C12.4517 7.40754 12.2808 7.19083 12.0653 7.02505C11.8498 6.85926 11.5966 6.7496 11.3282 6.7059C10.7752 6.64177 10.2563 6.92525 9.77849 7.19932C9.61321 7.29474 9.44794 7.39016 9.28266 7.48558C9.17482 7.55834 9.05254 7.60694 8.92418 7.62805C8.86405 7.6357 8.80295 7.62712 8.74725 7.60321C8.69154 7.57929 8.64325 7.54092 8.60738 7.49205C8.55541 7.4313 8.52773 7.3535 8.52962 7.27358C8.55821 7.10321 8.63885 6.94587 8.76048 6.82318C9.01848 6.49791 9.24541 6.14916 9.43827 5.7815C9.57703 5.52223 9.69809 5.22301 9.64 4.9269C9.56099 4.51387 9.15099 4.23817 8.74829 4.13026C8.37179 4.04285 7.9825 4.02476 7.59951 4.07688C6.38062 4.20326 5.22697 4.68969 4.28558 5.47419C4.20456 5.52752 4.13527 5.59682 4.08193 5.67783C4.02859 5.75884 3.99231 5.84985 3.97533 5.94535C3.98177 6.04226 4.00864 6.13672 4.05416 6.22252C4.09969 6.30832 4.16283 6.38352 4.23947 6.4432C4.95487 7.10512 6.03947 7.22423 6.78861 7.85771C6.87341 7.91635 6.93287 8.00493 6.95504 8.10562C6.9559 8.16347 6.93867 8.22015 6.90576 8.26774C6.87285 8.31533 6.8259 8.35145 6.77147 8.37106C6.66148 8.40764 6.54436 8.41752 6.4298 8.3999C5.77481 8.33912 5.12904 8.14224 4.47293 8.13227C4.22735 8.12893 3.955 8.16613 3.81235 8.37211C3.69227 8.54893 3.71758 8.78514 3.76474 9.00337C3.92689 9.75729 4.23848 10.4711 4.6811 11.1026C5.03979 11.6121 5.50221 12.0779 6.08203 12.2878C6.66186 12.4977 7.36926 12.401 7.7619 11.936C8.05787 11.586 8.13153 11.0991 8.19491 10.6379C8.24482 10.3247 8.27414 10.0085 8.28269 9.69147C8.28468 9.44666 8.27632 9.16841 8.44994 9.00367C8.53959 8.93247 8.65041 8.89316 8.76489 8.89195C8.87937 8.89075 8.99098 8.92771 9.08212 8.99701C9.26555 9.14459 9.39607 9.34779 9.45401 9.57598C9.52293 9.79776 9.55707 10.0307 9.62945 10.2522C9.71099 10.4799 9.81519 10.6989 9.94048 10.9058C10.032 11.0967 10.1651 11.2647 10.3301 11.3975C10.4754 11.4859 10.6422 11.5329 10.8123 11.5332C10.9824 11.5335 11.1494 11.4872 11.295 11.3993C11.5799 11.2175 11.8192 10.9727 11.9945 10.6838Z"
      fill="#DE401D"
    />
    <path
      d="M5.01564 5.82316C4.92771 5.74731 4.83041 5.68306 4.72611 5.632C4.62047 5.57962 4.49908 5.56855 4.38572 5.60099C4.36483 5.60499 4.3459 5.61592 4.33198 5.63201C4.32519 5.64858 4.32301 5.66668 4.32566 5.68439C4.32831 5.7021 4.3357 5.71875 4.34704 5.7326C4.48699 5.95638 4.76604 6.0425 5.02208 6.1043C5.09047 6.12035 5.17846 6.12689 5.21168 6.0665C5.24489 6.00612 5.19184 5.93284 5.13528 5.89383C5.07872 5.85483 5.01021 5.81375 4.99913 5.7449L5.01564 5.82316Z"
      fill="#F59A37"
    />
    <path
      d="M5.48994 5.31438C5.44284 5.28245 5.40799 5.2345 5.36399 5.20794C5.34167 5.18988 5.31385 5.18001 5.28513 5.17996C5.25642 5.17992 5.22855 5.18969 5.20618 5.20768C5.17037 5.24806 5.18316 5.31056 5.20013 5.36168C5.25168 5.50922 5.32763 5.64705 5.42481 5.76944C5.46205 5.82236 5.51375 5.86342 5.57372 5.88772C5.60421 5.89803 5.63737 5.8971 5.66724 5.88511C5.69712 5.87312 5.72172 5.85085 5.73662 5.82232C5.74744 5.77886 5.74196 5.73294 5.72122 5.69325C5.66365 5.53775 5.58587 5.39051 5.48987 5.25531L5.48994 5.31438Z"
      fill="#F59A37"
    />
    <path
      d="M5.90572 4.71202C5.90454 4.70485 5.90061 4.69841 5.89477 4.69409C5.88893 4.68977 5.88163 4.68789 5.87443 4.68886C5.85859 4.75146 5.8556 4.81663 5.86564 4.88042C5.87568 4.94422 5.89855 5.00532 5.93286 5.06003C5.95873 5.12572 6.00525 5.18124 6.0654 5.21822C6.09568 5.23563 6.13162 5.2403 6.16535 5.23124C6.19908 5.22218 6.22784 5.20011 6.24531 5.16987C6.25598 5.14082 6.25772 5.10925 6.2503 5.07921C6.22763 4.90963 6.14785 4.75285 6.02412 4.6347C6.00409 4.61141 5.97623 4.59627 5.94579 4.59213C5.91519 4.59188 5.88532 4.62703 5.89448 4.6522L5.90572 4.71202Z"
      fill="#F59A37"
    />
    <path
      d="M8.2062 4.85167C8.16726 4.90397 8.14092 4.96454 8.12924 5.02868C8.12468 5.05659 8.12992 5.08522 8.14406 5.10971C8.15819 5.1342 8.18037 5.15304 8.20681 5.16305C8.23931 5.16632 8.27189 5.1577 8.29851 5.13879C8.45277 5.03908 8.58298 4.90638 8.67975 4.75025C8.74247 4.66029 8.8128 4.41903 8.62124 4.44721C8.47088 4.47848 8.28401 4.73509 8.2062 4.85167Z"
      fill="#F59A37"
    />
    <path
      d="M7.82638 4.99135C7.83347 5.02846 7.8508 5.07399 7.88931 5.07863C7.90992 5.07885 7.92994 5.07173 7.9458 5.05854C8.02701 4.99666 8.08373 4.90807 8.10595 4.80842C8.12744 4.7092 8.13745 4.60784 8.13579 4.50633C8.13685 4.44301 8.10596 4.33365 8.02434 4.32882C7.94272 4.32398 7.91505 4.41879 7.88855 4.4753C7.81506 4.63677 7.79335 4.81704 7.82638 4.99135Z"
      fill="#F59A37"
    />
    <path
      d="M7.35529 4.9451C7.3662 4.96484 7.38128 4.98196 7.39949 4.99527C7.4177 5.00858 7.43859 5.01778 7.46071 5.02219C7.48596 5.01953 7.51 5.00995 7.53017 4.99451C7.55033 4.97907 7.56585 4.95838 7.57502 4.93469C7.60291 4.85916 7.61375 4.77838 7.60678 4.69816C7.5998 4.61794 7.57517 4.54025 7.53465 4.47067C7.50129 4.41289 7.43876 4.28597 7.35337 4.29944C7.26799 4.3129 7.26828 4.42202 7.25781 4.49077C7.23025 4.64913 7.26519 4.81199 7.35529 4.9451Z"
      fill="#F59A37"
    />
    <path
      d="M6.62912 4.472C6.6009 4.48829 6.58623 4.52184 6.58195 4.55477C6.57613 4.70463 6.62632 4.85129 6.72273 4.96617C6.7655 5.01852 6.82557 5.06983 6.88899 5.04934C6.91619 5.03986 6.93944 5.02153 6.95499 4.99728C6.97055 4.97304 6.97752 4.94428 6.97481 4.9156C6.96936 4.85823 6.9488 4.80334 6.91522 4.75652C6.87141 4.68685 6.75079 4.43759 6.62912 4.472Z"
      fill="#F59A37"
    />
    <path
      d="M4.41548 8.8676C4.37838 8.86728 4.34187 8.8769 4.30974 8.89546C4.2776 8.91401 4.25102 8.94082 4.23274 8.97311C4.22722 9.01538 4.23578 9.05829 4.25709 9.09521C4.27841 9.13213 4.31129 9.161 4.35066 9.17735C4.52065 9.253 4.71369 9.25817 4.88748 9.19171C5.10042 9.1261 5.00985 8.97235 4.85544 8.9128C4.71511 8.86018 4.56358 8.84461 4.41548 8.8676Z"
      fill="#F59A37"
    />
    <path
      d="M5.1699 9.6C5.07473 9.58847 4.97825 9.60439 4.89183 9.64588C4.78174 9.68794 4.67088 9.72867 4.56488 9.78091C4.5132 9.80244 4.46752 9.83619 4.43176 9.87927C4.41435 9.90147 4.40452 9.92865 4.40371 9.95685C4.4029 9.98505 4.41115 10.0128 4.42726 10.0359C4.44753 10.0544 4.47183 10.0679 4.49821 10.0754C4.5246 10.0828 4.55235 10.0841 4.57929 10.0789C4.77569 10.0496 4.96182 9.97232 5.12119 9.85387C5.15836 9.8338 5.19042 9.80548 5.21493 9.77108C5.24587 9.71917 5.23597 9.61203 5.1699 9.6Z"
      fill="#F59A37"
    />
    <path
      d="M4.81865 10.5373C4.78382 10.5619 4.75445 10.5935 4.73236 10.63C4.71027 10.6665 4.69594 10.7071 4.69026 10.7494C4.68877 10.7708 4.69472 10.792 4.70709 10.8095C4.71843 10.822 4.73248 10.8317 4.74816 10.8378C4.76383 10.844 4.78072 10.8465 4.7975 10.8451C4.87509 10.838 4.94929 10.81 5.0123 10.7641C5.11442 10.7052 5.46481 10.4742 5.36945 10.3214C5.26146 10.1437 4.90319 10.4634 4.81865 10.5373Z"
      fill="#F59A37"
    />
    <path
      d="M5.24954 11.0607C5.20172 11.0944 5.16167 11.1379 5.13209 11.1884C5.1025 11.2388 5.08406 11.2951 5.07802 11.3532C5.07738 11.3664 5.08058 11.3795 5.08723 11.3909C5.09809 11.4097 5.12657 11.4094 5.14947 11.4087C5.31912 11.3887 5.47419 11.3031 5.58143 11.1701C5.6408 11.1054 5.77306 10.9 5.63001 10.8446C5.52398 10.8037 5.32142 10.9959 5.24954 11.0607Z"
      fill="#F59A37"
    />
    <path
      d="M5.69546 11.3767C5.62527 11.4859 5.59593 11.6165 5.61261 11.7452C5.61438 11.7574 5.62077 11.7685 5.63046 11.7761C5.63529 11.7792 5.64075 11.7812 5.64644 11.782C5.65214 11.7827 5.65793 11.7822 5.66339 11.7804C5.72212 11.7636 5.77225 11.725 5.80359 11.6726C5.8627 11.5919 6.14274 11.2081 6.06356 11.1051C5.96583 10.9823 5.73023 11.319 5.69546 11.3767Z"
      fill="#F59A37"
    />
    <path
      d="M6.12759 11.6562C6.09659 11.7577 6.09275 11.8655 6.11647 11.969C6.1207 11.9981 6.13465 12.0249 6.15605 12.0451C6.17745 12.0652 6.20505 12.0776 6.23435 12.0801C6.25257 12.0781 6.26996 12.0714 6.28479 12.0606C6.29963 12.0498 6.3114 12.0354 6.31895 12.0187C6.33386 11.9846 6.3425 11.948 6.34446 11.9108C6.35334 11.8028 6.35356 11.6942 6.34512 11.5861C6.32457 11.3364 6.15763 11.5314 6.12759 11.6562Z"
      fill="#F59A37"
    />
    <path
      d="M6.7131 12.0562C6.72844 12.0983 6.75101 12.1374 6.77981 12.1718C6.79557 12.1875 6.81451 12.1996 6.83537 12.2074C6.85622 12.2151 6.8785 12.2183 6.90068 12.2166C6.92833 12.2087 6.95321 12.1932 6.97255 12.1719C6.9919 12.1506 7.00494 12.1243 7.01022 12.0961C7.01772 12.0391 7.01185 11.9811 6.99311 11.9268C6.97327 11.8513 6.93702 11.781 6.88692 11.7211C6.80088 11.6311 6.66255 11.5963 6.63008 11.7386C6.6236 11.8506 6.65266 11.9617 6.7131 12.0562Z"
      fill="#F59A37"
    />
    <path
      d="M7.40126 11.9449C7.44152 11.954 7.48326 11.9544 7.52366 11.9459C7.54741 11.9454 7.57045 11.9377 7.58976 11.9239C7.63948 11.8952 7.62162 11.8177 7.59638 11.7678C7.52686 11.6288 7.32217 11.4263 7.16646 11.5538C7.01076 11.6813 7.26711 11.8988 7.40126 11.9449Z"
      fill="#F59A37"
    />
    <path
      d="M11.8695 7.27474C11.7553 7.28849 11.6438 7.31909 11.5385 7.36552C11.5045 7.37531 11.4736 7.39391 11.449 7.41942C11.4244 7.44494 11.407 7.47647 11.3985 7.51086C11.3982 7.53626 11.4047 7.56126 11.4174 7.58325C11.4301 7.60525 11.4485 7.62342 11.4707 7.63583C11.5162 7.66007 11.5672 7.67253 11.6188 7.67212C11.667 7.6783 11.716 7.6743 11.7626 7.66037C11.8092 7.64644 11.8523 7.62289 11.8892 7.59124C11.9105 7.56911 11.9286 7.54416 11.9432 7.5171C11.9636 7.48299 11.9751 7.44429 11.9767 7.40456C11.9767 7.35799 11.9213 7.26816 11.8695 7.27474Z"
      fill="#F59A37"
    />
    <path
      d="M11.6022 8.16749C11.5837 8.16882 11.5657 8.17434 11.5497 8.18361C11.5336 8.19289 11.5199 8.20567 11.5095 8.22102C11.4874 8.26962 11.5336 8.32176 11.5803 8.35927C11.6898 8.44285 11.8104 8.51073 11.9386 8.56091C12.0717 8.62173 12.2211 8.63742 12.3639 8.60559C12.4404 8.58292 12.4285 8.40708 12.4115 8.34346C12.3795 8.25084 12.3003 8.22847 12.2103 8.19981C12.014 8.13533 11.8042 8.12417 11.6022 8.16749Z"
      fill="#F59A37"
    />
    <path
      d="M11.7331 8.75463C11.6166 8.69682 11.4822 8.68645 11.3581 8.7257C11.3469 8.72859 11.3367 8.73449 11.3286 8.74277C11.3254 8.75236 11.3246 8.76256 11.3263 8.77251C11.328 8.78246 11.3321 8.79186 11.3382 8.79988C11.4106 8.90606 11.5032 8.99689 11.6108 9.06713C11.7358 9.17286 11.8859 9.24474 12.0466 9.27592C12.0811 9.28353 12.1171 9.27916 12.1488 9.26353C12.2469 9.2069 12.1877 9.02069 12.1255 8.9563C12.0112 8.86086 11.8772 8.79198 11.7331 8.75463Z"
      fill="#F59A37"
    />
    <path
      d="M10.3665 10.8369C10.3739 10.8758 10.3881 10.9131 10.4086 10.947C10.4189 10.964 10.4335 10.9779 10.4509 10.9874C10.4683 10.9968 10.4879 11.0015 10.5078 11.0008C10.5247 10.9989 10.5411 10.9935 10.5559 10.985C10.5707 10.9764 10.5836 10.9649 10.5938 10.9512C10.6404 10.8798 10.6689 10.7982 10.6768 10.7133C10.7056 10.5729 10.7155 10.4292 10.7061 10.2862C10.687 10.1073 10.4855 9.68072 10.3119 9.98518C10.1597 10.2397 10.2953 10.577 10.3665 10.8369Z"
      fill="#F59A37"
    />
    <path
      d="M10.951 10.1612C11.0249 10.293 11.1337 10.4019 11.2653 10.476C11.3215 10.5081 11.4028 10.531 11.4447 10.4764C11.4608 10.4499 11.4668 10.4184 11.4616 10.3878C11.4487 10.2895 11.4176 10.1944 11.3697 10.1076C11.2964 9.96379 11.1998 9.83311 11.0837 9.72088C11.0573 9.69675 10.9484 9.58582 10.9076 9.61121C10.8667 9.6366 10.893 9.71635 10.8909 9.74985C10.8715 9.8899 10.8924 10.0326 10.951 10.1612Z"
      fill="#F59A37"
    />
    <path
      d="M11.3021 9.52831C11.4467 9.68097 11.6329 9.78776 11.8377 9.83539C11.877 9.84137 11.9255 9.83847 11.9421 9.80202C11.9471 9.78501 11.9472 9.76693 11.9424 9.74986C11.9102 9.62655 11.8373 9.51774 11.7355 9.44112C11.6229 9.35543 11.4872 9.30526 11.3459 9.29699C11.164 9.28914 11.1945 9.42563 11.3021 9.52831Z"
      fill="#F59A37"
    />
  </svg>