<svg width="60" height="60" viewBox="0 0 60 60" fill="none" xmlns="http://www.w3.org/2000/svg">
<circle cx="30" cy="30" r="29" fill="white" stroke="black" stroke-width="2"/>
<path d="M41.4 23.7683C40.6498 24.0988 39.8334 24.3367 38.9925 24.4293C39.8656 23.8996 40.5194 23.0628 40.8312 22.0758C40.012 22.5735 39.1145 22.9225 38.1786 23.1073C37.7874 22.6803 37.3143 22.34 36.7888 22.1079C36.2632 21.8757 35.6965 21.7565 35.1238 21.7578C32.8071 21.7578 30.9438 23.6757 30.9438 26.0292C30.9438 26.3597 30.983 26.6901 31.0468 27.0081C27.5777 26.8228 24.4838 25.1303 22.4268 22.539C22.0521 23.1927 21.8557 23.9371 21.8581 24.6947C21.8581 26.1769 22.596 27.4838 23.7213 28.2525C23.0582 28.2258 22.4105 28.0396 21.8311 27.7092V27.7617C21.8311 29.8373 23.2678 31.5574 25.1825 31.953C24.823 32.0483 24.4531 32.0971 24.0817 32.0982C23.8096 32.0982 23.5521 32.0706 23.2923 32.0331C23.8218 33.7256 25.3639 34.9549 27.2002 34.995C25.7635 36.1442 23.964 36.8202 22.0101 36.8202C21.6595 36.8202 21.3359 36.8077 21 36.7676C22.8534 37.9819 25.0525 38.683 27.4208 38.683C35.1091 38.683 39.3161 32.1783 39.3161 26.5324C39.3161 26.3471 39.3161 26.1619 39.3039 25.9766C40.1178 25.3682 40.8312 24.6146 41.4 23.7683Z" fill="black"/>
</svg>
