<svg width="203" height="210" viewBox="0 0 203 210" fill="none" xmlns="http://www.w3.org/2000/svg">
<path fill-rule="evenodd" clip-rule="evenodd" d="M93.168 144.232C93.4176 144.671 93.2645 145.229 92.8261 145.478C92.3876 145.728 91.8299 145.575 91.5803 145.136C91.3306 144.698 91.4837 144.14 91.9222 143.891C92.3606 143.641 92.9184 143.794 93.168 144.232ZM95.7674 144.237C96.017 144.675 95.8639 145.233 95.4255 145.483C94.987 145.732 94.4292 145.579 94.1796 145.141C93.93 144.702 94.0831 144.144 94.5215 143.895C94.96 143.645 95.5178 143.798 95.7674 144.237ZM98.0249 145.487C98.4633 145.237 98.6164 144.679 98.3668 144.241C98.1172 143.802 97.5594 143.649 97.1209 143.899C96.6825 144.149 96.5294 144.706 96.779 145.145C97.0286 145.583 97.5864 145.736 98.0249 145.487Z" fill="white" fill-opacity="0.19"/>
<circle r="4.26582" transform="matrix(-0.994262 -0.106975 -0.106975 0.994262 84.4377 139.259)" stroke="black" stroke-width="1.28966"/>
<path d="M67.8104 123.318C66.4368 123.171 65.1334 123.594 64.1364 124.397C63.1392 125.2 62.4487 126.384 62.3009 127.758C62.0053 130.505 63.9927 132.972 66.74 133.267L96.174 136.434L97.2558 126.487L67.8104 123.318Z" fill="url(#paint0_linear_3_5385)"/>
<path d="M91.061 127.567L91.8039 127.647C91.9481 127.663 92.0775 127.559 92.093 127.414C92.1086 127.27 92.0043 127.141 91.8601 127.125L91.1172 127.045C90.973 127.03 90.8434 127.134 90.8279 127.278C90.8124 127.422 90.9168 127.552 91.061 127.567Z" fill="white" fill-opacity="0.31"/>
<path d="M64.3506 124.669L64.3505 124.669C63.4146 125.434 62.7654 126.559 62.6248 127.866C62.3435 130.48 64.2059 132.817 66.7746 133.094L95.9157 136.229L96.9434 126.777L67.7917 123.641C66.5066 123.502 65.2863 123.905 64.3506 124.669Z" stroke="black" stroke-width="0.64483"/>
<path d="M102.622 132.655L91.78 131.343C89.9058 131.116 88.2081 132.466 88.0062 134.342C87.808 136.185 89.127 137.844 90.9663 138.067L101.808 139.379C103.682 139.605 105.38 138.256 105.582 136.379C105.78 134.537 104.461 132.878 102.622 132.655Z" fill="#A600E0" stroke="black" stroke-width="0.64483"/>
<path d="M104.838 138.733L93.9963 137.421C92.1222 137.194 90.4245 138.544 90.2225 140.421C90.0243 142.263 91.3433 143.922 93.1827 144.145L104.025 145.457C105.899 145.684 107.596 144.334 107.798 142.457C107.997 140.615 106.678 138.956 104.838 138.733Z" fill="url(#paint1_linear_3_5385)" stroke="black" stroke-width="0.64483"/>
<path d="M84.6802 126.859L85.4229 126.939C85.5672 126.954 85.6967 126.85 85.7122 126.706C85.7277 126.561 85.6234 126.432 85.4791 126.416L84.7363 126.336C84.5921 126.321 84.4625 126.425 84.447 126.569C84.4315 126.714 84.5359 126.843 84.6802 126.859Z" fill="white" fill-opacity="0.31"/>
<path d="M77.9576 126.068L78.7004 126.148C78.8446 126.163 78.9741 126.059 78.9896 125.915C79.0051 125.771 78.9008 125.641 78.7566 125.625L78.0138 125.546C77.8696 125.53 77.7399 125.634 77.7244 125.779C77.7089 125.923 77.8134 126.052 77.9576 126.068Z" fill="white" fill-opacity="0.31"/>
<path d="M85.1701 140.629L87.0276 138.812C87.5878 138.264 87.6054 137.368 87.0672 136.799C86.5158 136.215 85.5932 136.197 85.0192 136.758L83.1618 138.575C82.6016 139.123 82.584 140.019 83.1222 140.588C83.6736 141.172 84.5962 141.19 85.1701 140.629Z" fill="url(#paint2_linear_3_5385)" stroke="black" stroke-width="0.64483"/>
<path d="M85.0484 135.295L89.7566 149.935C90.2708 151.534 91.678 152.68 93.3477 152.86V152.86C96.3983 153.188 98.7808 150.274 97.8531 147.35L94.347 136.296L85.0484 135.295Z" fill="#F1EEEB"/>
<path d="M85.0713 135.298L86.766 140.662L95.9858 141.654L94.3698 136.298L85.0713 135.298Z" fill="black" fill-opacity="0.16"/>
<path d="M86.0169 136.2L91.0665 151.901C91.0795 151.942 91.1151 151.971 91.1573 151.975L98.7449 152.792C98.8221 152.8 98.8823 152.726 98.8589 152.652L93.8809 136.959C93.8681 136.918 93.8324 136.889 93.79 136.884L86.1307 136.06C86.0534 136.052 85.9931 136.126 86.0169 136.2Z" stroke="black" stroke-width="1.28966"/>
<path d="M74.3222 121.466C70.7181 121.079 67.9334 124.569 69.112 127.997V127.997C70.9015 133.202 75.5398 136.902 81.0122 137.491L93.7938 138.866C97.9718 139.316 101.723 136.294 102.173 132.115C102.397 130.026 101.754 128.044 100.532 126.528C99.3108 125.012 97.5107 123.961 95.4216 123.737L92.7284 123.447C92.4083 123.412 92.1645 123.731 92.2703 124.035V124.035C93.2528 126.868 93.3036 129.423 92.3832 129.743C91.4632 130.062 89.9208 128.024 88.9382 125.191C88.7883 124.759 88.6601 124.333 88.5538 123.921C88.4102 123.364 87.9515 122.933 87.3796 122.871L86.2273 122.747C85.9071 122.713 85.6634 123.032 85.7692 123.336V123.336C86.7517 126.169 86.8024 128.724 85.8821 129.043C84.9621 129.362 83.4196 127.325 82.4371 124.492C82.2896 124.067 82.1632 123.648 82.0579 123.242C81.9104 122.673 81.442 122.232 80.8578 122.17L79.6473 122.039C79.3272 122.005 79.0835 122.324 79.1892 122.628V122.628C80.1717 125.461 80.2225 128.016 79.3021 128.335C78.3822 128.654 76.8397 126.617 75.8572 123.784C75.5891 123.011 75.3907 122.259 75.2622 121.568L74.3222 121.466Z" fill="#F1EEEB"/>
<path d="M70.8302 125.766L72.4881 130.668C72.81 131.62 73.4132 132.275 73.8357 132.132C74.2581 131.989 74.3401 131.102 74.0183 130.15L72.3603 125.248C72.0385 124.297 71.4345 123.641 71.012 123.783C70.5896 123.926 70.5083 124.814 70.8302 125.766Z" fill="white" fill-opacity="0.31"/>
<path d="M71.0958 133.676V133.676C71.6819 135.381 73.2011 136.593 74.9935 136.786L93.8055 138.81C98.7536 139.681 101.403 135.064 101.403 135.064L100.889 135.218C99.4213 136.401 97.2973 136.547 92.2798 136.007L71.0958 133.676Z" fill="black" fill-opacity="0.12"/>
<path d="M100.03 126.932L100.03 126.933C101.149 128.321 101.737 130.134 101.532 132.046C101.12 135.871 97.6867 138.637 93.8627 138.225L80.9083 136.832C75.7901 136.281 71.452 132.82 69.7783 127.952C68.7269 124.894 71.211 121.78 74.4261 122.126L74.7246 122.158C74.8548 122.746 75.0294 123.365 75.248 123.995C75.7552 125.458 76.4147 126.74 77.089 127.631C77.4239 128.073 77.7851 128.449 78.1594 128.696C78.524 128.936 79.0098 129.119 79.5134 128.944L100.03 126.932ZM100.03 126.932C98.9115 125.544 97.2648 124.583 95.3526 124.378L92.9801 124.122M100.03 126.932L92.9801 124.122M92.9801 124.122C93.4232 125.478 93.6644 126.778 93.685 127.819C93.696 128.374 93.6453 128.893 93.5039 129.318C93.3661 129.732 93.0981 130.177 92.5945 130.352L92.9801 124.122ZM91.2405 130.103C91.605 130.343 92.0909 130.526 92.5944 130.352L91.2405 130.103ZM91.2405 130.103C90.8662 129.857 90.5049 129.48 90.17 129.038M91.2405 130.103L90.17 129.038M90.17 129.038C89.4957 128.147 88.8362 126.865 88.329 125.403M90.17 129.038L88.329 125.403M88.329 125.403C88.1702 124.945 88.0347 124.493 87.9226 124.055M88.329 125.403L87.9226 124.055M87.9226 124.055C87.8444 123.75 87.602 123.544 87.3367 123.515L86.4789 123.423M87.9226 124.055L86.4789 123.423M86.4789 123.423C86.9221 124.779 87.1633 126.078 87.1839 127.119C87.1949 127.674 87.1442 128.193 87.0027 128.619C86.865 129.033 86.597 129.478 86.0934 129.652L86.4789 123.423ZM79.899 122.715C80.3421 124.071 80.5833 125.371 80.6039 126.411C80.6149 126.966 80.5642 127.485 80.4228 127.911C80.285 128.325 80.017 128.77 79.5135 128.944L79.899 122.715ZM79.899 122.715L81.3045 122.866C81.4347 123.454 81.6093 124.073 81.8279 124.703C82.3351 126.166 82.9946 127.448 83.6689 128.339C84.0038 128.781 84.365 129.157 84.7394 129.404C85.1039 129.643 85.5898 129.827 86.0933 129.652L79.899 122.715ZM86.3784 123.124C86.3784 123.124 86.3783 123.124 86.3782 123.124L86.1793 123.193L85.7692 123.336L86.1793 123.194L86.3784 123.124ZM79.5994 122.485L79.1892 122.628L79.5993 122.486L79.7985 122.417C79.7984 122.416 79.7984 122.416 79.7983 122.416L79.5994 122.485Z" stroke="black" stroke-width="1.28966"/>
<path d="M98.452 126.737C98.3353 127.822 99.1202 128.796 100.205 128.913C101.29 129.03 102.265 128.245 102.381 127.159C102.498 126.074 101.713 125.1 100.628 124.983C99.543 124.867 98.5688 125.652 98.452 126.737Z" fill="#F1EEEB" stroke="black" stroke-width="0.64483"/>
<path d="M55.7092 126.992C55.5925 128.077 56.3774 129.051 57.4625 129.168C58.5476 129.285 59.5218 128.5 59.6386 127.415C59.7553 126.33 58.9703 125.355 57.8853 125.239C56.8002 125.122 55.826 125.907 55.7092 126.992Z" fill="#F1EEEB" stroke="black" stroke-width="0.64483"/>
<path d="M23.1616 149.853L24.8741 151.808" stroke="#FF575B" stroke-width="3.22415" stroke-linecap="round"/>
<path d="M50.3203 126.223C27.8503 121.192 0.687593 117.243 18.8924 144.115" stroke="url(#paint3_linear_3_5385)" stroke-width="3.22415" stroke-linecap="round"/>
<path d="M59.9022 127.462L62.7549 127.769" stroke="black" stroke-width="0.64483"/>
<circle cx="138.764" cy="108.33" r="4.26582" transform="rotate(-65.4478 138.764 108.33)" stroke="black" stroke-width="1.28966"/>
<path d="M133.544 85.8959C134.118 84.6393 135.147 83.7344 136.347 83.2871C137.547 82.8396 138.917 82.85 140.174 83.4241C142.687 84.5723 143.794 87.5404 142.646 90.0537L130.345 116.981L121.238 112.833L133.544 85.8959Z" fill="url(#paint4_linear_3_5385)"/>
<path d="M125.33 108.058L125.019 108.738C124.959 108.87 124.803 108.928 124.671 108.867C124.539 108.807 124.481 108.651 124.541 108.519L124.852 107.84C124.912 107.708 125.068 107.65 125.2 107.71C125.332 107.77 125.39 107.926 125.33 108.058Z" fill="white" fill-opacity="0.31"/>
<path d="M136.472 83.6103L136.472 83.6102C137.607 83.1956 138.906 83.2118 140.102 83.7579C142.493 84.8505 143.552 87.6449 142.479 89.9948L130.3 116.654L121.648 112.713L133.831 86.0442C134.368 84.8686 135.337 84.0246 136.472 83.6103Z" stroke="black" stroke-width="0.64483"/>
<path d="M123.803 120.596L128.209 110.603C128.971 108.876 130.998 108.105 132.715 108.889C134.4 109.659 135.154 111.64 134.406 113.336L130.001 123.329C129.239 125.056 127.212 125.827 125.495 125.043C123.81 124.273 123.056 122.292 123.803 120.596Z" fill="#A600E0" stroke="black" stroke-width="0.64483"/>
<path d="M127.899 125.605L132.305 115.612C133.067 113.885 135.094 113.114 136.811 113.898C138.496 114.668 139.25 116.649 138.502 118.345L134.096 128.337C133.335 130.065 131.308 130.836 129.591 130.051C127.905 129.282 127.152 127.3 127.899 125.605Z" fill="url(#paint5_linear_3_5385)" stroke="black" stroke-width="0.64483"/>
<path d="M127.977 102.209L127.667 102.889C127.607 103.021 127.451 103.079 127.319 103.019C127.187 102.958 127.129 102.803 127.189 102.67L127.499 101.991C127.56 101.859 127.716 101.801 127.848 101.861C127.98 101.921 128.038 102.077 127.977 102.209Z" fill="white" fill-opacity="0.31"/>
<path d="M130.729 96.0249L130.418 96.7045C130.358 96.8365 130.202 96.8945 130.07 96.8343C129.939 96.774 129.88 96.6182 129.941 96.4863L130.251 95.8067C130.311 95.6747 130.467 95.6166 130.599 95.6769C130.731 95.7371 130.789 95.893 130.729 96.0249Z" fill="white" fill-opacity="0.31"/>
<path d="M139.568 109.659L137.058 110.329C136.301 110.531 135.522 110.089 135.307 109.336C135.086 108.564 135.542 107.761 136.317 107.554L138.828 106.884C139.585 106.682 140.364 107.124 140.579 107.878C140.799 108.65 140.344 109.452 139.568 109.659Z" fill="url(#paint6_linear_3_5385)" stroke="black" stroke-width="0.64483"/>
<path d="M135.044 106.832L145.23 118.354C146.342 119.612 146.609 121.407 145.912 122.935V122.935C144.637 125.725 140.915 126.287 138.874 123.996L131.158 115.339L135.044 106.832Z" fill="#F1EEEB"/>
<path d="M135.035 106.853L138.782 111.049L134.929 119.483L131.149 115.36L135.035 106.853Z" fill="black" fill-opacity="0.16"/>
<path d="M135.328 108.127L146.252 120.484C146.28 120.516 146.287 120.561 146.269 120.6L143.098 127.541C143.066 127.612 142.972 127.626 142.92 127.568L131.966 115.277C131.938 115.245 131.931 115.199 131.949 115.161L135.15 108.154C135.182 108.083 135.276 108.069 135.328 108.127Z" stroke="black" stroke-width="1.28966"/>
<path d="M128.628 90.5501C130.134 87.2529 134.557 86.6399 136.903 89.4032V89.4032C140.465 93.5989 141.28 99.4763 138.993 104.483L133.651 116.176C131.905 119.998 127.391 121.681 123.569 119.935C121.658 119.062 120.282 117.497 119.602 115.672C118.921 113.848 118.937 111.764 119.81 109.853L120.935 107.389C121.069 107.096 121.468 107.049 121.675 107.295V107.295C123.61 109.586 125.781 110.934 126.525 110.305C127.269 109.677 126.305 107.311 124.37 105.02C124.075 104.67 123.774 104.343 123.474 104.041C123.068 103.633 122.932 103.019 123.171 102.495L123.652 101.441C123.786 101.148 124.185 101.101 124.392 101.348V101.348C126.327 103.639 128.498 104.987 129.242 104.358C129.986 103.73 129.022 101.363 127.087 99.0725C126.797 98.7286 126.501 98.406 126.206 98.1082C125.792 97.6911 125.652 97.0635 125.896 96.529L126.402 95.4217C126.536 95.1288 126.935 95.0819 127.142 95.3281V95.3281C129.077 97.6191 131.248 98.967 131.992 98.3384C132.736 97.7102 131.771 95.3438 129.837 93.0529C129.31 92.428 128.764 91.8734 128.235 91.41L128.628 90.5501Z" fill="#F1EEEB"/>
<path d="M134.107 89.7418L137.476 93.6697C138.13 94.4322 138.386 95.2855 138.048 95.5758C137.709 95.8662 136.904 95.4839 136.25 94.7214L132.881 90.7934C132.227 90.031 131.971 89.1766 132.31 88.8863C132.648 88.5959 133.453 88.9793 134.107 89.7418Z" fill="white" fill-opacity="0.31"/>
<path d="M140.774 94.0077V94.0077C141.941 95.3819 142.207 97.307 141.458 98.9468L133.596 116.157C131.82 120.856 126.497 120.777 126.497 120.777L126.892 120.414C128.658 119.756 129.868 118.004 131.965 113.414L140.774 94.0077Z" fill="black" fill-opacity="0.12"/>
<path d="M120.206 115.447L120.206 115.447C120.829 117.118 122.088 118.549 123.837 119.348C127.335 120.946 131.467 119.406 133.065 115.908L138.479 104.057C140.618 99.3742 139.856 93.8772 136.524 89.9531C134.431 87.4881 130.486 88.0349 129.142 90.9762L129.017 91.2493C129.457 91.6614 129.9 92.1275 130.33 92.637C131.328 93.8196 132.094 95.0411 132.516 96.0757C132.726 96.5895 132.865 97.0922 132.886 97.5398C132.906 97.9758 132.816 98.4872 132.408 98.831L120.206 115.447ZM120.206 115.447C119.583 113.776 119.597 111.87 120.396 110.12L121.388 107.95M120.206 115.447L121.388 107.95M121.388 107.95C122.328 109.023 123.322 109.894 124.207 110.443C124.678 110.736 125.151 110.957 125.588 111.052C126.015 111.145 126.534 111.142 126.941 110.798L121.388 107.95ZM127.419 109.507C127.439 109.943 127.349 110.454 126.942 110.798L127.419 109.507ZM127.419 109.507C127.398 109.059 127.259 108.557 127.049 108.043M127.419 109.507L127.049 108.043M127.049 108.043C126.627 107.008 125.861 105.786 124.863 104.604M127.049 108.043L124.863 104.604M124.863 104.604C124.55 104.234 124.231 103.887 123.912 103.567M124.863 104.604L123.912 103.567M123.912 103.567C123.689 103.344 123.636 103.03 123.746 102.787L124.105 102.003M123.912 103.567L124.105 102.003M124.105 102.003C125.045 103.076 126.039 103.946 126.924 104.496C127.395 104.788 127.867 105.01 128.305 105.105C128.732 105.198 129.251 105.195 129.658 104.851L124.105 102.003ZM126.855 95.983C127.794 97.056 128.789 97.9269 129.674 98.476C130.145 98.7686 130.617 98.99 131.055 99.0854C131.482 99.1784 132.001 99.175 132.408 98.8311L126.855 95.983ZM126.855 95.983L126.267 97.2688C126.707 97.6808 127.15 98.1468 127.58 98.6565C128.578 99.8391 129.344 101.061 129.766 102.095C129.976 102.609 130.115 103.112 130.136 103.559C130.156 103.995 130.066 104.507 129.658 104.851L126.855 95.983ZM123.9 101.764C123.899 101.764 123.899 101.763 123.899 101.763L124.06 101.628L124.392 101.348L124.061 101.628L123.9 101.764ZM126.81 95.608L127.142 95.3281L126.811 95.6082L126.649 95.7442C126.649 95.744 126.649 95.7439 126.649 95.7437L126.81 95.608Z" stroke="black" stroke-width="1.28966"/>
<path d="M120.843 113.99C121.835 114.443 122.273 115.615 121.819 116.608C121.366 117.601 120.193 118.038 119.201 117.584C118.208 117.131 117.771 115.959 118.224 114.966C118.678 113.973 119.85 113.536 120.843 113.99Z" fill="#F1EEEB" stroke="black" stroke-width="0.64483"/>
<path d="M142.88 77.3649C143.873 77.8184 144.31 78.9907 143.856 79.9834C143.403 80.976 142.23 81.4131 141.238 80.9596C140.245 80.5062 139.808 79.3339 140.261 78.3412C140.715 77.3486 141.887 76.9115 142.88 77.3649Z" fill="#F1EEEB" stroke="black" stroke-width="0.64483"/>
<path d="M144.301 72.2254C151.445 50.3351 168.737 13.4438 180.761 41.0007" stroke="url(#paint7_linear_3_5385)" stroke-width="3.22415" stroke-linecap="round"/>
<path d="M183.851 48.8315L184.847 51.2325" stroke="url(#paint8_linear_3_5385)" stroke-width="3.22415" stroke-linecap="round"/>
<path d="M141.144 81.2103L139.952 83.8201" stroke="black" stroke-width="0.64483"/>
<path d="M143.178 163.868C140.785 159.838 134.721 156.254 132.501 155.539L148.985 146.154C147.828 148.648 147.172 154.57 150.184 155.428C153.195 156.286 154.37 160.32 154.267 161.079C150.404 163.526 145.571 167.897 143.178 163.868Z" fill="#2C2B35" stroke="black" stroke-width="1.28966" stroke-linejoin="round"/>
<path d="M131.55 170.488C129.307 166.373 129.32 159.329 129.839 157.055L113.355 166.44C116.089 166.717 121.516 169.176 120.717 172.203C119.918 175.231 122.787 178.301 123.493 178.6C127.568 176.527 133.794 174.602 131.55 170.488Z" fill="#2C2B35" stroke="black" stroke-width="1.28966" stroke-linejoin="round"/>
<path d="M102.888 112.02L100.549 111.684C100.066 111.615 99.5962 111.878 99.4038 112.327C92.3615 128.764 91.4284 147.177 96.773 164.241L98.2235 168.872C98.4115 169.472 98.9821 169.869 99.6103 169.837L102.838 169.67C105.86 169.513 108.199 166.964 108.096 163.94L106.452 115.994C106.383 113.981 104.881 112.307 102.888 112.02Z" fill="#7CE69A" stroke="black" stroke-width="1.28966"/>
<path d="M107.484 109.404L108.389 107.221C108.576 106.77 109.042 106.501 109.526 106.564C127.255 108.899 143.565 117.495 155.51 130.801L158.752 134.412C159.173 134.88 159.223 135.574 158.874 136.097L157.083 138.788C155.406 141.306 152.019 142.017 149.472 140.384L109.082 114.497C107.386 113.41 106.713 111.264 107.484 109.404Z" fill="#7CE69A" stroke="black" stroke-width="1.28966"/>
<path d="M103.484 107.174C103.358 107.198 103.242 107.258 103.151 107.348C96.5991 113.782 89.6321 132.15 106.537 158.311C109.954 163.598 116.933 164.835 122.329 161.763L131.385 156.608L140.672 151.32C145.825 148.386 148.368 142.165 145.753 136.718C142.176 129.268 136.738 120.944 129.644 114.948C122.539 108.943 113.733 105.246 103.484 107.174Z" fill="#7CE69A" stroke="black" stroke-width="1.28966" stroke-linecap="round" stroke-linejoin="round"/>
<ellipse opacity="0.16" rx="1.72033" ry="1.6271" transform="matrix(0.988922 -0.148436 0.148234 0.988952 127.8 150.22)" fill="black"/>
<mask id="path-50-inside-1_3_5385" fill="white">
<path fill-rule="evenodd" clip-rule="evenodd" d="M97.5272 115.07L106.606 131.017L107.517 128.236L108.584 159.361C107.196 160.204 102.702 160.232 98.7494 158.925C97.5903 158.541 96.4474 158.143 95.3449 157.759L95.3426 157.759C94.8571 157.59 94.3794 157.423 93.9116 157.262L93.8784 157.156C89.9588 144.641 90.6431 131.138 95.8079 119.083L97.5272 115.07Z"/>
</mask>
<path fill-rule="evenodd" clip-rule="evenodd" d="M97.5272 115.07L106.606 131.017L107.517 128.236L108.584 159.361C107.196 160.204 102.702 160.232 98.7494 158.925C97.5903 158.541 96.4474 158.143 95.3449 157.759L95.3426 157.759C94.8571 157.59 94.3794 157.423 93.9116 157.262L93.8784 157.156C89.9588 144.641 90.6431 131.138 95.8079 119.083L97.5272 115.07Z" fill="#EFEEF3"/>
<path d="M106.606 131.017L105.485 131.655L106.925 134.185L107.832 131.419L106.606 131.017ZM97.5272 115.07L98.6479 114.432L97.3639 112.177L96.3417 114.563L97.5272 115.07ZM107.517 128.236L108.806 128.192L106.291 127.834L107.517 128.236ZM108.584 159.362L109.253 160.464L109.899 160.072L109.873 159.317L108.584 159.362ZM98.7493 158.925L99.1543 157.7L99.1543 157.7L98.7493 158.925ZM95.3449 157.759L94.92 158.977L94.9208 158.977L95.3449 157.759ZM95.3426 157.759L95.7675 156.541L95.7666 156.541L95.3426 157.759ZM93.9116 157.262L92.6809 157.648L92.8756 158.269L93.4915 158.481L93.9116 157.262ZM93.8784 157.156L95.1091 156.771L95.1091 156.771L93.8784 157.156ZM95.8078 119.083L96.9933 119.591L95.8078 119.083ZM107.727 130.379L98.6479 114.432L96.4064 115.708L105.485 131.655L107.727 130.379ZM106.291 127.834L105.38 130.616L107.832 131.419L108.742 128.637L106.291 127.834ZM106.228 128.28L107.295 159.406L109.873 159.317L108.806 128.192L106.228 128.28ZM107.915 158.259C107.786 158.337 107.446 158.465 106.828 158.557C106.241 158.644 105.503 158.684 104.665 158.66C102.986 158.612 101 158.311 99.1543 157.7L98.3443 160.149C100.451 160.846 102.688 161.184 104.591 161.239C105.544 161.266 106.438 161.223 107.207 161.108C107.945 160.999 108.688 160.807 109.253 160.464L107.915 158.259ZM99.1543 157.7C98.0064 157.321 96.8728 156.926 95.769 156.542L94.9208 158.977C96.0218 159.361 97.1742 159.762 98.3443 160.149L99.1543 157.7ZM95.7698 156.542L95.7675 156.541L94.9177 158.976L94.92 158.977L95.7698 156.542ZM95.7666 156.541C95.2815 156.372 94.8017 156.205 94.3317 156.043L93.4915 158.481C93.9569 158.642 94.4326 158.807 94.9185 158.977L95.7666 156.541ZM95.1423 156.877L95.1091 156.771L92.6477 157.542L92.6809 157.648L95.1423 156.877ZM95.1091 156.771C91.2814 144.55 91.9497 131.363 96.9933 119.591L94.6224 118.575C89.3365 130.913 88.6361 144.733 92.6477 157.542L95.1091 156.771ZM96.9933 119.591L98.7126 115.578L96.3417 114.563L94.6224 118.575L96.9933 119.591Z" fill="black" mask="url(#path-50-inside-1_3_5385)"/>
<mask id="path-52-inside-2_3_5385" fill="white">
<path fill-rule="evenodd" clip-rule="evenodd" d="M120.475 122.565L144.344 137.863C146.022 137.225 149.144 135.484 150.314 131.98C151.08 129.687 151.296 127.799 151.453 126.425L151.453 126.424C151.495 126.064 151.532 125.739 151.574 125.451L150.896 124.695C142.135 114.937 130.173 108.632 117.171 106.921L114.253 106.536C114.379 106.678 114.495 106.811 114.596 106.929C115.224 109.359 119.304 115.81 121.682 119.57C122.679 121.147 123.377 122.25 123.396 122.386C123.423 122.583 122.112 122.575 120.528 122.565C120.51 122.565 120.493 122.565 120.475 122.565Z"/>
</mask>
<path fill-rule="evenodd" clip-rule="evenodd" d="M120.475 122.565L144.344 137.863C146.022 137.225 149.144 135.484 150.314 131.98C151.08 129.687 151.296 127.799 151.453 126.425L151.453 126.424C151.495 126.064 151.532 125.739 151.574 125.451L150.896 124.695C142.135 114.937 130.173 108.632 117.171 106.921L114.253 106.536C114.379 106.678 114.495 106.811 114.596 106.929C115.224 109.359 119.304 115.81 121.682 119.57C122.679 121.147 123.377 122.25 123.396 122.386C123.423 122.583 122.112 122.575 120.528 122.565C120.51 122.565 120.493 122.565 120.475 122.565Z" fill="#EFEEF3"/>
<path d="M120.475 122.565L120.483 121.275L116.03 121.248L119.779 123.651L120.475 122.565ZM144.344 137.863L143.648 138.949L144.195 139.3L144.803 139.069L144.344 137.863ZM150.314 131.98L149.091 131.571L150.314 131.98ZM151.453 126.425L152.735 126.572L152.735 126.566L151.453 126.425ZM151.453 126.424L150.172 126.278L150.171 126.283L151.453 126.424ZM151.574 125.451L152.85 125.637L152.937 125.039L152.534 124.589L151.574 125.451ZM150.896 124.695L151.855 123.834L150.896 124.695ZM117.171 106.921L117.003 108.199L117.171 106.921ZM114.253 106.536L114.421 105.258L110.989 104.806L113.289 107.393L114.253 106.536ZM114.596 106.929L115.844 106.606L115.77 106.316L115.575 106.089L114.596 106.929ZM121.682 119.57L120.592 120.259L121.682 119.57ZM123.396 122.386L124.673 122.21L124.673 122.21L123.396 122.386ZM120.528 122.565L120.536 121.276L120.536 121.276L120.528 122.565ZM119.779 123.651L143.648 138.949L145.04 136.778L121.171 121.479L119.779 123.651ZM144.803 139.069C146.628 138.374 150.187 136.432 151.537 132.388L149.091 131.571C148.1 134.536 145.416 136.076 143.886 136.658L144.803 139.069ZM151.537 132.388C152.348 129.96 152.576 127.958 152.734 126.572L150.172 126.278C150.016 127.641 149.811 129.415 149.091 131.571L151.537 132.388ZM152.735 126.566L152.735 126.566L150.171 126.283L150.171 126.284L152.735 126.566ZM152.735 126.571C152.776 126.205 152.811 125.901 152.85 125.637L150.298 125.264C150.252 125.576 150.213 125.923 150.172 126.278L152.735 126.571ZM152.534 124.589L151.855 123.834L149.936 125.557L150.614 126.313L152.534 124.589ZM151.855 123.834C142.889 113.846 130.647 107.394 117.34 105.642L117.003 108.199C129.7 109.871 141.381 116.027 149.936 125.557L151.855 123.834ZM117.34 105.642L114.421 105.258L114.085 107.815L117.003 108.199L117.34 105.642ZM113.289 107.393C113.41 107.53 113.521 107.657 113.617 107.768L115.575 106.089C115.469 105.966 115.348 105.827 115.217 105.68L113.289 107.393ZM113.347 107.252C113.542 108.004 113.97 108.968 114.483 109.982C115.007 111.02 115.665 112.197 116.369 113.402C117.778 115.811 119.405 118.382 120.592 120.259L122.772 118.88C121.581 116.997 119.978 114.463 118.596 112.099C117.905 110.917 117.276 109.791 116.785 108.819C116.281 107.823 115.964 107.069 115.844 106.606L113.347 107.252ZM120.592 120.259C121.092 121.05 121.511 121.713 121.807 122.194C121.956 122.436 122.067 122.621 122.139 122.748C122.176 122.813 122.195 122.848 122.201 122.862C122.205 122.869 122.198 122.856 122.187 122.829C122.186 122.827 122.14 122.718 122.118 122.562L124.673 122.21C124.65 122.037 124.595 121.904 124.581 121.869C124.558 121.811 124.533 121.759 124.514 121.72C124.475 121.641 124.428 121.555 124.382 121.473C124.286 121.306 124.157 121.09 124.004 120.843C123.697 120.344 123.269 119.666 122.772 118.88L120.592 120.259ZM122.118 122.562C122.066 122.18 122.196 121.847 122.373 121.622C122.524 121.431 122.69 121.338 122.757 121.303C122.891 121.234 122.985 121.223 122.946 121.231C122.898 121.24 122.766 121.254 122.513 121.265C122.029 121.284 121.341 121.281 120.536 121.276L120.52 123.855C121.299 123.86 122.059 123.865 122.619 123.842C122.889 123.831 123.178 123.811 123.418 123.766C123.523 123.747 123.727 123.704 123.934 123.598C124.061 123.533 124.798 123.116 124.673 122.21L122.118 122.562ZM120.536 121.276C120.518 121.276 120.501 121.275 120.483 121.275L120.467 123.855C120.485 123.855 120.502 123.855 120.52 123.855L120.536 121.276Z" fill="black" mask="url(#path-52-inside-2_3_5385)"/>
<path fill-rule="evenodd" clip-rule="evenodd" d="M98.417 116.437L100.486 119.29L104.384 124.182L108.477 127.788L113.678 130.515L116.777 130.853L118.225 130.029L118.815 127.591L119.479 125.172L119.358 121.593L117.506 116.711L117.204 109.772L115.265 108.055C132.662 112.2 144.29 132.591 148.446 144.991C148.639 145.566 148.388 146.185 147.861 146.486L131.066 156.047L114.046 165.737C113.494 166.051 112.784 165.904 112.393 165.403C95.405 143.659 94.8278 126.688 98.417 116.437Z" fill="#EFEEF3"/>
<path fill-rule="evenodd" clip-rule="evenodd" d="M140.022 136.577C140.026 136.586 140.023 136.597 140.015 136.602L133.767 140.958C133.755 140.967 133.737 140.962 133.731 140.948V140.948C132.838 139.023 131.627 137.262 130.15 135.739L130.127 135.715C130.116 135.704 130.118 135.685 130.131 135.677L136.377 131.321C136.386 131.316 136.397 131.316 136.405 131.324L136.515 131.432C138.015 132.897 139.207 134.646 140.022 136.577V136.577Z" fill="#2C2B35" stroke="black" stroke-width="0.64483"/>
<path d="M131.668 135.863C131.589 135.766 131.609 135.621 131.712 135.55L136.153 132.478C136.245 132.414 136.371 132.432 136.442 132.518L136.929 133.111C137.008 133.208 136.988 133.353 136.885 133.424L132.444 136.496C132.352 136.56 132.226 136.542 132.155 136.456L131.668 135.863Z" fill="white" fill-opacity="0.12"/>
<path d="M103.484 107.174C103.358 107.198 103.242 107.258 103.151 107.348C96.5991 113.782 89.6321 132.15 106.537 158.311C109.954 163.598 116.933 164.835 122.329 161.763L131.385 156.608L140.672 151.32C145.825 148.386 148.368 142.165 145.753 136.718C142.176 129.268 136.738 120.944 129.644 114.948C122.539 108.943 113.733 105.246 103.484 107.174Z" stroke="black" stroke-width="1.28966" stroke-linecap="round" stroke-linejoin="round"/>
<path d="M90.7722 124.589C86.7461 118.125 95.6184 113.008 99.9971 111.793C96.0274 116.724 100.263 119.392 102.77 119.922C103.477 120.077 107.019 121.325 115.539 125.082C124.059 128.838 114.706 131.595 116.236 136.31C113.366 134.419 114.088 132.235 110.849 131.833C104.195 131.005 94.7983 131.052 90.7722 124.589Z" fill="#1D1C24" stroke="black" stroke-width="0.64483"/>
<path d="M124.529 105.37C121.026 98.6087 112.151 103.72 108.871 106.865C115.138 105.968 115.216 110.879 114.393 113.306C114.165 113.992 113.43 117.675 112.311 126.919C112.27 127.264 112.238 127.609 112.217 127.955C111.91 132.834 118.553 130.812 120.51 126.332C123.195 120.187 128.032 112.131 124.529 105.37Z" fill="#2C2B35" stroke="black" stroke-width="0.64483"/>
<path d="M122.329 106.175C120.489 102.623 115.293 104.64 113.561 106.297C116.865 105.82 119.162 106.37 120.013 107.864C120.784 109.218 120.858 111.581 120.259 116.442C119.971 118.781 121.091 119.221 122.048 117.067C122.095 116.961 122.139 116.863 122.178 116.772C123.599 113.538 124.168 109.727 122.329 106.175Z" fill="white" fill-opacity="0.11"/>
<path d="M57.5484 111.643C56.0171 108.953 52.6475 103.18 51.9129 101.31C74.0273 86.2465 114.175 55.8585 117.682 56.632C122.066 57.5987 129.099 67.3456 130.27 70.9221C131.182 73.7086 130.986 75.4376 138.908 89.3537C146.831 103.27 138.087 94.6445 129.981 91.159C126.24 89.5505 126.924 91.1827 128.983 93.5859C130.774 95.6773 129.43 99.2673 126.685 99.488C119.469 100.068 109.535 101.483 100.4 104.475C91.5448 107.376 85.8027 113.173 82.5179 118.17C81.0518 120.4 77.1721 120.628 75.8431 118.313C73.616 114.434 71.9864 111.957 74.0394 116.824C77.9304 126.048 70.2079 141.265 71.0279 132.822C71.8478 124.378 59.4626 115.005 57.5484 111.643Z" fill="#2C2B35" stroke="black" stroke-width="1.28966"/>
<path d="M122.757 70.8055C118.09 70.2471 116.605 74.0609 116.445 76.0376C113.655 80.0498 110.605 87.8369 120.735 86.8882C133.397 85.7025 128.592 71.5035 122.757 70.8055Z" fill="#FFE58B" stroke="black" stroke-width="1.28966"/>
<path d="M122.265 73.8969C119.155 73.5256 118.165 76.0612 118.059 77.3754C116.199 80.0428 114.167 85.2199 120.917 84.5893C129.354 83.8011 126.152 74.361 122.265 73.8969Z" fill="#FFEFB7"/>
<path d="M61.8835 105.462C63.7857 101.163 67.8234 101.833 69.6045 102.705C74.4792 102.353 82.732 103.705 76.7456 111.932C69.2626 122.215 59.5057 110.835 61.8835 105.462Z" fill="#FFE58B" stroke="black" stroke-width="1.28966"/>
<path d="M64.7934 106.616C66.0616 103.752 68.7471 104.195 69.9314 104.775C73.1744 104.537 78.6634 105.433 74.6757 110.915C69.6912 117.768 63.2082 110.196 64.7934 106.616Z" fill="#FFEFB7"/>
<circle cx="91.5602" cy="86.7767" r="30.2533" transform="rotate(-29.6534 91.5602 86.7767)" fill="#FFE68B" stroke="black" stroke-width="1.28966"/>
<ellipse cx="111.756" cy="94.8802" rx="3.6003" ry="2.79426" transform="rotate(-52.5147 111.756 94.8802)" fill="#FF0000" fill-opacity="0.12"/>
<ellipse rx="3.6003" ry="2.79426" transform="matrix(-0.992982 0.118268 0.118268 0.992982 89.3407 107.642)" fill="#FF0000" fill-opacity="0.12"/>
<path d="M69.1132 86.0142C68.0051 93.5646 61.0324 104.404 56.6172 110.442L51.634 100.603C46.3669 89.0704 44.4205 59.2371 73.8685 46.5777C103.317 33.9184 123.896 57.1552 130.504 70.356L126.581 72.5892C126.343 72.725 121.543 73.3895 117.194 70.328C109.625 65.0001 103.556 53.9767 97.2295 63.391C91.2565 72.2788 90.2999 74.5707 88.5864 74.9279C88.2541 68.7688 87.1242 58.9786 85.2632 69.0906C83.4021 79.2026 78.9513 81.6087 76.9585 81.5478C76.1331 78.1428 71.876 67.1897 69.1132 86.0142Z" fill="#2C2B35"/>
<path opacity="0.16" d="M121.253 57.3998C107.565 45.1561 83.5821 46.1877 73.5815 51.8812C56.7054 61.489 50.1765 87.711 50.7314 98.1487L49.6241 94.5744L48.9876 84.1158C48.8633 81.7717 50.1676 74.767 50.3298 74.2003C50.7173 72.8463 51.9908 70.1655 52.6191 68.0121C54.4847 64.4318 58.2393 57.086 58.6638 56.8443C59.0884 56.6026 64.5232 52.1875 67.1875 50.0102L75.6344 45.2013L85.3708 43.4301L96.3287 43.1276C99.998 44.2585 107.046 46.2043 107.274 46.6043C107.768 47.4714 112.512 49.016 114.644 50.3615L121.253 57.3998C122.516 58.5298 123.691 59.7727 124.76 61.1355L121.253 57.3998Z" fill="white"/>
<path d="M69.5422 84.4869C68.4339 91.9261 61.2769 103.684 56.8437 109.802C56.7522 109.928 56.5638 109.914 56.4867 109.778L52.816 103.331C46.8801 93.3389 44.4004 59.202 73.8484 46.5426C103.178 33.9342 125.558 57.1283 129.918 70.4523C129.95 70.5488 129.908 70.6489 129.82 70.6991L126.561 72.5541C126.323 72.6899 121.523 73.3545 117.174 70.2929C109.604 64.965 103.536 53.9416 97.2094 63.3559C91.5222 71.8184 90.3829 74.3011 88.8077 74.8277C88.6829 74.8694 88.5601 74.7767 88.5527 74.6453C88.2038 68.4769 87.0794 59.078 85.2431 69.0555C83.4312 78.9005 79.1645 81.4412 77.1014 81.5123C77.0047 81.5156 76.9241 81.4526 76.9002 81.3588C75.995 77.8042 72.0317 67.7762 69.5422 84.4869Z" stroke="black" stroke-width="1.28966"/>
<path opacity="0.16" d="M57.389 81.3499C55.47 85.4958 52.951 93.2696 56.4915 95.2454C61.1281 97.833 56.2883 84.0842 57.389 81.3499Z" fill="white"/>
<path opacity="0.16" d="M65.5856 69.8987C63.8122 72.6203 61.2454 77.8363 63.5304 79.5987C66.523 81.9067 64.5318 71.7109 65.5856 69.8987Z" fill="white"/>
<path opacity="0.16" d="M85.9495 55.4212C89.1894 55.656 94.8954 56.7684 94.9159 59.654C94.9429 63.4331 88.0299 55.6787 85.9495 55.4212Z" fill="white"/>
<path opacity="0.16" d="M111.446 58.039C115.729 59.2952 123.068 62.4458 122.257 66.3266C121.196 71.4091 114.165 58.9889 111.446 58.039Z" fill="white"/>
<mask id="path-76-inside-3_3_5385" fill="white">
<path fill-rule="evenodd" clip-rule="evenodd" d="M108.853 94.5255C107.064 95.5653 106.432 97.4633 106.71 98.1514C107.008 96.725 107.782 95.8038 108.539 94.9023L108.539 94.9023C108.644 94.7767 108.749 94.6516 108.853 94.5255ZM110.773 95.8955C108.764 96.3789 107.619 98.0159 107.683 98.7572C108.372 97.4908 109.364 96.8327 110.335 96.1887C110.482 96.0914 110.628 95.9943 110.773 95.8955ZM93.7839 105.51C93.3338 104.92 91.3792 104.495 89.5721 105.502C89.7333 105.478 89.8946 105.451 90.0564 105.424C91.2179 105.234 92.4049 105.039 93.7839 105.51ZM89.7701 107.852C91.2112 106.372 93.2033 106.223 93.8078 106.657C92.3672 106.602 91.2951 107.12 90.2458 107.626C90.0871 107.702 89.929 107.778 89.7701 107.852Z"/>
</mask>
<path d="M106.71 98.1513L106.111 98.3924L106.906 100.362L107.341 98.2835L106.71 98.1513ZM108.853 94.5254L109.351 94.9344L108.528 93.9679L108.853 94.5254ZM108.539 94.9022L109.033 95.3169L109.04 95.3081L108.539 94.9022ZM108.539 94.9022L108.045 94.4875L108.038 94.4963L108.539 94.9022ZM107.683 98.7571L107.041 98.8131L107.227 100.946L108.25 99.0652L107.683 98.7571ZM110.773 95.8954L111.136 96.428L110.622 95.2685L110.773 95.8954ZM110.335 96.1886L109.978 95.6513L110.335 96.1886ZM89.5721 105.502L89.2581 104.939L89.6693 106.139L89.5721 105.502ZM93.7839 105.51L93.5754 106.12L95.5851 106.807L94.2965 105.119L93.7839 105.51ZM90.0564 105.424L90.1609 106.061L90.1609 106.061L90.0564 105.424ZM93.8078 106.657L93.7836 107.301L95.9234 107.382L94.1839 106.133L93.8078 106.657ZM89.7701 107.852L89.308 107.403L90.0425 108.437L89.7701 107.852ZM90.2458 107.626L89.9656 107.045L89.9656 107.045L90.2458 107.626ZM107.308 97.9103C107.308 97.9103 107.305 97.9025 107.301 97.8847C107.298 97.8671 107.294 97.8423 107.293 97.8095C107.29 97.7432 107.294 97.6549 107.312 97.546C107.348 97.3274 107.434 97.0549 107.583 96.7597C107.879 96.1698 108.401 95.5337 109.177 95.0829L108.528 93.9679C107.515 94.5569 106.827 95.3897 106.43 96.1808C106.232 96.576 106.1 96.9721 106.04 97.3354C105.982 97.6832 105.98 98.0654 106.111 98.3924L107.308 97.9103ZM108.045 94.4876C107.292 95.3839 106.414 96.4166 106.078 98.0192L107.341 98.2835C107.602 97.0333 108.271 96.2234 109.032 95.3169L108.045 94.4876ZM108.038 94.4963L108.038 94.4963L109.04 95.3081L109.04 95.3081L108.038 94.4963ZM108.354 94.1164C108.253 94.2392 108.151 94.3615 108.045 94.4875L109.032 95.3168C109.137 95.1918 109.245 95.0638 109.351 94.9344L108.354 94.1164ZM108.326 98.7011C108.324 98.6801 108.331 98.5618 108.436 98.3483C108.533 98.1486 108.694 97.9119 108.92 97.6715C109.372 97.1911 110.053 96.7318 110.923 96.5224L110.622 95.2685C109.483 95.5424 108.587 96.1432 107.981 96.7876C107.678 97.1095 107.439 97.4513 107.277 97.7821C107.122 98.0991 107.011 98.4634 107.041 98.8131L108.326 98.7011ZM109.978 95.6513C109.013 96.2917 107.891 97.0261 107.117 98.4491L108.25 99.0652C108.853 97.9552 109.715 97.3736 110.691 96.726L109.978 95.6513ZM110.409 95.3629C110.268 95.4588 110.126 95.5535 109.978 95.6513L110.691 96.726C110.837 96.629 110.987 96.5296 111.136 96.428L110.409 95.3629ZM89.8861 106.065C90.6696 105.628 91.4831 105.504 92.1416 105.55C92.4712 105.574 92.7494 105.639 92.9559 105.719C93.0588 105.759 93.137 105.8 93.1923 105.837C93.2197 105.855 93.2393 105.871 93.2527 105.883C93.2662 105.895 93.2714 105.901 93.2713 105.901L94.2965 105.119C94.0826 104.839 93.7527 104.646 93.4242 104.518C93.0811 104.384 92.6733 104.295 92.2321 104.264C91.349 104.202 90.2817 104.368 89.2581 104.939L89.8861 106.065ZM89.9519 104.788C89.7895 104.815 89.6319 104.841 89.4749 104.865L89.6693 106.139C89.8348 106.114 89.9997 106.087 90.1609 106.061L89.9519 104.788ZM93.9925 104.9C92.4431 104.37 91.1068 104.598 89.9519 104.788L90.1609 106.061C91.329 105.869 92.3667 105.707 93.5754 106.12L93.9925 104.9ZM94.1839 106.133C93.8987 105.928 93.5285 105.838 93.1768 105.809C92.8098 105.78 92.3938 105.811 91.9624 105.907C91.0987 106.1 90.1246 106.564 89.308 107.403L90.2323 108.302C90.8568 107.66 91.5992 107.309 92.243 107.166C92.5653 107.094 92.8507 107.077 93.0723 107.095C93.3092 107.114 93.4147 107.168 93.4318 107.18L94.1839 106.133ZM90.5259 108.206C91.5811 107.697 92.521 107.253 93.7836 107.301L93.8321 106.012C92.2135 105.951 91.009 106.542 89.9656 107.045L90.5259 108.206ZM90.0425 108.437C90.2059 108.361 90.3679 108.283 90.5259 108.206L89.9656 107.045C89.8063 107.122 89.6521 107.196 89.4978 107.268L90.0425 108.437Z" fill="black" mask="url(#path-76-inside-3_3_5385)"/>
<path d="M100.474 95.1511C99.6321 95.3354 99.5953 97.2415 98.1138 98.085C96.6323 98.9284 94.9795 97.9842 94.386 98.6173C93.7924 99.2504 93.0985 101.772 94.1406 102.246C95.1827 102.719 100.552 102.379 101.492 104.031C100.552 102.379 103.582 97.9305 103.71 96.7978C103.837 95.6651 101.317 94.9667 100.474 95.1511Z" fill="#EF467D"/>
<path d="M96.9735 101.901C95.4761 101.713 95.6158 100.755 96.9351 100.889C98.2959 101.053 99.5504 101.705 100.465 102.724C99.3412 102.302 98.1678 102.026 96.9735 101.901Z" fill="black" fill-opacity="0.19"/>
<path d="M101.986 99.0466C102.59 97.6634 101.694 97.2943 101.136 98.4975C100.582 99.7511 100.503 101.163 100.912 102.469C101.123 101.288 101.484 100.137 101.986 99.0466Z" fill="black" fill-opacity="0.19"/>
<path d="M106.65 109.629C106.191 112.179 102.243 107.704 102.01 107.101C101.778 106.499 104.561 105.371 105.297 104.531C105.824 104.731 107.11 107.079 106.65 109.629Z" fill="white" stroke="black" stroke-width="0.64483"/>
<path d="M102.716 110.105C104.126 110.496 102.946 106.833 102.474 105.73C101.553 106.622 100.818 107.6 100.145 107.612C100.063 107.912 101.307 109.714 102.716 110.105Z" fill="white" stroke="black" stroke-width="0.64483"/>
<path d="M102.242 105.887L102.533 106.026L102.605 105.874L102.522 105.728L102.242 105.887ZM101.735 106.6L101.962 106.83L101.962 106.83L101.735 106.6ZM100.852 107.169L100.961 107.472L100.967 107.47L100.852 107.169ZM97.076 106.627L96.9317 106.916L96.9328 106.916L97.076 106.627ZM97.0759 106.627L96.8438 106.403L96.5393 106.719L96.9316 106.916L97.0759 106.627ZM97.3243 106.436L97.4813 106.718L97.4838 106.716L97.3243 106.436ZM97.3889 106.38L97.6441 106.577L97.6441 106.577L97.3889 106.38ZM97.4269 106.303L97.7384 106.387L97.7384 106.387L97.4269 106.303ZM97.4043 106.137L97.1241 106.297L97.1264 106.301L97.4043 106.137ZM97.273 106.035L97.1879 106.346L97.1879 106.346L97.273 106.035ZM97.1079 106.056L97.2628 106.339L97.2674 106.336L97.1079 106.056ZM96.5542 106.587L96.2782 106.42L96.2782 106.42L96.5542 106.587ZM96.3425 107.323L96.0201 107.318L96.0199 107.33L96.0206 107.342L96.3425 107.323ZM96.3639 107.406L96.0737 107.546L96.0737 107.546L96.3639 107.406ZM96.4152 107.474L96.629 107.232L96.629 107.232L96.4152 107.474ZM96.4888 107.516L96.3842 107.821L96.3842 107.821L96.4888 107.516ZM96.5731 107.528L96.5641 107.205L96.5526 107.206L96.5731 107.528ZM96.6691 107.502L96.8245 107.784L96.8301 107.781L96.6691 107.502ZM96.7526 107.416L97.0357 107.571L97.0357 107.571L96.7526 107.416ZM96.7793 107.3L96.4575 107.279L96.4564 107.297L96.4573 107.316L96.7793 107.3ZM96.8442 106.995L97.0414 106.74L96.695 106.472L96.5421 106.882L96.8442 106.995ZM96.8799 107.017L97.0247 106.729L97.0243 106.729L96.8799 107.017ZM101 107.581L101.11 107.884L101.112 107.883L101 107.581ZM101.978 106.978L102.198 107.213L102.198 107.213L101.978 106.978ZM102.646 106.044L102.68 105.724L102.448 105.699L102.352 105.912L102.646 106.044ZM104.408 105.687L104.253 105.404L104.252 105.405L104.408 105.687ZM104.818 105.415L105.019 105.667L105.023 105.663L104.818 105.415ZM106.437 101.584L106.758 101.608L106.758 101.607L106.437 101.584ZM106.436 101.539L106.495 101.222L106.059 101.14L106.116 101.58L106.436 101.539ZM106.724 101.638L106.903 101.369L106.888 101.359L106.872 101.351L106.724 101.638ZM106.838 101.674L106.827 101.996L106.827 101.996L106.838 101.674ZM106.954 101.646L107.112 101.927L107.118 101.924L106.954 101.646ZM107.026 101.577L106.759 101.395L106.753 101.405L107.026 101.577ZM107.059 101.498L106.743 101.433L106.743 101.433L107.059 101.498ZM107.06 101.413L107.377 101.353L107.377 101.353L107.06 101.413ZM106.968 101.274L107.148 101.007L107.138 101L107.128 100.994L106.968 101.274ZM106.228 101.081L106.226 100.758L106.226 100.758L106.228 101.081ZM105.49 101.284L105.646 101.566L105.653 101.562L105.49 101.284ZM105.425 101.339L105.172 101.138L105.172 101.138L105.425 101.339ZM105.386 101.415L105.696 101.503L105.696 101.503L105.386 101.415ZM105.406 101.582L105.686 101.422L105.686 101.422L105.406 101.582ZM105.539 101.685L105.624 101.374L105.624 101.374L105.539 101.685ZM105.706 101.664L105.866 101.944L105.868 101.943L105.706 101.664ZM105.99 101.55L106.312 101.567L106.334 101.136L105.914 101.237L105.99 101.55ZM105.99 101.552L106.312 101.569L106.312 101.566L105.99 101.552ZM104.529 105.076L104.729 105.328L104.734 105.325L104.529 105.076ZM103.589 105.545L103.507 105.233L103.507 105.233L103.589 105.545ZM102.717 105.617L102.436 105.776L102.52 105.923L102.687 105.938L102.717 105.617ZM102.522 105.728L102.406 105.524L101.846 105.843L101.961 106.047L102.522 105.728ZM101.962 106.83C102.197 106.596 102.39 106.324 102.533 106.026L101.951 105.749C101.84 105.98 101.691 106.19 101.508 106.371L101.962 106.83ZM100.967 107.47C101.339 107.328 101.678 107.11 101.962 106.83L101.508 106.371C101.288 106.589 101.026 106.758 100.737 106.868L100.967 107.47ZM96.9328 106.916C97.1268 107.012 97.721 107.293 98.4638 107.481C99.1994 107.667 100.126 107.774 100.961 107.472L100.742 106.866C100.086 107.103 99.3092 107.03 98.6219 106.856C97.9419 106.684 97.3938 106.425 97.2193 106.339L96.9328 106.916ZM96.9316 106.916L96.9317 106.916L97.2203 106.339L97.2202 106.339L96.9316 106.916ZM97.1673 106.154C97.0474 106.221 96.9385 106.305 96.8438 106.403L97.3079 106.851C97.3586 106.799 97.417 106.754 97.4813 106.718L97.1673 106.154ZM97.1337 106.183C97.1422 106.172 97.1528 106.163 97.1648 106.156L97.4838 106.716C97.5459 106.681 97.6004 106.634 97.6441 106.577L97.1337 106.183ZM97.1154 106.22C97.119 106.206 97.1253 106.194 97.1337 106.183L97.6441 106.577C97.6878 106.52 97.7199 106.456 97.7384 106.387L97.1154 106.22ZM97.1128 106.261C97.1109 106.247 97.1118 106.233 97.1154 106.22L97.7384 106.387C97.7568 106.317 97.7614 106.245 97.7518 106.174L97.1128 106.261ZM97.1264 106.301C97.1193 106.289 97.1147 106.275 97.1128 106.261L97.7518 106.174C97.7421 106.104 97.7185 106.035 97.6822 105.974L97.1264 106.301ZM97.1879 106.346C97.161 106.339 97.138 106.321 97.1241 106.297L97.6845 105.978C97.6136 105.853 97.4962 105.762 97.3581 105.724L97.1879 106.346ZM97.2674 106.336C97.2434 106.35 97.2148 106.354 97.1879 106.346L97.3581 105.724C97.22 105.686 97.0727 105.705 96.9484 105.776L97.2674 106.336ZM96.8302 106.753C96.9353 106.579 97.0845 106.436 97.2628 106.339L96.953 105.773C96.6749 105.926 96.4421 106.149 96.2782 106.42L96.8302 106.753ZM96.6649 107.329C96.6682 107.126 96.7252 106.927 96.8302 106.753L96.2782 106.42C96.1144 106.691 96.0253 107.001 96.0201 107.318L96.6649 107.329ZM96.654 107.265C96.6601 107.278 96.6636 107.291 96.6644 107.305L96.0206 107.342C96.0246 107.413 96.0427 107.482 96.0737 107.546L96.654 107.265ZM96.629 107.232C96.6394 107.241 96.6479 107.253 96.654 107.265L96.0737 107.546C96.1048 107.61 96.1482 107.668 96.2015 107.715L96.629 107.232ZM96.5933 107.211C96.6064 107.216 96.6185 107.223 96.629 107.232L96.2015 107.715C96.2548 107.762 96.3169 107.798 96.3842 107.821L96.5933 107.211ZM96.5526 107.206C96.5664 107.205 96.5802 107.207 96.5933 107.211L96.3842 107.821C96.4515 107.844 96.5227 107.854 96.5937 107.849L96.5526 107.206ZM96.5138 107.219C96.5292 107.211 96.5465 107.206 96.5641 107.205L96.5821 107.85C96.667 107.848 96.7501 107.825 96.8244 107.784L96.5138 107.219ZM96.4696 107.262C96.4786 107.245 96.4919 107.232 96.5081 107.222L96.8301 107.781C96.9166 107.731 96.9878 107.658 97.0357 107.571L96.4696 107.262ZM96.4573 107.316C96.4564 107.297 96.4607 107.278 96.4696 107.262L97.0357 107.571C97.0835 107.483 97.1063 107.384 97.1013 107.284L96.4573 107.316ZM96.5421 106.882C96.4948 107.009 96.4662 107.143 96.4575 107.279L97.1011 107.32C97.1057 107.247 97.121 107.176 97.1464 107.108L96.5421 106.882ZM97.0243 106.729C97.0304 106.732 97.0361 106.736 97.0414 106.74L96.6471 107.25C96.6746 107.271 96.7042 107.29 96.7354 107.306L97.0243 106.729ZM100.891 107.278C100.167 107.539 99.3466 107.481 98.6168 107.309C97.8914 107.138 97.2899 106.863 97.0247 106.729L96.735 107.305C97.0258 107.452 97.6768 107.75 98.4688 107.937C99.2563 108.123 100.219 108.206 101.11 107.884L100.891 107.278ZM101.757 106.742C101.506 106.977 101.211 107.159 100.888 107.278L101.112 107.883C101.515 107.734 101.884 107.506 102.198 107.213L101.757 106.742ZM102.352 105.912C102.211 106.225 102.009 106.508 101.757 106.742L102.198 107.213C102.511 106.92 102.764 106.568 102.94 106.177L102.352 105.912ZM104.252 105.405C103.773 105.671 103.224 105.782 102.68 105.724L102.611 106.365C103.288 106.437 103.97 106.299 104.565 105.969L104.252 105.405ZM104.617 105.162C104.503 105.253 104.381 105.334 104.253 105.404L104.563 105.97C104.723 105.882 104.876 105.781 105.019 105.667L104.617 105.162ZM106.115 101.56C106.093 101.858 106.023 102.515 105.8 103.226C105.575 103.941 105.207 104.675 104.613 105.166L105.023 105.663C105.754 105.06 106.173 104.19 106.415 103.419C106.658 102.643 106.734 101.932 106.758 101.608L106.115 101.56ZM106.116 101.58C106.115 101.574 106.115 101.567 106.115 101.56L106.758 101.607C106.761 101.57 106.76 101.534 106.755 101.497L106.116 101.58ZM106.872 101.351C106.752 101.29 106.626 101.246 106.495 101.222L106.376 101.856C106.446 101.869 106.514 101.892 106.577 101.925L106.872 101.351ZM106.85 101.352C106.869 101.353 106.887 101.358 106.903 101.369L106.546 101.906C106.63 101.962 106.727 101.993 106.827 101.996L106.85 101.352ZM106.796 101.365C106.813 101.356 106.831 101.351 106.85 101.352L106.827 101.996C106.926 102 107.025 101.976 107.112 101.927L106.796 101.365ZM106.753 101.405C106.763 101.39 106.776 101.377 106.791 101.368L107.118 101.924C107.191 101.881 107.253 101.821 107.298 101.749L106.753 101.405ZM106.743 101.433C106.746 101.419 106.752 101.406 106.76 101.395L107.292 101.759C107.332 101.7 107.36 101.634 107.375 101.564L106.743 101.433ZM106.743 101.474C106.741 101.46 106.741 101.446 106.743 101.433L107.375 101.564C107.389 101.495 107.39 101.423 107.377 101.353L106.743 101.474ZM106.759 101.512C106.751 101.501 106.746 101.488 106.743 101.474L107.377 101.353C107.363 101.283 107.336 101.216 107.297 101.157L106.759 101.512ZM106.788 101.542C106.776 101.534 106.766 101.524 106.759 101.512L107.297 101.157C107.258 101.098 107.207 101.046 107.148 101.007L106.788 101.542ZM106.23 101.403C106.433 101.402 106.632 101.454 106.808 101.554L107.128 100.994C106.853 100.838 106.542 100.756 106.226 100.758L106.23 101.403ZM105.653 101.562C105.828 101.459 106.027 101.404 106.23 101.403L106.226 100.758C105.91 100.76 105.6 100.846 105.327 101.006L105.653 101.562ZM105.677 101.54C105.668 101.551 105.658 101.56 105.645 101.566L105.334 101.001C105.272 101.036 105.217 101.082 105.172 101.138L105.677 101.54ZM105.696 101.503C105.692 101.516 105.686 101.529 105.677 101.54L105.172 101.138C105.128 101.194 105.095 101.259 105.075 101.328L105.696 101.503ZM105.699 101.462C105.701 101.476 105.7 101.49 105.696 101.503L105.075 101.328C105.056 101.396 105.05 101.468 105.059 101.539L105.699 101.462ZM105.686 101.422C105.693 101.434 105.697 101.448 105.699 101.462L105.059 101.539C105.067 101.61 105.09 101.679 105.126 101.741L105.686 101.422ZM105.624 101.374C105.65 101.381 105.672 101.399 105.686 101.422L105.126 101.741C105.197 101.866 105.315 101.958 105.454 101.996L105.624 101.374ZM105.547 101.384C105.57 101.371 105.598 101.367 105.624 101.374L105.454 101.996C105.593 102.034 105.741 102.015 105.866 101.944L105.547 101.384ZM105.914 101.237C105.785 101.268 105.661 101.318 105.545 101.385L105.868 101.943C105.93 101.907 105.997 101.88 106.066 101.864L105.914 101.237ZM106.312 101.566L106.312 101.567L105.668 101.534C105.668 101.536 105.668 101.538 105.668 101.539L106.312 101.566ZM104.734 105.325C105.415 104.763 105.799 103.91 106.017 103.182C106.237 102.447 106.301 101.791 106.312 101.569L105.668 101.536C105.659 101.719 105.601 102.322 105.399 102.997C105.195 103.679 104.859 104.386 104.324 104.827L104.734 105.325ZM103.67 105.857C104.056 105.757 104.417 105.577 104.729 105.328L104.328 104.823C104.086 105.016 103.807 105.155 103.507 105.233L103.67 105.857ZM102.687 105.938C103.017 105.968 103.349 105.941 103.67 105.857L103.507 105.233C103.259 105.298 103.001 105.319 102.746 105.296L102.687 105.938ZM102.321 105.573L102.436 105.776L102.997 105.457L102.881 105.254L102.321 105.573ZM101.142 103.403C101.047 103.456 100.96 103.441 100.925 103.431C100.906 103.425 100.893 103.419 100.886 103.416C100.879 103.412 100.875 103.41 100.875 103.41C100.875 103.409 100.877 103.411 100.881 103.414C100.884 103.417 100.889 103.421 100.896 103.427C100.909 103.439 100.926 103.456 100.946 103.478C101.03 103.568 101.147 103.717 101.29 103.92C101.574 104.323 101.94 104.905 102.321 105.573L102.881 105.254C102.494 104.574 102.117 103.973 101.817 103.548C101.668 103.337 101.532 103.162 101.419 103.04C101.365 102.981 101.304 102.922 101.241 102.878C101.21 102.857 101.162 102.828 101.102 102.811C101.042 102.794 100.933 102.779 100.822 102.842L101.142 103.403ZM102.406 105.524C102.026 104.856 101.712 104.245 101.511 103.794C101.41 103.568 101.341 103.391 101.306 103.273C101.298 103.244 101.292 103.222 101.288 103.204C101.286 103.195 101.285 103.189 101.284 103.184C101.283 103.179 101.283 103.177 101.283 103.177C101.283 103.177 101.284 103.182 101.283 103.19C101.283 103.197 101.281 103.212 101.276 103.231C101.267 103.266 101.236 103.349 101.142 103.403L100.822 102.842C100.712 102.905 100.669 103.006 100.653 103.067C100.637 103.127 100.637 103.183 100.64 103.22C100.645 103.297 100.665 103.38 100.688 103.457C100.735 103.615 100.817 103.822 100.922 104.057C101.134 104.532 101.458 105.163 101.846 105.843L102.406 105.524Z" fill="black"/>
<path d="M106.399 158.634L104.357 155.048C105.31 154.074 117.818 150.197 118.718 148.307C119.843 145.945 123.985 146.834 126.444 145.434C128.41 144.314 129.011 141.999 130.07 140.959C131.9 139.162 142.958 134.507 144.219 135.103C148.606 137.175 145.879 139.426 140.612 141.931C139.114 142.644 135.625 143.66 131.712 146.454C130.717 147.164 127.238 151.663 124.838 151.193C122.437 150.723 118.698 152.803 116.691 153.514C114.921 154.141 107.392 160.38 106.399 158.634Z" fill="#BD00FF" stroke="black" stroke-width="0.64483"/>
<path d="M124.115 158.291C124.003 157.069 120.444 155.49 119.531 154.796C120.513 152.433 116.632 148.007 119.985 147.668C121.818 147.483 122.853 154.755 125.51 154.752C128.166 154.748 128.73 157.813 127.677 159.661C127.484 159.999 127.381 160.391 127.342 160.807C127.13 163.053 126.64 165.542 124.71 166.709C123.226 167.606 123.116 162.61 123.192 161.902C123.262 161.243 124.265 159.933 124.115 158.291Z" fill="#800DA8" stroke="black" stroke-width="0.64483"/>
<path d="M116.421 150.816C116.35 149.858 116.513 149.163 116.846 148.642C117.523 147.58 121.129 150.654 121.793 151.724C122.158 152.314 121.15 155.061 120.477 156.704C119.941 157.798 119.063 160.013 119.838 160.113C120.613 160.214 121.756 162.823 121.069 163.853C120.642 165.074 122.114 166.299 121.256 167.359C120.292 168.549 121.819 169.885 122.676 171.01C123.153 171.637 122.778 172.373 122.094 172.762C121.156 173.296 119.966 173.117 119.298 172.269C118.127 170.785 116.934 168.929 117.338 168.137C118.027 166.786 117.624 163.123 116.327 161.435C115.03 159.748 116.763 155.4 116.421 150.816Z" fill="#D251FF" stroke="black" stroke-width="0.64483"/>
<path d="M129.776 143.66C129.931 142.874 132.372 140.507 140.892 137.332C149.412 134.156 137.031 140.228 129.776 143.66Z" fill="white" fill-opacity="0.22"/>
<path d="M127.898 147.566C128.025 148.099 127.55 149.216 124.638 149.422C121.726 149.628 125.598 148.27 127.898 147.566Z" fill="white" fill-opacity="0.22"/>
<path d="M107.325 156.832C107.067 156.348 107.237 155.139 109.983 154.176C112.729 153.214 109.355 155.546 107.325 156.832Z" fill="white" fill-opacity="0.22"/>
<ellipse cx="138.924" cy="169.753" rx="29.9308" ry="5.31984" transform="rotate(-29.6534 138.924 169.753)" fill="black" fill-opacity="0.04"/>
<path d="M104.532 83.8416L104.583 83.6578L104.838 82.7331L108.856 83.8319L110.087 79.3698L106.068 78.2714L107.171 74.2697L102.689 73.0456L101.586 77.0468L100.282 76.6905L98.2848 76.1446L97.5663 75.9489L96.3366 80.4105L100.356 81.5089L99.253 85.5105L103.734 86.7352L104.532 83.8416Z" fill="#441F07"/>
<path d="M86.854 95.9436L87.2822 96.0606L88.5127 91.5985L84.4934 90.5002L85.5963 86.4985L81.1143 85.2743L81.0395 85.5458L80.4923 87.531L80.0113 89.276L75.992 88.1776L74.7623 92.6393L78.7816 93.7376L77.6787 97.7393L82.16 98.9639L83.2629 94.9622L83.5934 95.0526L86.854 95.9436Z" fill="#441F07"/>
<path d="M104.537 83.8505L104.588 83.6673L104.845 82.7454L108.856 83.8319L110.095 79.3835L108.72 79.0113L107.862 82.0924L103.85 81.0058L103.593 81.927L103.542 82.1102L102.739 84.9957L99.6412 84.157L99.2607 85.5243L103.734 86.7352L104.537 83.8505Z" fill="#D15400"/>
<path d="M83.2696 94.9743L83.5996 95.0636L86.8544 95.9447L87.2819 96.0604L88.5202 91.612L87.1443 91.2402L86.2872 94.3209L85.8593 94.2044L82.6044 93.3233L82.2749 93.2348L81.1649 97.2242L78.0666 96.3855L77.6862 97.7528L82.1597 98.9637L83.2696 94.9743Z" fill="#D15400"/>
<defs>
<linearGradient id="paint0_linear_3_5385" x1="80.046" y1="124.635" x2="78.9756" y2="134.584" gradientUnits="userSpaceOnUse">
<stop stop-color="#FF575B"/>
<stop offset="0.291567" stop-color="#FF575B"/>
<stop offset="0.291667" stop-color="#FF8353"/>
<stop offset="0.427083" stop-color="#FF8353"/>
<stop offset="0.427183" stop-color="#FABA2C"/>
<stop offset="0.552083" stop-color="#FBBB2D"/>
<stop offset="0.552183" stop-color="#7AC74D"/>
<stop offset="0.671875" stop-color="#7AC74D"/>
<stop offset="0.671975" stop-color="#00B0FF"/>
<stop offset="0.770833" stop-color="#00B0FF"/>
<stop offset="0.770933" stop-color="#B99FE4"/>
<stop offset="0.9999" stop-color="#B99FE4"/>
<stop offset="1" stop-color="#B99FE4"/>
</linearGradient>
<linearGradient id="paint1_linear_3_5385" x1="99.4203" y1="137.63" x2="98.6007" y2="145.248" gradientUnits="userSpaceOnUse">
<stop stop-color="#FF575B"/>
<stop offset="0.291567" stop-color="#FF575B"/>
<stop offset="0.291667" stop-color="#FF8353"/>
<stop offset="0.427083" stop-color="#FF8353"/>
<stop offset="0.427183" stop-color="#FABA2C"/>
<stop offset="0.552083" stop-color="#FBBB2D"/>
<stop offset="0.552183" stop-color="#7AC74D"/>
<stop offset="0.671875" stop-color="#7AC74D"/>
<stop offset="0.671975" stop-color="#00B0FF"/>
<stop offset="0.770833" stop-color="#00B0FF"/>
<stop offset="0.770933" stop-color="#B99FE4"/>
<stop offset="0.9999" stop-color="#B99FE4"/>
<stop offset="1" stop-color="#B99FE4"/>
</linearGradient>
<linearGradient id="paint2_linear_3_5385" x1="85.1622" y1="135.259" x2="85.0271" y2="142.128" gradientUnits="userSpaceOnUse">
<stop stop-color="#FF575B"/>
<stop offset="0.291567" stop-color="#FF575B"/>
<stop offset="0.291667" stop-color="#FF8353"/>
<stop offset="0.427083" stop-color="#FF8353"/>
<stop offset="0.427183" stop-color="#FABA2C"/>
<stop offset="0.552083" stop-color="#FBBB2D"/>
<stop offset="0.552183" stop-color="#7AC74D"/>
<stop offset="0.671875" stop-color="#7AC74D"/>
<stop offset="0.671975" stop-color="#00B0FF"/>
<stop offset="0.770833" stop-color="#00B0FF"/>
<stop offset="0.770933" stop-color="#B99FE4"/>
<stop offset="0.9999" stop-color="#B99FE4"/>
<stop offset="1" stop-color="#B99FE4"/>
</linearGradient>
<linearGradient id="paint3_linear_3_5385" x1="9.9025" y1="125.169" x2="55.435" y2="127.381" gradientUnits="userSpaceOnUse">
<stop stop-color="#FF575B"/>
<stop offset="0.291567" stop-color="#FF575B"/>
<stop offset="0.291667" stop-color="#FF8353"/>
<stop offset="0.427083" stop-color="#FF8353"/>
<stop offset="0.427183" stop-color="#FABA2C"/>
<stop offset="0.552083" stop-color="#FBBB2D"/>
<stop offset="0.552183" stop-color="#7AC74D"/>
<stop offset="0.671875" stop-color="#7AC74D"/>
<stop offset="0.671975" stop-color="#00B0FF"/>
<stop offset="0.770833" stop-color="#00B0FF"/>
<stop offset="0.770933" stop-color="#B99FE4"/>
<stop offset="1" stop-color="#B99FE4"/>
<stop offset="1" stop-color="#B99FE4"/>
</linearGradient>
<linearGradient id="paint4_linear_3_5385" x1="128.431" y1="97.0894" x2="137.532" y2="101.247" gradientUnits="userSpaceOnUse">
<stop stop-color="#FF575B"/>
<stop offset="0.291567" stop-color="#FF575B"/>
<stop offset="0.291667" stop-color="#FF8353"/>
<stop offset="0.427083" stop-color="#FF8353"/>
<stop offset="0.427183" stop-color="#FABA2C"/>
<stop offset="0.552083" stop-color="#FBBB2D"/>
<stop offset="0.552183" stop-color="#7AC74D"/>
<stop offset="0.671875" stop-color="#7AC74D"/>
<stop offset="0.671975" stop-color="#00B0FF"/>
<stop offset="0.770833" stop-color="#00B0FF"/>
<stop offset="0.770933" stop-color="#B99FE4"/>
<stop offset="0.9999" stop-color="#B99FE4"/>
<stop offset="1" stop-color="#B99FE4"/>
</linearGradient>
<linearGradient id="paint5_linear_3_5385" x1="129.716" y1="120.383" x2="136.685" y2="123.566" gradientUnits="userSpaceOnUse">
<stop stop-color="#FF575B"/>
<stop offset="0.291567" stop-color="#FF575B"/>
<stop offset="0.291667" stop-color="#FF8353"/>
<stop offset="0.427083" stop-color="#FF8353"/>
<stop offset="0.427183" stop-color="#FABA2C"/>
<stop offset="0.552083" stop-color="#FBBB2D"/>
<stop offset="0.552183" stop-color="#7AC74D"/>
<stop offset="0.671875" stop-color="#7AC74D"/>
<stop offset="0.671975" stop-color="#00B0FF"/>
<stop offset="0.770833" stop-color="#00B0FF"/>
<stop offset="0.770933" stop-color="#B99FE4"/>
<stop offset="0.9999" stop-color="#B99FE4"/>
<stop offset="1" stop-color="#B99FE4"/>
</linearGradient>
<linearGradient id="paint6_linear_3_5385" x1="134.955" y1="106.912" x2="140.931" y2="110.302" gradientUnits="userSpaceOnUse">
<stop stop-color="#FF575B"/>
<stop offset="0.291567" stop-color="#FF575B"/>
<stop offset="0.291667" stop-color="#FF8353"/>
<stop offset="0.427083" stop-color="#FF8353"/>
<stop offset="0.427183" stop-color="#FABA2C"/>
<stop offset="0.552083" stop-color="#FBBB2D"/>
<stop offset="0.552183" stop-color="#7AC74D"/>
<stop offset="0.671875" stop-color="#7AC74D"/>
<stop offset="0.671975" stop-color="#00B0FF"/>
<stop offset="0.770833" stop-color="#00B0FF"/>
<stop offset="0.770933" stop-color="#B99FE4"/>
<stop offset="0.9999" stop-color="#B99FE4"/>
<stop offset="1" stop-color="#B99FE4"/>
</linearGradient>
<linearGradient id="paint7_linear_3_5385" x1="144.881" y1="73.2435" x2="167.693" y2="37.0683" gradientUnits="userSpaceOnUse">
<stop stop-color="#FF575B"/>
<stop offset="0.291567" stop-color="#FF575B"/>
<stop offset="0.291667" stop-color="#FF8353"/>
<stop offset="0.427083" stop-color="#FF8353"/>
<stop offset="0.427183" stop-color="#FABA2C"/>
<stop offset="0.552083" stop-color="#FBBB2D"/>
<stop offset="0.552183" stop-color="#7AC74D"/>
<stop offset="0.671875" stop-color="#7AC74D"/>
<stop offset="0.671975" stop-color="#00B0FF"/>
<stop offset="0.770833" stop-color="#00B0FF"/>
<stop offset="0.770933" stop-color="#B99FE4"/>
<stop offset="0.9999" stop-color="#B99FE4"/>
<stop offset="1" stop-color="#B99FE4"/>
</linearGradient>
<linearGradient id="paint8_linear_3_5385" x1="174.978" y1="33.3542" x2="184.987" y2="51.1527" gradientUnits="userSpaceOnUse">
<stop stop-color="#FF575B"/>
<stop offset="0.291567" stop-color="#FF575B"/>
<stop offset="0.291667" stop-color="#FF8353"/>
<stop offset="0.427083" stop-color="#FF8353"/>
<stop offset="0.427183" stop-color="#FABA2C"/>
<stop offset="0.552083" stop-color="#FBBB2D"/>
<stop offset="0.552183" stop-color="#7AC74D"/>
<stop offset="0.671875" stop-color="#7AC74D"/>
<stop offset="0.671975" stop-color="#00B0FF"/>
<stop offset="0.770833" stop-color="#00B0FF"/>
<stop offset="0.770933" stop-color="#B99FE4"/>
<stop offset="0.9999" stop-color="#B99FE4"/>
<stop offset="1" stop-color="#B99FE4"/>
</linearGradient>
</defs>
</svg>
