<svg width="232" height="394" viewBox="0 0 232 394" fill="none" xmlns="http://www.w3.org/2000/svg">
<path fill-rule="evenodd" clip-rule="evenodd" d="M25.5526 270.184C26.0202 271.006 25.7334 272.051 24.912 272.519C24.0906 272.986 23.0456 272.699 22.5779 271.878C22.1102 271.057 22.397 270.012 23.2185 269.544C24.0399 269.076 25.0849 269.363 25.5526 270.184ZM30.4226 270.192C30.8903 271.014 30.6035 272.059 29.782 272.526C28.9606 272.994 27.9156 272.707 27.4479 271.886C26.9803 271.064 27.2671 270.019 28.0885 269.552C28.91 269.084 29.955 269.371 30.4226 270.192ZM34.6521 272.534C35.4735 272.066 35.7603 271.021 35.2926 270.2C34.825 269.379 33.78 269.092 32.9585 269.559C32.1371 270.027 31.8503 271.072 32.318 271.894C32.7856 272.715 33.8306 273.002 34.6521 272.534Z" fill="white" fill-opacity="0.19"/>
<circle r="7.99212" transform="matrix(-0.994262 -0.106975 -0.106975 0.994262 9.19619 260.866)" stroke="black" stroke-width="2.41621"/>
<path d="M-21.9555 231.001C-24.5291 230.725 -26.9711 231.517 -28.8389 233.022C-30.7072 234.527 -32.0008 236.745 -32.2777 239.318C-32.8315 244.465 -29.1081 249.087 -23.9609 249.641L31.1844 255.574L33.2112 236.937L-21.9555 231.001Z" fill="url(#paint0_linear_3_4938)"/>
<path d="M21.6051 238.962L22.9969 239.111C23.2671 239.141 23.5096 238.945 23.5387 238.675C23.5677 238.405 23.3723 238.162 23.1022 238.133L21.7104 237.983C21.4402 237.954 21.1974 238.15 21.1683 238.42C21.1393 238.69 21.3349 238.933 21.6051 238.962Z" fill="white" fill-opacity="0.31"/>
<path d="M-28.4376 233.533L-28.4377 233.533C-30.1912 234.965 -31.4075 237.073 -31.6709 239.521C-32.1979 244.42 -28.7087 248.798 -23.8961 249.316L30.7004 255.19L32.6259 237.482L-21.9906 231.605C-24.3982 231.346 -26.6846 232.1 -28.4376 233.533Z" stroke="black" stroke-width="1.20811"/>
<path d="M48.8107 255.471C49.182 252.019 46.7109 248.91 43.2648 248.493L22.9522 246.035C19.4409 245.61 16.2602 248.139 15.8818 251.655C15.5105 255.106 17.9817 258.215 21.4277 258.632L41.7404 261.091C45.2516 261.515 48.4324 258.987 48.8107 255.471Z" fill="#A600E0" stroke="black" stroke-width="1.20811"/>
<path d="M52.9631 266.859C53.3344 263.408 50.8632 260.299 47.4172 259.882L27.1045 257.424C23.5933 256.999 20.4125 259.527 20.0342 263.044C19.6628 266.495 22.134 269.604 25.5801 270.021L45.8927 272.479C49.404 272.904 52.5847 270.376 52.9631 266.859Z" fill="url(#paint1_linear_3_4938)" stroke="black" stroke-width="1.20811"/>
<path d="M9.65033 237.634L11.0419 237.784C11.3123 237.813 11.5548 237.617 11.5839 237.347C11.6129 237.077 11.4176 236.834 11.1471 236.805L9.75561 236.655C9.48544 236.626 9.24262 236.822 9.21355 237.092C9.18449 237.362 9.38015 237.605 9.65033 237.634Z" fill="white" fill-opacity="0.31"/>
<path d="M6.7314 263.357C7.76448 264.45 9.49304 264.484 10.5683 263.432L14.0483 260.029C15.0978 259.002 15.1308 257.324 14.1226 256.257C13.0895 255.164 11.3609 255.13 10.2856 256.182L6.80555 259.585C5.75607 260.612 5.72307 262.29 6.7314 263.357Z" fill="url(#paint2_linear_3_4938)" stroke="black" stroke-width="1.20811"/>
<path d="M10.3403 253.44L20.4649 284.922C20.6354 285.453 21.1021 285.833 21.6559 285.892L35.8715 287.422C36.8833 287.531 37.6735 286.564 37.3658 285.594L27.7614 255.315L10.3403 253.44Z" fill="#F1EEEB"/>
<path d="M10.3831 253.445L13.5582 263.495L30.8317 265.353L27.8042 255.32L10.3831 253.445Z" fill="black" fill-opacity="0.16"/>
<path d="M12.3681 254.873C12.2232 254.858 12.1102 254.997 12.1549 255.135L21.6153 284.552C21.6397 284.628 21.7064 284.682 21.7855 284.691L36.0011 286.22C36.1457 286.236 36.2586 286.098 36.2146 285.959L26.8883 256.557C26.8642 256.481 26.7974 256.426 26.718 256.417L12.3681 254.873Z" stroke="black" stroke-width="2.41621"/>
<path d="M-19.5361 226.479C-21.7354 226.243 -23.4346 228.373 -22.7154 230.464L-15.8122 250.542C-14.7203 253.718 -11.89 255.976 -8.55078 256.336L26.7249 260.131C34.5527 260.973 41.5808 255.311 42.423 247.483C42.8441 243.569 41.639 239.855 39.3497 237.015C37.0612 234.173 33.6887 232.206 29.7748 231.785L24.729 231.242C24.1292 231.177 23.6726 231.775 23.8707 232.344C25.7115 237.652 25.8065 242.439 24.0822 243.037C22.3587 243.635 19.4688 239.818 17.628 234.51C17.347 233.701 17.1069 232.903 16.9078 232.13C16.6387 231.087 15.7793 230.279 14.7078 230.164L12.5489 229.932C11.9492 229.867 11.4925 230.464 11.6907 231.034C13.5314 236.342 13.6265 241.129 11.9022 241.727C10.1786 242.325 7.28876 238.507 5.44798 233.2C5.17157 232.403 4.93472 231.618 4.73747 230.857C4.46121 229.792 3.58354 228.967 2.48904 228.849L0.221237 228.605C-0.378546 228.541 -0.835153 229.138 -0.637026 229.708C1.20367 235.016 1.29878 239.802 -0.425512 240.4C-2.14907 240.998 -5.03894 237.181 -6.87972 231.873C-7.38201 230.426 -7.75367 229.017 -7.99443 227.721L-19.5361 226.479Z" fill="#F1EEEB"/>
<path d="M-15.8004 250.407C-14.7023 253.601 -11.856 255.872 -8.49788 256.233L26.7468 260.025C36.0174 261.657 40.9805 253.006 40.9805 253.006L40.0177 253.296C37.2682 255.511 33.2889 255.785 23.8885 254.774L-15.8004 250.407Z" fill="black" fill-opacity="0.12"/>
<path d="M38.4089 237.773L38.4091 237.773C40.5054 240.374 41.6073 243.771 41.2219 247.354C40.451 254.518 34.0185 259.701 26.8542 258.93L-9.69411 254.998C-11.7909 254.772 -13.568 253.354 -14.2536 251.36L-21.8819 229.173C-22.1696 228.336 -21.4899 227.485 -20.6102 227.579L-9.00164 228.828C-8.7578 229.93 -8.43064 231.089 -8.02106 232.27C-7.07081 235.009 -5.83526 237.412 -4.57192 239.081C-3.94447 239.91 -3.26772 240.614 -2.56639 241.076C-1.88339 241.525 -0.973174 241.869 -0.029769 241.542L38.4089 237.773ZM38.4089 237.773C36.3133 235.171 33.2281 233.372 29.6456 232.986L25.2005 232.508M38.4089 237.773L25.2005 232.508M25.2005 232.508C26.0307 235.048 26.4826 237.483 26.5213 239.433C26.5418 240.473 26.4468 241.445 26.1818 242.242C25.9237 243.018 25.4216 243.852 24.4782 244.179L25.2005 232.508ZM21.9413 243.713C22.6243 244.162 23.5345 244.506 24.478 244.179L21.9413 243.713ZM21.9413 243.713C21.24 243.251 20.5633 242.546 19.9358 241.718M21.9413 243.713L19.9358 241.718M19.9358 241.718C18.6725 240.049 17.4369 237.646 16.4867 234.907L19.9358 241.718ZM16.4866 234.906C16.1891 234.049 15.9352 233.203 15.7252 232.382L16.8955 232.083L15.7252 232.382C15.5787 231.81 15.1245 231.424 14.6274 231.37L13.0205 231.198C13.8506 233.737 14.3025 236.173 14.3412 238.123C14.3618 239.162 14.2668 240.135 14.0018 240.932C13.7437 241.708 13.2416 242.541 12.2981 242.868C11.3546 243.196 10.4443 242.852 9.7613 242.402C9.05998 241.941 8.38322 241.236 7.75578 240.407C6.49244 238.738 5.25689 236.336 4.30664 233.596C3.89697 232.416 3.56984 231.256 3.32606 230.155L0.692757 229.871C1.52295 232.411 1.97485 234.846 2.01347 236.797C2.03406 237.836 1.93908 238.809 1.67409 239.605C1.416 240.381 0.913915 241.215 -0.0295737 241.542L16.4866 234.906Z" stroke="black" stroke-width="2.41621"/>
<path d="M35.4524 237.406C35.2336 239.438 36.7043 241.264 38.7372 241.482C40.7701 241.701 42.5954 240.23 42.8141 238.198C43.0328 236.165 41.5622 234.339 39.5293 234.121C37.4964 233.902 35.6711 235.373 35.4524 237.406Z" fill="#F1EEEB" stroke="black" stroke-width="1.20811"/>
<circle cx="110.978" cy="202.921" r="7.99212" transform="rotate(-65.4478 110.978 202.921)" stroke="black" stroke-width="2.41621"/>
<path d="M101.198 160.889C102.274 158.534 104.202 156.839 106.45 156.001C108.697 155.163 111.265 155.182 113.619 156.258C118.328 158.409 120.401 163.97 118.25 168.679L95.2039 219.127L78.1432 211.357L101.198 160.889Z" fill="url(#paint3_linear_3_4938)"/>
<path d="M85.8085 202.411L85.2269 203.684C85.114 203.931 84.8221 204.04 84.575 203.927C84.3278 203.814 84.2188 203.522 84.3317 203.275L84.9133 202.002C85.0262 201.755 85.3184 201.646 85.5656 201.758C85.8127 201.871 85.9214 202.163 85.8085 202.411Z" fill="white" fill-opacity="0.31"/>
<path d="M106.684 156.607L106.684 156.607C108.81 155.83 111.244 155.86 113.484 156.883C117.965 158.93 119.949 164.166 117.938 168.568L95.1205 218.515L78.9102 211.132L101.736 161.167C102.742 158.964 104.557 157.383 106.684 156.607Z" stroke="black" stroke-width="1.20811"/>
<path d="M86.1178 234.232C82.9605 232.789 81.5484 229.077 82.9488 225.901L91.2034 207.179C92.6303 203.943 96.4279 202.498 99.645 203.968C102.802 205.41 104.214 209.122 102.814 212.299L94.5594 231.02C93.1325 234.257 89.3349 235.701 86.1178 234.232Z" fill="#A600E0" stroke="black" stroke-width="1.20811"/>
<path d="M93.7913 243.615C90.6339 242.173 89.2219 238.461 90.6223 235.285L98.8769 216.563C100.304 213.327 104.101 211.882 107.318 213.352C110.476 214.794 111.888 218.506 110.487 221.682L102.233 240.404C100.806 243.64 97.0084 245.085 93.7913 243.615Z" fill="url(#paint4_linear_3_4938)" stroke="black" stroke-width="1.20811"/>
<path d="M90.7687 191.453L90.1871 192.726C90.0741 192.973 89.7823 193.082 89.5351 192.969C89.288 192.856 89.1789 192.564 89.2919 192.317L89.8735 191.044C89.9864 190.797 90.2786 190.688 90.5257 190.8C90.7729 190.913 90.8816 191.205 90.7687 191.453Z" fill="white" fill-opacity="0.31"/>
<path d="M95.9239 179.866L95.3423 181.139C95.2294 181.386 94.9376 181.495 94.6904 181.382C94.4432 181.269 94.3342 180.977 94.4471 180.73L95.0287 179.457C95.1417 179.21 95.4338 179.101 95.681 179.214C95.9282 179.327 96.0369 179.619 95.9239 179.866Z" fill="white" fill-opacity="0.31"/>
<path d="M114.378 202.073C114.791 203.519 113.938 205.023 112.485 205.411L107.781 206.666C106.363 207.044 104.903 206.216 104.5 204.805C104.088 203.358 104.941 201.854 106.394 201.467L111.097 200.211C112.516 199.833 113.976 200.661 114.378 202.073Z" fill="url(#paint5_linear_3_4938)" stroke="black" stroke-width="1.20811"/>
<path d="M104.009 200.114L125.913 224.89C126.281 225.307 126.37 225.903 126.139 226.409L120.198 239.414C119.775 240.34 118.54 240.526 117.863 239.766L96.7282 216.052L104.009 200.114Z" fill="#F1EEEB"/>
<path d="M103.991 200.154L111.012 208.013L103.793 223.816L96.7106 216.091L103.991 200.154Z" fill="black" fill-opacity="0.16"/>
<path d="M104.206 202.589C104.267 202.457 104.444 202.431 104.54 202.54L125.007 225.691C125.06 225.75 125.072 225.835 125.039 225.908L119.098 238.913C119.038 239.045 118.862 239.071 118.765 238.963L98.2418 215.935C98.1887 215.875 98.1758 215.79 98.209 215.717L104.206 202.589Z" stroke="black" stroke-width="2.41621"/>
<path d="M96.075 160.661C96.9941 158.649 99.6929 158.275 101.124 159.961L114.866 176.146C117.04 178.706 117.537 182.293 116.141 185.348L101.399 217.619C98.1277 224.78 89.6708 227.933 82.5096 224.662C78.9291 223.026 76.3507 220.094 75.0767 216.676C73.8016 213.257 73.8313 209.353 75.4669 205.772L77.5757 201.156C77.8264 200.608 78.5729 200.52 78.9617 200.981C82.5865 205.273 86.6544 207.799 88.0486 206.621C89.4425 205.444 87.6349 201.01 84.0108 196.718C83.4579 196.064 82.8944 195.45 82.3317 194.884C81.5717 194.12 81.3159 192.969 81.7637 191.989L82.666 190.014C82.9166 189.465 83.6632 189.377 84.052 189.838C87.6769 194.131 91.7447 196.656 93.1389 195.478C94.5328 194.301 92.7252 189.868 89.1011 185.576C88.5572 184.931 88.003 184.327 87.4494 183.769C86.6741 182.988 86.4128 181.812 86.8702 180.811L87.818 178.736C88.0686 178.187 88.8152 178.099 89.204 178.561C92.8289 182.853 96.8967 185.378 98.2909 184.2C99.6848 183.024 97.8772 178.59 94.253 174.298C93.2647 173.127 92.2424 172.088 91.2515 171.22L96.075 160.661Z" fill="#F1EEEB"/>
<path d="M102.253 168.095L108.566 175.454C109.791 176.882 110.27 178.481 109.636 179.025C109.001 179.569 107.494 178.853 106.268 177.424L99.9564 170.065C98.7311 168.636 98.2515 167.036 98.8857 166.492C99.5199 165.948 101.028 166.666 102.253 168.095Z" fill="white" fill-opacity="0.31"/>
<path d="M114.743 176.087C116.929 178.662 117.429 182.268 116.026 185.341L101.296 217.584C97.9678 226.389 87.9956 226.241 87.9956 226.241L88.7362 225.561C92.0445 224.327 94.3112 221.045 98.2398 212.445L114.743 176.087Z" fill="black" fill-opacity="0.12"/>
<path d="M76.2086 216.253L76.2087 216.254C77.3754 219.384 79.7343 222.066 83.0116 223.563C89.5659 226.557 97.306 223.671 100.3 217.117L115.574 183.681C116.451 181.763 116.139 179.511 114.774 177.904L99.5885 160.019C99.0159 159.344 97.9363 159.494 97.5687 160.299L92.7173 170.919C93.5402 171.691 94.3703 172.564 95.1762 173.519C97.047 175.734 98.4821 178.023 99.2724 179.961C99.6649 180.924 99.9256 181.866 99.9645 182.704C100.002 183.521 99.8333 184.479 99.0704 185.123L76.2086 216.253ZM76.2086 216.253C75.041 213.123 75.0686 209.552 76.5658 206.274L78.4235 202.208M76.2086 216.253L78.4235 202.208M78.4235 202.208C80.1838 204.218 82.0472 205.85 83.7045 206.879C84.5879 207.427 85.4727 207.842 86.2931 208.021C87.0921 208.195 88.0651 208.188 88.828 207.544L78.4235 202.208ZM89.7222 205.125C89.7601 205.941 89.5911 206.9 88.8282 207.544L89.7222 205.125ZM89.7222 205.125C89.6833 204.286 89.4227 203.344 89.0302 202.382M89.7222 205.125L89.0302 202.382M89.0302 202.382C88.2398 200.443 86.8048 198.155 84.9339 195.939L89.0302 202.382ZM84.9338 195.939C84.3483 195.245 83.7504 194.595 83.1521 193.996L82.2971 194.849L83.1521 193.996C82.7349 193.578 82.6344 192.99 82.8422 192.535L83.5138 191.065C85.2741 193.076 87.1375 194.707 88.7948 195.736C89.6781 196.284 90.5629 196.699 91.3833 196.878C92.1824 197.052 93.1553 197.046 93.9183 196.401C94.6813 195.757 94.8504 194.799 94.8125 193.982C94.7736 193.143 94.513 192.202 94.1204 191.239C93.3301 189.301 91.895 187.012 90.0242 184.796C89.2181 183.842 88.388 182.968 87.5653 182.197L88.6658 179.787C90.4261 181.798 92.2895 183.429 93.9468 184.458C94.8301 185.006 95.7149 185.421 96.5353 185.6C97.3344 185.774 98.3073 185.768 99.0703 185.124L84.9338 195.939Z" stroke="black" stroke-width="2.41621"/>
<path d="M77.402 213.524C79.2618 214.373 80.0807 216.57 79.2311 218.429C78.3816 220.289 76.1852 221.108 74.3254 220.258C72.4656 219.409 71.6467 217.212 72.4963 215.353C73.3459 213.493 75.5423 212.674 77.402 213.524Z" fill="#F1EEEB" stroke="black" stroke-width="1.20811"/>
<path d="M118.689 144.906C120.549 145.756 121.368 147.952 120.518 149.812C119.669 151.671 117.472 152.49 115.613 151.641C113.753 150.791 112.934 148.595 113.784 146.735C114.633 144.875 116.83 144.056 118.689 144.906Z" fill="#F1EEEB" stroke="black" stroke-width="1.20811"/>
<path d="M121.352 135.277C134.735 94.265 167.134 25.148 189.66 76.7766" stroke="url(#paint6_linear_3_4938)" stroke-width="6.04053" stroke-linecap="round"/>
<path d="M195.449 91.4477L197.315 95.9461" stroke="url(#paint7_linear_3_4938)" stroke-width="6.04053" stroke-linecap="round"/>
<path d="M115.437 152.111L113.203 157" stroke="black" stroke-width="1.20811"/>
<path d="M119.248 306.972C114.765 299.422 103.404 292.707 99.2438 291.368L130.128 273.785C127.96 278.456 126.731 289.551 132.373 291.159C138.015 292.766 140.217 300.325 140.023 301.748C132.786 306.332 123.732 314.521 119.248 306.972Z" fill="#2C2B35" stroke="black" stroke-width="2.41621" stroke-linejoin="round"/>
<path d="M97.4634 319.374C93.26 311.665 93.2844 298.468 94.2568 294.207L63.3727 311.79C68.4958 312.31 78.6639 316.917 77.1664 322.589C75.6689 328.26 81.0442 334.012 82.3669 334.572C90.0029 330.688 101.667 327.083 97.4634 319.374Z" fill="#2C2B35" stroke="black" stroke-width="2.41621" stroke-linejoin="round"/>
<path d="M50.4404 217.278C50.3111 213.507 47.4979 210.371 43.7631 209.834C40.2732 209.332 36.8813 211.236 35.4927 214.477L31.6089 223.542C22.0461 245.861 20.779 270.864 28.0364 294.035L33.2146 310.568C34.6321 315.094 38.9337 318.086 43.67 317.841C49.332 317.548 53.7146 312.772 53.5204 307.106L50.4404 217.278Z" fill="#7CE69A" stroke="black" stroke-width="2.41621"/>
<path d="M55.3678 214.473C52.191 212.437 50.9299 208.417 52.3744 204.931C53.7242 201.674 57.0932 199.729 60.5888 200.189L70.3661 201.477C94.4399 204.646 116.587 216.319 132.808 234.387L144.382 247.279C147.55 250.808 147.927 256.035 145.299 259.983C142.157 264.702 135.813 266.032 131.039 262.973L55.3678 214.473Z" fill="#7CE69A" stroke="black" stroke-width="2.41621"/>
<path d="M44.8792 200.754C44.6438 200.798 44.4269 200.912 44.256 201.079C30.824 214.271 16.5115 254.135 60.6198 310.592C61.7141 311.993 63.7004 312.414 65.2661 311.523L97.1534 293.369L128.618 275.455C130.087 274.619 130.816 272.87 130.264 271.221C125.514 257.05 115.61 237.365 101.223 222.251C86.8277 207.13 67.7897 196.444 44.8792 200.754Z" fill="#7CE69A" stroke="black" stroke-width="2.41621" stroke-linecap="round" stroke-linejoin="round"/>
<ellipse opacity="0.16" rx="3.22308" ry="3.04842" transform="matrix(0.988922 -0.148436 0.148234 0.988952 90.4359 281.401)" fill="black"/>
<mask id="path-44-inside-1_3_4938" fill="white">
<path fill-rule="evenodd" clip-rule="evenodd" d="M33.7198 215.548L50.7291 245.425L52.4357 240.214L54.4352 298.529C51.8343 300.108 43.4148 300.16 36.0096 297.71C33.8381 296.992 31.6967 296.246 29.6313 295.527C28.7201 295.21 27.8236 294.898 26.9459 294.595L26.8837 294.397C19.5402 270.95 20.8223 245.65 30.4986 223.066L33.7198 215.548Z"/>
</mask>
<path fill-rule="evenodd" clip-rule="evenodd" d="M33.7198 215.548L50.7291 245.425L52.4357 240.214L54.4352 298.529C51.8343 300.108 43.4148 300.16 36.0096 297.71C33.8381 296.992 31.6967 296.246 29.6313 295.527C28.7201 295.21 27.8236 294.898 26.9459 294.595L26.8837 294.397C19.5402 270.95 20.8223 245.65 30.4986 223.066L33.7198 215.548Z" fill="#EFEEF3"/>
<path d="M50.7291 245.425L48.6293 246.62L51.3277 251.36L53.0253 246.177L50.7291 245.425ZM33.7198 215.548L35.8196 214.352L33.4139 210.127L31.4989 214.596L33.7198 215.548ZM52.4357 240.214L54.8505 240.131L50.1395 239.462L52.4357 240.214ZM54.4352 298.529L55.6893 300.594L56.8985 299.86L56.85 298.446L54.4352 298.529ZM36.0096 297.71L35.2507 300.004L35.2507 300.004L36.0096 297.71ZM29.6313 295.527L28.8367 297.809L28.8367 297.809L29.6313 295.527ZM26.9459 294.595L24.6402 295.317L25.005 296.482L26.159 296.88L26.9459 294.595ZM26.8837 294.397L29.1895 293.674L29.1895 293.674L26.8837 294.397ZM30.4986 223.066L28.2776 222.115L28.2776 222.115L30.4986 223.066ZM52.8289 244.229L35.8196 214.352L31.6201 216.743L48.6293 246.62L52.8289 244.229ZM50.1395 239.462L48.4329 244.673L53.0253 246.177L54.732 240.966L50.1395 239.462ZM50.021 240.296L52.0205 298.611L56.85 298.446L54.8505 240.131L50.021 240.296ZM53.1812 296.463C52.9408 296.609 52.3037 296.849 51.1455 297.021C50.0452 297.185 48.6634 297.26 47.093 297.215C43.9477 297.125 40.2262 296.56 36.7684 295.416L35.2507 300.004C39.1981 301.31 43.389 301.944 46.955 302.045C48.7403 302.096 50.4138 302.015 51.8552 301.801C53.2386 301.596 54.6293 301.238 55.6893 300.594L53.1812 296.463ZM36.7684 295.416C34.6177 294.705 32.4939 293.965 30.4258 293.245L28.8367 297.809C30.8995 298.527 33.0585 299.279 35.2507 300.004L36.7684 295.416ZM30.4258 293.245C29.5153 292.928 28.6151 292.615 27.7329 292.311L26.159 296.88C27.0322 297.181 27.9248 297.491 28.8367 297.809L30.4258 293.245ZM29.2517 293.873L29.1895 293.674L24.578 295.119L24.6402 295.317L29.2517 293.873ZM29.1895 293.674C22.0182 270.778 23.2703 246.072 32.7195 224.018L28.2776 222.115C18.3743 245.229 17.0621 271.122 24.578 295.119L29.1895 293.674ZM32.7195 224.018L35.9408 216.499L31.4989 214.596L28.2776 222.115L32.7195 224.018Z" fill="black" mask="url(#path-44-inside-1_3_4938)"/>
<mask id="path-46-inside-2_3_4938" fill="white">
<path fill-rule="evenodd" clip-rule="evenodd" d="M76.7132 229.589L121.433 258.251C124.576 257.055 130.424 253.793 132.617 247.228C134.052 242.933 134.457 239.396 134.752 236.821C134.829 236.145 134.899 235.536 134.978 234.996L133.707 233.581C117.293 215.298 94.8832 203.486 70.5237 200.279L65.056 199.559C65.2924 199.825 65.5098 200.075 65.6984 200.295C66.8759 204.848 74.5188 216.933 78.974 223.977C80.8425 226.932 82.1503 229 82.1853 229.254C82.2363 229.623 79.78 229.608 76.8124 229.59C76.7794 229.59 76.7463 229.589 76.7132 229.589Z"/>
</mask>
<path fill-rule="evenodd" clip-rule="evenodd" d="M76.7132 229.589L121.433 258.251C124.576 257.055 130.424 253.793 132.617 247.228C134.052 242.933 134.457 239.396 134.752 236.821C134.829 236.145 134.899 235.536 134.978 234.996L133.707 233.581C117.293 215.298 94.8832 203.486 70.5237 200.279L65.056 199.559C65.2924 199.825 65.5098 200.075 65.6984 200.295C66.8759 204.848 74.5188 216.933 78.974 223.977C80.8425 226.932 82.1503 229 82.1853 229.254C82.2363 229.623 79.78 229.608 76.8124 229.59C76.7794 229.59 76.7463 229.589 76.7132 229.589Z" fill="#EFEEF3"/>
<path d="M76.7132 229.589L76.728 227.173L68.3857 227.122L75.4094 231.623L76.7132 229.589ZM121.433 258.251L120.129 260.285L121.154 260.942L122.292 260.509L121.433 258.251ZM132.617 247.228L130.325 246.463L132.617 247.228ZM134.752 236.821L137.152 237.096L134.752 236.821ZM134.978 234.996L137.368 235.346L137.532 234.225L136.776 233.382L134.978 234.996ZM133.707 233.581L135.505 231.967L135.505 231.967L133.707 233.581ZM70.5237 200.279L70.839 197.884L70.5237 200.279ZM65.056 199.559L65.3714 197.164L58.9406 196.317L63.2502 201.165L65.056 199.559ZM65.6984 200.295L68.0377 199.69L67.8974 199.147L67.5328 198.722L65.6984 200.295ZM78.974 223.977L81.0161 222.686L78.974 223.977ZM82.1853 229.254L79.7918 229.584L79.7918 229.584L82.1853 229.254ZM76.8124 229.59L76.7975 232.006L76.7976 232.006L76.8124 229.59ZM75.4094 231.623L120.129 260.285L122.736 256.217L78.017 227.555L75.4094 231.623ZM122.292 260.509C125.712 259.208 132.379 255.569 134.909 247.994L130.325 246.463C128.47 252.017 123.441 254.902 120.573 255.993L122.292 260.509ZM134.909 247.994C136.429 243.444 136.855 239.693 137.152 237.096L132.351 236.546C132.059 239.098 131.675 242.423 130.325 246.463L134.909 247.994ZM137.152 237.096C137.231 236.41 137.296 235.84 137.368 235.346L132.587 234.647C132.501 235.231 132.427 235.881 132.351 236.546L137.152 237.096ZM136.776 233.382L135.505 231.967L131.909 235.195L133.18 236.61L136.776 233.382ZM135.505 231.967C118.706 213.255 95.7702 201.166 70.839 197.884L70.2083 202.675C93.9962 205.807 115.88 217.341 131.909 235.195L135.505 231.967ZM70.839 197.884L65.3714 197.164L64.7406 201.955L70.2083 202.675L70.839 197.884ZM63.2502 201.165C63.4774 201.42 63.6853 201.659 63.8641 201.867L67.5328 198.722C67.3343 198.49 67.1073 198.23 66.8618 197.954L63.2502 201.165ZM63.3592 200.899C63.7234 202.308 64.5263 204.115 65.4865 206.015C66.4695 207.96 67.7018 210.165 69.0213 212.421C71.6608 216.935 74.708 221.752 76.9319 225.269L81.0161 222.686C78.7848 219.158 75.7829 214.411 73.1928 209.982C71.8975 207.767 70.7198 205.657 69.7995 203.835C68.8562 201.969 68.2622 200.558 68.0377 199.69L63.3592 200.899ZM76.9319 225.269C77.8696 226.752 78.6542 227.992 79.2094 228.895C79.4884 229.348 79.6957 229.694 79.831 229.932C79.9002 230.054 79.935 230.12 79.9474 230.145C79.9541 230.159 79.9414 230.134 79.9215 230.085C79.9196 230.08 79.832 229.875 79.7918 229.584L84.5789 228.924C84.5343 228.601 84.4324 228.35 84.4066 228.286C84.3627 228.176 84.3165 228.079 84.2805 228.006C84.2073 227.858 84.1197 227.698 84.0322 227.544C83.854 227.23 83.6109 226.827 83.3251 226.362C82.7505 225.428 81.9469 224.158 81.0161 222.686L76.9319 225.269ZM79.7918 229.584C79.693 228.868 79.9367 228.243 80.2692 227.822C80.5517 227.464 80.8621 227.29 80.9887 227.225C81.2397 227.096 81.4156 227.076 81.3419 227.089C81.2534 227.106 81.0046 227.134 80.5319 227.153C79.6237 227.19 78.335 227.183 76.8273 227.174L76.7976 232.006C78.2575 232.015 79.6807 232.024 80.7298 231.981C81.2357 231.961 81.7769 231.924 82.2274 231.84C82.4231 231.804 82.8058 231.724 83.1929 231.525C83.4306 231.403 84.813 230.621 84.5789 228.924L79.7918 229.584ZM76.8273 227.174C76.7943 227.173 76.7611 227.173 76.728 227.173L76.6983 232.005C76.7315 232.006 76.7645 232.006 76.7975 232.006L76.8273 227.174Z" fill="black" mask="url(#path-46-inside-2_3_4938)"/>
<path fill-rule="evenodd" clip-rule="evenodd" d="M35.3869 218.109L39.2633 223.454L46.5662 232.619L54.2351 239.374L63.9795 244.484L69.7851 245.118L72.4973 243.574L73.6035 239.005L74.847 234.474L74.6204 227.768L71.1511 218.622L70.5849 205.622L66.9513 202.404C99.5463 210.171 121.332 248.373 129.118 271.605C129.479 272.683 129.009 273.843 128.021 274.405L96.5556 292.319L64.6683 310.473C63.6341 311.062 62.3044 310.786 61.5717 309.848C29.7437 269.109 28.6623 237.313 35.3869 218.109Z" fill="#EFEEF3"/>
<path fill-rule="evenodd" clip-rule="evenodd" d="M113.239 255.613C113.302 255.764 113.252 255.938 113.118 256.031L101.964 263.807C101.759 263.95 101.475 263.873 101.37 263.647C99.8144 260.295 97.7066 257.228 95.1344 254.575L95.0872 254.526C94.9145 254.348 94.9425 254.057 95.146 253.915L106.288 246.147C106.431 246.048 106.624 246.064 106.748 246.185L106.943 246.375C109.635 249.006 111.775 252.146 113.239 255.613Z" fill="#2C2B35" stroke="black" stroke-width="1.20811"/>
<path d="M97.6841 254.503C97.5347 254.321 97.5726 254.05 97.7662 253.916L106.087 248.161C106.259 248.042 106.494 248.075 106.627 248.237L107.54 249.348C107.689 249.53 107.651 249.801 107.457 249.935L99.1367 255.69C98.9643 255.809 98.7293 255.776 98.5963 255.614L97.6841 254.503Z" fill="white" fill-opacity="0.12"/>
<path d="M44.8792 200.754C44.6438 200.798 44.4269 200.912 44.256 201.079C30.824 214.271 16.5115 254.135 60.6198 310.592C61.7141 311.993 63.7004 312.414 65.2661 311.523L97.1534 293.369L128.618 275.455C130.087 274.619 130.816 272.87 130.264 271.221C125.514 257.05 115.61 237.365 101.223 222.251C86.8277 207.13 67.7897 196.444 44.8792 200.754Z" stroke="black" stroke-width="2.41621" stroke-linecap="round" stroke-linejoin="round"/>
<path d="M21.0642 233.381C13.5212 221.271 30.1438 211.684 38.3474 209.408C30.9099 218.647 38.845 223.644 43.543 224.638C44.8662 224.928 51.503 227.266 67.4655 234.304C83.428 241.343 65.9046 246.508 68.7709 255.341C63.3946 251.798 64.7471 247.707 58.6794 246.952C46.2118 245.402 28.6072 245.49 21.0642 233.381Z" fill="#1D1C24" stroke="black" stroke-width="1.20811"/>
<path d="M84.3092 197.374C77.7462 184.707 61.1173 194.282 54.9725 200.175C66.7132 198.495 66.8608 207.694 65.3176 212.242C64.891 213.527 63.514 220.428 61.4185 237.747C59.7237 251.754 67.0795 266.387 73.1991 275.161C73.9658 276.26 75.5647 275.386 75.2222 274.091C70.5123 256.273 74.5824 241.676 76.7794 236.648C81.8098 225.135 90.8723 210.042 84.3092 197.374Z" fill="#2C2B35" stroke="black" stroke-width="1.20811"/>
<path d="M80.1859 198.882C76.7397 192.227 67.0042 196.007 63.7603 199.112C69.949 198.217 74.2538 199.247 75.8477 202.046C77.2922 204.584 77.4303 209.01 76.3091 218.118C75.603 223.854 73.5474 228.924 72.0013 233.204C71.5408 234.479 72.5442 234.817 73.1136 233.587C76.5466 226.17 78.8786 221.07 79.9044 218.736C82.5665 212.677 83.6321 205.536 80.1859 198.882Z" fill="white" fill-opacity="0.11"/>
<path d="M-41.1817 209.127C-44.0508 204.088 -50.3637 193.27 -51.74 189.768C-10.308 161.546 64.9096 104.613 71.4806 106.062C79.6944 107.874 92.871 126.135 95.0638 132.835C96.7723 138.056 96.4047 141.295 111.248 167.367C126.091 193.44 109.709 177.28 94.5221 170.75C82.9535 165.775 93.9748 177.344 101.876 184.646C102.284 185.022 102.025 185.708 101.47 185.713C89.6005 185.821 62.9034 187.902 39.1012 195.698C15.3585 203.475 3.56054 222.368 0.107797 232.075C-0.0722946 232.582 -0.77791 232.644 -1.03444 232.172C-6.84607 221.474 -15.8899 205.547 -10.2854 218.833C-2.99549 236.115 -17.4638 264.625 -15.9276 248.806C-14.3914 232.987 -37.5955 215.427 -41.1817 209.127Z" fill="#2C2B35" stroke="black" stroke-width="2.41621"/>
<path d="M80.989 132.617C72.2446 131.57 69.4619 138.716 69.1636 142.419C63.9347 149.936 58.2216 164.525 77.2 162.748C100.923 160.527 91.9195 133.924 80.989 132.617Z" fill="#FFE58B" stroke="black" stroke-width="2.41621"/>
<path d="M80.0657 138.409C74.239 137.713 72.3848 142.463 72.186 144.926C68.7019 149.923 64.8952 159.623 77.5412 158.441C93.3487 156.964 87.349 139.278 80.0657 138.409Z" fill="#FFEFB7"/>
<path d="M-33.0599 197.546C-29.4961 189.493 -21.9313 190.747 -18.5943 192.381C-9.4615 191.721 6.00029 194.256 -5.21536 209.668C-19.2349 228.934 -37.5147 207.613 -33.0599 197.546Z" fill="#FFE58B" stroke="black" stroke-width="2.41621"/>
<circle cx="22.5403" cy="162.539" r="56.6803" transform="rotate(-29.6534 22.5403 162.539)" fill="#FFE68B" stroke="black" stroke-width="2.41621"/>
<ellipse cx="60.3774" cy="177.722" rx="6.74526" ry="5.23513" transform="rotate(-52.5147 60.3774 177.722)" fill="#FF0000" fill-opacity="0.12"/>
<ellipse rx="6.74526" ry="5.23513" transform="matrix(-0.992982 0.118268 0.118268 0.992982 18.382 201.63)" fill="#FF0000" fill-opacity="0.12"/>
<path d="M-19.5146 161.111C-21.5907 175.257 -34.6542 195.564 -42.9263 206.877L-52.2624 188.443C-62.1304 166.837 -65.7772 110.943 -10.6055 87.2256C44.5662 63.5079 83.1215 107.043 95.5027 131.775L88.1535 135.959C87.7065 136.213 78.7145 137.458 70.5656 131.722C56.3844 121.74 45.0156 101.088 33.162 118.726C21.9714 135.377 20.1792 139.671 16.9689 140.34C16.3463 128.801 14.2295 110.459 10.7428 129.404C7.25604 148.349 -1.08269 152.857 -4.81621 152.743C-6.36277 146.364 -14.3385 125.843 -19.5146 161.111Z" fill="#2C2B35"/>
<path opacity="0.16" d="M78.1698 107.501C52.5252 84.562 7.59313 86.4947 -11.1432 97.1616C-42.761 115.162 -54.993 164.29 -53.9534 183.845L-56.0281 177.149L-57.2205 157.554C-57.4535 153.162 -55.0098 140.039 -54.7059 138.977C-53.9798 136.44 -51.594 131.418 -50.4168 127.383C-46.9215 120.676 -39.8873 106.913 -39.0919 106.46C-38.2964 106.007 -28.1142 97.7355 -23.1226 93.6562L-7.29707 84.6466L10.9443 81.3282L31.4743 80.7616C38.3489 82.8803 51.5538 86.5259 51.9805 87.2752C52.9053 88.8997 61.7939 91.7937 65.7889 94.3144L78.1698 107.501C80.5364 109.618 82.7387 111.947 84.7411 114.5L78.1698 107.501Z" fill="white"/>
<path d="M-18.711 158.249C-20.7874 172.187 -34.1963 194.216 -42.5019 205.678C-42.6733 205.915 -43.0263 205.887 -43.1708 205.634L-50.0479 193.554C-61.169 174.834 -65.8148 110.877 -10.6431 87.1597C44.3066 63.5375 86.2369 106.992 94.4053 131.955C94.4645 132.136 94.3857 132.323 94.2204 132.417L88.1159 135.893C87.6689 136.147 78.6769 137.392 70.528 131.656C56.3468 121.674 44.9779 101.022 33.1243 118.66C22.4693 134.515 20.3346 139.166 17.3836 140.153C17.1497 140.231 16.9196 140.057 16.9057 139.811C16.2522 128.254 14.1455 110.645 10.7051 129.338C7.31048 147.783 -0.683352 152.543 -4.54864 152.676C-4.7298 152.682 -4.88077 152.564 -4.9255 152.389C-6.62136 145.729 -14.0468 126.941 -18.711 158.249Z" stroke="black" stroke-width="2.41621"/>
<path opacity="0.16" d="M12.0286 103.794C18.0986 104.234 28.7889 106.318 28.8274 111.724C28.8779 118.805 15.9263 104.276 12.0286 103.794Z" fill="white"/>
<path opacity="0.16" d="M59.7973 108.698C67.8203 111.052 81.5702 116.955 80.052 124.225C78.0638 133.747 64.891 110.478 59.7973 108.698Z" fill="white"/>
<mask id="path-67-inside-3_3_4938" fill="white">
<path fill-rule="evenodd" clip-rule="evenodd" d="M54.9377 177.057C51.5865 179.005 50.4031 182.561 50.9227 183.85C51.4822 181.178 52.9314 179.452 54.3494 177.763C54.5469 177.527 54.7438 177.293 54.9377 177.057ZM58.5349 179.623C54.7711 180.529 52.6262 183.596 52.7472 184.985C54.0375 182.612 55.8959 181.379 57.7147 180.173C57.9897 179.99 58.2638 179.809 58.5349 179.623ZM26.7062 197.637C25.8629 196.532 22.2009 195.734 18.8152 197.622C19.1173 197.576 19.4194 197.526 19.7225 197.476C21.8987 197.119 24.1225 196.754 26.7062 197.637ZM19.1863 202.025C21.8862 199.251 25.6184 198.972 26.751 199.785C24.052 199.683 22.0433 200.652 20.0773 201.6C19.7801 201.744 19.4838 201.886 19.1863 202.025Z"/>
</mask>
<path d="M50.9227 183.85L49.8022 184.302L51.2898 187.992L52.1052 184.098L50.9227 183.85ZM54.9377 177.057L55.8717 177.823L54.3305 176.012L54.9377 177.057ZM54.3494 177.763L55.2747 178.54L55.2747 178.54L54.3494 177.763ZM52.7472 184.985L51.5437 185.09L51.892 189.087L53.8086 185.562L52.7472 184.985ZM58.5349 179.623L59.2161 180.621L58.2523 178.449L58.5349 179.623ZM57.7147 180.173L58.3825 181.18L57.7147 180.173ZM18.8152 197.622L18.227 196.566L18.9973 198.816L18.8152 197.622ZM26.7062 197.637L26.3155 198.78L30.0808 200.067L27.6665 196.904L26.7062 197.637ZM19.7225 197.476L19.5268 196.284L19.7225 197.476ZM26.751 199.785L26.7055 200.992L30.7145 201.143L27.4555 198.804L26.751 199.785ZM19.1863 202.025L18.3205 201.183L19.6965 203.12L19.1863 202.025ZM20.0773 201.6L20.6022 202.688L20.6022 202.688L20.0773 201.6ZM52.0432 183.398C52.0433 183.398 52.0375 183.384 52.031 183.35C52.0245 183.317 52.0183 183.271 52.0153 183.21C52.0093 183.085 52.0177 182.92 52.0515 182.716C52.1193 182.306 52.2803 181.796 52.5582 181.243C53.1133 180.137 54.0918 178.946 55.5448 178.101L54.3305 176.012C52.4323 177.116 51.1435 178.676 50.3991 180.158C50.0271 180.899 49.7804 181.641 49.6677 182.321C49.5598 182.973 49.5553 183.689 49.8022 184.302L52.0432 183.398ZM53.4242 176.986C52.0142 178.665 50.3689 180.6 49.7403 183.602L52.1052 184.098C52.5956 181.755 53.8485 180.238 55.2747 178.54L53.4242 176.986ZM54.0036 176.29C53.8149 176.521 53.6225 176.75 53.4242 176.986L55.2747 178.54C55.4714 178.305 55.6728 178.065 55.8717 177.823L54.0036 176.29ZM53.9508 184.88C53.9473 184.841 53.9611 184.619 54.1566 184.219C54.3395 183.845 54.6401 183.401 55.064 182.951C55.911 182.051 57.1865 181.19 58.8175 180.798L58.2523 178.449C56.1195 178.962 54.4407 180.088 53.3045 181.295C52.7368 181.898 52.2886 182.538 51.9858 183.158C51.6955 183.752 51.4866 184.435 51.5437 185.09L53.9508 184.88ZM57.0469 179.166C55.2383 180.366 53.1356 181.742 51.6859 184.408L53.8086 185.562C54.9394 183.483 56.5535 182.393 58.3825 181.18L57.0469 179.166ZM57.8538 178.626C57.5904 178.806 57.323 178.983 57.0469 179.166L58.3825 181.18C58.6564 180.998 58.9373 180.812 59.2161 180.621L57.8538 178.626ZM19.4034 198.677C20.8714 197.859 22.3956 197.625 23.6293 197.712C24.2468 197.756 24.768 197.878 25.1548 198.029C25.3476 198.104 25.4941 198.181 25.5978 198.249C25.649 198.283 25.6859 198.312 25.711 198.335C25.7363 198.357 25.7459 198.37 25.7458 198.37L27.6665 196.904C27.2657 196.379 26.6477 196.017 26.0323 195.777C25.3895 195.527 24.6254 195.36 23.7989 195.302C22.1444 195.186 20.1447 195.497 18.227 196.566L19.4034 198.677ZM19.5268 196.284C19.2225 196.334 18.9272 196.383 18.6331 196.427L18.9973 198.816C19.3074 198.769 19.6163 198.718 19.9183 198.668L19.5268 196.284ZM27.0969 196.494C24.1941 195.501 21.6905 195.929 19.5268 196.284L19.9183 198.668C22.1068 198.309 24.051 198.006 26.3155 198.78L27.0969 196.494ZM27.4555 198.804C26.9213 198.42 26.2277 198.251 25.5688 198.198C24.8812 198.142 24.1018 198.2 23.2934 198.381C21.6754 198.741 19.8504 199.61 18.3205 201.183L20.0521 202.868C21.2221 201.665 22.6131 201.008 23.8193 200.739C24.423 200.604 24.9578 200.572 25.3729 200.606C25.8167 200.642 26.0143 200.743 26.0464 200.766L27.4555 198.804ZM20.6022 202.688C22.5792 201.735 24.34 200.903 26.7055 200.992L26.7964 198.578C23.764 198.463 21.5074 199.569 19.5525 200.512L20.6022 202.688ZM19.6965 203.12C20.0026 202.978 20.3061 202.831 20.6022 202.688L19.5525 200.512C19.2541 200.656 18.965 200.795 18.676 200.93L19.6965 203.12Z" fill="black" mask="url(#path-67-inside-3_3_4938)"/>
<path d="M39.241 178.229C37.6629 178.574 37.594 182.145 34.8183 183.726C32.0427 185.306 28.9462 183.537 27.8341 184.723C26.7221 185.909 25.4219 190.634 27.3743 191.521C29.3267 192.408 39.3861 191.771 41.1479 194.866C39.3861 191.771 45.0628 183.436 45.3021 181.314C45.5414 179.192 40.819 177.884 39.241 178.229Z" fill="#EF467D"/>
<path d="M32.6818 190.874C29.8765 190.523 30.1382 188.728 32.6101 188.98C35.1595 189.286 37.5098 190.507 39.2237 192.416C37.1179 191.626 34.9196 191.108 32.6818 190.874Z" fill="black" fill-opacity="0.19"/>
<path d="M42.0738 185.527C43.2039 182.936 41.5263 182.244 40.4811 184.498C39.4432 186.847 39.2937 189.491 40.0606 191.94C40.4562 189.726 41.1328 187.571 42.0738 185.527Z" fill="black" fill-opacity="0.19"/>
<path d="M50.8119 205.353C49.9519 210.13 42.5538 201.746 42.1186 200.617C41.6833 199.489 46.8967 197.376 48.2769 195.802C49.2638 196.178 51.672 200.576 50.8119 205.353Z" fill="white" stroke="black" stroke-width="1.20811"/>
<path d="M43.4408 206.245C46.0815 206.977 43.8725 200.114 42.9878 198.048C41.261 199.721 39.8854 201.552 38.6241 201.575C38.4711 202.136 40.8001 205.512 43.4408 206.245Z" fill="white" stroke="black" stroke-width="1.20811"/>
<path d="M42.5519 198.344L43.0971 198.604L43.2329 198.319L43.0768 198.045L42.5519 198.344ZM42.3347 197.962L42.8597 197.663L42.3347 197.962ZM41.6027 199.679L42.0276 200.109L42.0276 200.109L41.6027 199.679ZM39.9481 200.745L40.1533 201.313L40.1633 201.309L39.9481 200.745ZM32.874 199.73L32.6035 200.27L32.6056 200.271L32.874 199.73ZM32.8738 199.73L32.439 199.31L31.8685 199.902L32.6032 200.27L32.8738 199.73ZM33.3392 199.371L33.6333 199.899L33.638 199.896L33.3392 199.371ZM33.5415 198.963L34.1401 198.881L34.1401 198.881L33.5415 198.963ZM33.4891 198.811L32.9641 199.11L32.9685 199.118L33.4891 198.811ZM33.2431 198.62L33.0836 199.203L33.0836 199.203L33.2431 198.62ZM32.9338 198.659L33.224 199.189L33.2326 199.184L32.9338 198.659ZM31.8964 199.654L31.3793 199.341L31.8964 199.654ZM31.4997 201.034L30.8957 201.024L30.8954 201.046L30.8966 201.068L31.4997 201.034ZM31.5398 201.188L32.0833 200.925L32.0833 200.925L31.5398 201.188ZM31.636 201.315L31.2356 201.767L31.2356 201.767L31.636 201.315ZM31.7738 201.395L31.5779 201.967L31.5779 201.967L31.7738 201.395ZM31.9318 201.417L31.915 200.813L31.9041 200.813L31.8933 200.814L31.9318 201.417ZM32.1116 201.368L32.4027 201.897L32.4133 201.891L32.1116 201.368ZM32.2682 201.208L32.7984 201.497L32.7984 201.497L32.2682 201.208ZM32.3181 200.989L31.7153 200.951L31.7131 200.985L31.7148 201.019L32.3181 200.989ZM32.4398 200.419L32.8091 199.941L32.1602 199.439L31.8738 200.208L32.4398 200.419ZM32.5065 200.461L32.7779 199.921L32.7772 199.921L32.5065 200.461ZM40.2264 201.516L40.4318 202.084L40.4361 202.083L40.2264 201.516ZM42.0571 200.386L41.6448 199.945L42.0571 200.386ZM43.309 198.638L43.3733 198.037L42.9379 197.99L42.7582 198.39L43.309 198.638ZM46.6112 197.968L46.3207 197.438L46.3181 197.44L46.6112 197.968ZM47.3787 197.458L47.7549 197.93L47.7631 197.924L47.3787 197.458ZM50.4116 190.28L51.014 190.325L51.0141 190.324L50.4116 190.28ZM50.4093 190.196L50.5206 189.603L49.7034 189.449L49.8102 190.274L50.4093 190.196ZM50.9506 190.382L51.2842 189.878L51.2562 189.859L51.2263 189.844L50.9506 190.382ZM51.1637 190.45L51.1855 189.846L51.1855 189.846L51.1637 190.45ZM51.3813 190.397L51.6774 190.924L51.688 190.918L51.3813 190.397ZM51.5151 190.267L51.0164 189.927L51.0103 189.936L51.0045 189.945L51.5151 190.267ZM51.5776 190.121L52.169 190.244L52.169 190.244L51.5776 190.121ZM51.5189 189.814L52.0229 189.481L52.0229 189.481L51.5189 189.814ZM51.4067 189.701L51.7439 189.199L51.7253 189.187L51.7059 189.176L51.4067 189.701ZM48.6378 189.719L48.9291 190.248L48.9364 190.244L48.9435 190.24L48.6378 189.719ZM48.5152 189.822L48.988 190.198L48.988 190.198L48.5152 189.822ZM48.4421 189.965L49.0233 190.129L49.0233 190.129L48.4421 189.965ZM48.4297 190.125L47.83 190.197L47.83 190.197L48.4297 190.125ZM48.4799 190.277L49.0049 189.978L49.0048 189.978L48.4799 190.277ZM48.7295 190.47L48.8889 189.888L48.8889 189.888L48.7295 190.47ZM49.0432 190.431L49.3421 190.956L49.3461 190.953L49.0432 190.431ZM49.5749 190.218L50.1781 190.248L50.219 189.441L49.4331 189.631L49.5749 190.218ZM49.5747 190.222L50.178 190.252L50.1782 190.246L49.5747 190.222ZM46.8367 196.823L47.2125 197.296L47.221 197.289L46.8367 196.823ZM45.0758 197.703L44.9235 197.118L44.9235 197.118L45.0758 197.703ZM43.4419 197.837L42.9169 198.135L43.0729 198.409L43.3868 198.438L43.4419 197.837ZM43.2249 197.455L43.7498 197.157L43.2249 197.455ZM43.0768 198.045L42.8597 197.663L41.8098 198.261L42.0269 198.643L43.0768 198.045ZM42.0276 200.109C42.469 199.672 42.8307 199.162 43.0971 198.604L42.0066 198.084C41.8002 198.517 41.52 198.911 41.1778 199.25L42.0276 200.109ZM40.1633 201.309C40.8615 201.043 41.4965 200.634 42.0276 200.109L41.1778 199.25C40.7662 199.657 40.274 199.974 39.7329 200.181L40.1633 201.309ZM32.6056 200.271C32.9691 200.451 34.0823 200.978 35.4741 201.33C36.8522 201.678 38.5889 201.878 40.1532 201.313L39.7429 200.177C38.513 200.621 37.058 200.484 35.7703 200.159C34.4962 199.836 33.4694 199.351 33.1424 199.189L32.6056 200.271ZM32.6032 200.27L32.6035 200.27L33.1445 199.19L33.1443 199.19L32.6032 200.27ZM33.0451 198.844C32.8203 198.969 32.6163 199.127 32.439 199.31L33.3085 200.149C33.4035 200.051 33.5129 199.966 33.6333 199.899L33.0451 198.844ZM32.9822 198.897C32.998 198.877 33.0178 198.859 33.0404 198.847L33.638 199.896C33.7544 199.83 33.8565 199.741 33.9384 199.635L32.9822 198.897ZM32.9479 198.966C32.9546 198.941 32.9663 198.918 32.9822 198.897L33.9384 199.635C34.0202 199.53 34.0803 199.408 34.1149 199.279L32.9479 198.966ZM32.943 199.044C32.9394 199.018 32.9411 198.992 32.9479 198.966L34.1149 199.279C34.1496 199.149 34.1581 199.014 34.1401 198.881L32.943 199.044ZM32.9685 199.118C32.9552 199.095 32.9465 199.07 32.943 199.044L34.1401 198.881C34.122 198.748 34.0777 198.621 34.0097 198.505L32.9685 199.118ZM33.0836 199.203C33.0332 199.189 32.9901 199.156 32.9641 199.11L34.014 198.512C33.8813 198.279 33.6612 198.109 33.4025 198.038L33.0836 199.203ZM33.2326 199.184C33.1876 199.21 33.134 199.217 33.0836 199.203L33.4025 198.038C33.1438 197.967 32.8678 198.002 32.6349 198.134L33.2326 199.184ZM32.4135 199.966C32.6103 199.64 32.8899 199.372 33.2239 199.189L32.6436 198.13C32.1226 198.415 31.6864 198.833 31.3793 199.341L32.4135 199.966ZM32.1037 201.044C32.1099 200.664 32.2167 200.292 32.4135 199.966L31.3793 199.341C31.0723 199.85 30.9054 200.43 30.8957 201.024L32.1037 201.044ZM32.0833 200.925C32.0947 200.948 32.1013 200.974 32.1028 201L30.8966 201.068C30.9042 201.201 30.938 201.332 30.9962 201.452L32.0833 200.925ZM32.0365 200.863C32.0561 200.88 32.072 200.901 32.0833 200.925L30.9962 201.452C31.0543 201.572 31.1357 201.679 31.2356 201.767L32.0365 200.863ZM31.9696 200.824C31.9942 200.832 32.0169 200.846 32.0365 200.863L31.2356 201.767C31.3355 201.856 31.4518 201.924 31.5779 201.967L31.9696 200.824ZM31.8933 200.814C31.9191 200.812 31.9451 200.816 31.9696 200.824L31.5779 201.967C31.704 202.01 31.8374 202.028 31.9704 202.019L31.8933 200.814ZM31.8206 200.838C31.8495 200.823 31.8818 200.814 31.915 200.813L31.9487 202.02C32.1078 202.016 32.2633 201.974 32.4026 201.897L31.8206 200.838ZM31.7379 200.918C31.7547 200.887 31.7797 200.862 31.81 200.844L32.4133 201.891C32.5754 201.798 32.7087 201.661 32.7984 201.497L31.7379 200.918ZM31.7148 201.019C31.7131 200.984 31.7211 200.949 31.7379 200.918L32.7984 201.497C32.8881 201.333 32.9307 201.147 32.9214 200.96L31.7148 201.019ZM31.8738 200.208C31.7851 200.446 31.7314 200.696 31.7153 200.951L32.921 201.027C32.9296 200.891 32.9583 200.757 33.0058 200.63L31.8738 200.208ZM32.7772 199.921C32.7885 199.926 32.7991 199.933 32.8091 199.941L32.0704 200.897C32.122 200.937 32.1774 200.971 32.2359 201.001L32.7772 199.921ZM40.021 200.948C38.6644 201.439 37.1281 201.33 35.7607 201.007C34.4016 200.687 33.2748 200.171 32.7779 199.921L32.2351 201C32.7799 201.274 33.9996 201.833 35.4834 202.183C36.9588 202.531 38.7616 202.688 40.4318 202.084L40.021 200.948ZM41.6448 199.945C41.1741 200.384 40.6206 200.726 40.0166 200.95L40.4361 202.083C41.1903 201.803 41.8815 201.377 42.4694 200.828L41.6448 199.945ZM42.7582 198.39C42.494 198.977 42.1155 199.505 41.6448 199.945L42.4694 200.828C43.0572 200.279 43.5299 199.619 43.8598 198.886L42.7582 198.39ZM46.3181 197.44C45.4212 197.938 44.3926 198.146 43.3733 198.037L43.2447 199.238C44.5116 199.374 45.7898 199.115 46.9043 198.496L46.3181 197.44ZM47.0025 196.985C46.7886 197.155 46.5605 197.307 46.3207 197.438L46.9017 198.498C47.2017 198.333 47.4871 198.143 47.7548 197.93L47.0025 196.985ZM49.8092 190.236C49.7679 190.794 49.6356 192.026 49.2177 193.357C48.7973 194.696 48.1077 196.073 46.9942 196.992L47.7631 197.924C49.133 196.793 49.9167 195.164 50.3704 193.719C50.8266 192.265 50.9691 190.933 51.014 190.325L49.8092 190.236ZM49.8102 190.274C49.8086 190.262 49.8082 190.249 49.8092 190.237L51.0141 190.324C51.0191 190.256 51.0171 190.187 51.0083 190.119L49.8102 190.274ZM51.2263 189.844C51.0031 189.73 50.7653 189.649 50.5206 189.603L50.2979 190.79C50.4287 190.815 50.5556 190.858 50.6748 190.919L51.2263 189.844ZM51.1855 189.846C51.2206 189.848 51.2547 189.859 51.2842 189.878L50.6169 190.885C50.7731 190.989 50.9548 191.047 51.1419 191.054L51.1855 189.846ZM51.0853 189.871C51.1158 189.853 51.1504 189.845 51.1855 189.846L51.1419 191.054C51.329 191.06 51.5143 191.015 51.6774 190.924L51.0853 189.871ZM51.0045 189.945C51.0222 189.917 51.0463 189.893 51.0747 189.877L51.688 190.918C51.8249 190.837 51.9408 190.725 52.0257 190.59L51.0045 189.945ZM50.9863 189.997C50.9916 189.972 51.0018 189.948 51.0164 189.927L52.0138 190.608C52.089 190.498 52.1418 190.374 52.169 190.244L50.9863 189.997ZM50.9856 190.075C50.9807 190.049 50.981 190.023 50.9863 189.997L52.169 190.244C52.1962 190.114 52.1973 189.979 52.1722 189.848L50.9856 190.075ZM51.0149 190.147C51.0005 190.125 50.9906 190.101 50.9856 190.075L52.1722 189.848C52.1472 189.717 52.0964 189.592 52.0229 189.481L51.0149 190.147ZM51.0694 190.202C51.0478 190.187 51.0292 190.168 51.0149 190.147L52.0229 189.481C51.9494 189.37 51.8547 189.274 51.7439 189.199L51.0694 190.202ZM50.0242 189.942C50.4042 189.94 50.7778 190.037 51.1075 190.225L51.7059 189.176C51.1914 188.883 50.6086 188.73 50.0163 188.734L50.0242 189.942ZM48.9435 190.24C49.2714 190.047 49.6442 189.945 50.0242 189.942L50.0163 188.734C49.4239 188.738 48.843 188.898 48.332 189.198L48.9435 190.24ZM48.988 190.198C48.9718 190.218 48.9518 190.235 48.9291 190.248L48.3464 189.19C48.2291 189.254 48.1258 189.341 48.0424 189.446L48.988 190.198ZM49.0233 190.129C49.0162 190.154 49.0042 190.178 48.988 190.198L48.0424 189.446C47.959 189.551 47.8973 189.672 47.8608 189.8L49.0233 190.129ZM49.0293 190.052C49.0325 190.078 49.0304 190.104 49.0233 190.129L47.8608 189.8C47.8243 189.929 47.8139 190.064 47.83 190.197L49.0293 190.052ZM49.0048 189.978C49.0179 190.001 49.0262 190.026 49.0293 190.052L47.83 190.197C47.8462 190.331 47.8887 190.459 47.955 190.576L49.0048 189.978ZM48.8889 189.888C48.9378 189.901 48.9796 189.933 49.0049 189.978L47.955 190.576C48.0886 190.81 48.3099 190.982 48.57 191.053L48.8889 189.888ZM48.7443 189.906C48.7881 189.881 48.8401 189.874 48.8889 189.888L48.57 191.053C48.8301 191.124 49.1078 191.089 49.3421 190.956L48.7443 189.906ZM49.4331 189.631C49.1909 189.689 48.9575 189.782 48.7403 189.908L49.3461 190.953C49.4623 190.886 49.5871 190.836 49.7166 190.805L49.4331 189.631ZM50.1782 190.246C50.1782 190.247 50.1782 190.248 50.1781 190.248L48.9716 190.187C48.9714 190.191 48.9712 190.194 48.9711 190.198L50.1782 190.246ZM47.221 197.289C48.4969 196.237 49.2167 194.64 49.6248 193.275C50.0365 191.898 50.1572 190.668 50.178 190.252L48.9714 190.192C48.9543 190.533 48.8455 191.664 48.4673 192.929C48.0855 194.206 47.4552 195.53 46.4524 196.357L47.221 197.289ZM45.2282 198.287C45.9514 198.099 46.6273 197.761 47.2125 197.296L46.461 196.35C46.0075 196.71 45.4838 196.972 44.9235 197.118L45.2282 198.287ZM43.3868 198.438C44.0037 198.495 44.6268 198.444 45.2282 198.287L44.9235 197.118C44.4575 197.24 43.9748 197.279 43.497 197.235L43.3868 198.438ZM42.7 197.754L42.9169 198.135L43.9668 197.538L43.7498 197.157L42.7 197.754ZM40.4908 193.688C40.3141 193.789 40.15 193.76 40.0844 193.741C40.0491 193.731 40.0244 193.719 40.012 193.713C39.9991 193.706 39.9922 193.701 39.9921 193.701C39.9916 193.701 39.9949 193.703 40.002 193.709C40.0091 193.715 40.0187 193.723 40.0308 193.734C40.0555 193.757 40.0868 193.788 40.1248 193.83C40.2816 193.999 40.5003 194.278 40.7689 194.658C41.3018 195.412 41.9875 196.503 42.7 197.754L43.7498 197.157C43.0246 195.883 42.3178 194.757 41.7556 193.961C41.4766 193.566 41.2221 193.237 41.0116 193.009C40.9098 192.899 40.7954 192.788 40.6769 192.706C40.619 192.666 40.5298 192.612 40.4177 192.58C40.3045 192.547 40.1007 192.52 39.8931 192.638L40.4908 193.688ZM42.8597 197.663C42.1472 196.412 41.5594 195.266 41.1828 194.422C40.993 193.997 40.8648 193.667 40.7991 193.446C40.7832 193.392 40.7722 193.349 40.7652 193.316C40.7618 193.3 40.7596 193.288 40.7582 193.279C40.7568 193.269 40.7566 193.265 40.7566 193.266C40.7566 193.266 40.7572 193.275 40.7564 193.289C40.7556 193.303 40.753 193.33 40.7437 193.366C40.7264 193.432 40.6675 193.588 40.4908 193.688L39.8931 192.638C39.6855 192.757 39.6049 192.946 39.575 193.06C39.5455 193.172 39.5465 193.277 39.5512 193.347C39.5608 193.49 39.5983 193.646 39.641 193.789C39.7292 194.087 39.8826 194.474 40.0797 194.915C40.477 195.805 41.0845 196.987 41.8098 198.261L42.8597 197.663Z" fill="black"/>
<path d="M50.3402 297.166L46.5152 290.447C48.3007 288.622 71.7352 281.359 73.4212 277.818C75.5286 273.393 83.2889 275.058 87.895 272.435C91.58 270.337 92.7051 266 94.6892 264.051C98.1179 260.684 118.836 251.963 121.198 253.079C129.417 256.962 124.308 261.179 114.439 265.873C111.633 267.208 105.097 269.112 97.7655 274.346C95.9012 275.677 89.3836 284.106 84.8863 283.226C80.389 282.345 73.3843 286.242 69.6234 287.574C66.3073 288.749 52.2022 300.437 50.3402 297.166Z" fill="#BD00FF" stroke="black" stroke-width="1.20811"/>
<path d="M83.5316 296.524C83.3219 294.234 76.6541 291.276 74.9446 289.975C76.7836 285.549 69.5133 277.255 75.7948 276.621C79.2298 276.275 81.1679 289.899 86.1454 289.892C91.1228 289.885 92.1784 295.627 90.206 299.09C88.9983 301.21 89.6545 304.454 90.4769 306.755C90.8421 307.777 90.4758 308.957 89.5278 309.485C88.061 310.302 86.1546 311.383 84.6472 312.294C81.8676 313.974 81.6616 304.615 81.8031 303.289C81.9349 302.055 83.8133 299.599 83.5316 296.524Z" fill="#800DA8" stroke="black" stroke-width="1.20811"/>
<path d="M69.1177 282.518C68.6828 276.683 72.8965 276.056 77.5769 274.862C78.002 274.754 78.4666 275.489 78.2737 275.883C76.741 279.014 78.7031 283.448 79.1814 284.219C79.8668 285.324 77.9765 290.471 76.716 293.549C75.7118 295.6 74.0666 299.75 75.5188 299.937C76.9709 300.125 79.1129 305.013 77.826 306.944C77.0262 309.231 79.7839 311.526 78.1757 313.512C76.1438 316.021 80.0212 318.876 81.3683 321.125C81.8261 321.889 81.3355 322.73 80.5613 323.171L78.5551 324.313C77.4943 324.917 76.1533 324.712 75.3709 323.775C72.9601 320.888 69.9774 316.651 70.8348 314.969C72.1259 312.438 71.3713 305.575 68.9411 302.414C66.511 299.253 69.7579 291.107 69.1177 282.518Z" fill="#D251FF" stroke="black" stroke-width="1.20811"/>
<path d="M94.138 269.112C94.4292 267.638 99.0023 263.204 114.965 257.255C130.927 251.306 107.731 262.681 94.138 269.112Z" fill="white" fill-opacity="0.22"/>
<path d="M90.6207 276.429C90.8576 277.427 89.9675 279.521 84.5116 279.907C79.0556 280.293 86.311 277.749 90.6207 276.429Z" fill="white" fill-opacity="0.22"/>
<path d="M52.0751 293.79C51.5919 292.883 51.9114 290.617 57.0556 288.814C62.1998 287.011 55.8787 291.38 52.0751 293.79Z" fill="white" fill-opacity="0.22"/>
<ellipse cx="111.276" cy="317.998" rx="56.0763" ry="9.96687" transform="rotate(-29.6534 111.276 317.998)" fill="black" fill-opacity="0.04"/>
<path d="M46.8444 157.04L46.9393 156.696L47.4168 154.963L54.9456 157.022L57.251 148.662L49.7207 146.604L51.7871 139.107L43.3898 136.814L41.3249 144.31L38.8819 143.642L35.1393 142.62L33.7932 142.253L31.4893 150.612L39.0196 152.67L36.9532 160.167L45.349 162.461L46.8444 157.04Z" fill="#441F07"/>
<path d="M13.7229 179.714L14.5252 179.933L16.8305 171.573L9.30025 169.515L11.3666 162.018L2.96937 159.725L2.82921 160.233L1.80409 163.952L0.902992 167.222L-6.62725 165.164L-8.93115 173.523L-1.4009 175.581L-3.46728 183.078L4.92853 185.372L6.99491 177.875L7.61414 178.044L13.7229 179.714Z" fill="#441F07"/>
<path d="M46.8538 157.057L46.9493 156.714L47.4298 154.986L54.9455 157.022L57.2655 148.688L54.6891 147.991L53.0818 153.763L45.5662 151.727L45.0848 153.453L44.9893 153.796L43.4852 159.202L37.6804 157.631L36.9677 160.193L45.3489 162.462L46.8538 157.057Z" fill="#D15400"/>
<path d="M7.00799 177.898L7.62614 178.065L13.7242 179.716L14.5251 179.933L16.8451 171.598L14.2673 170.902L12.6614 176.673L11.8597 176.455L5.76166 174.804L5.14432 174.639L3.06482 182.113L-2.73997 180.542L-3.45269 183.103L4.92848 185.372L7.00799 177.898Z" fill="#D15400"/>
<defs>
<linearGradient id="paint0_linear_3_4938" x1="0.968096" y1="233.468" x2="-1.03735" y2="252.107" gradientUnits="userSpaceOnUse">
<stop stop-color="#FF575B"/>
<stop offset="0.291567" stop-color="#FF575B"/>
<stop offset="0.291667" stop-color="#FF8353"/>
<stop offset="0.427083" stop-color="#FF8353"/>
<stop offset="0.427183" stop-color="#FABA2C"/>
<stop offset="0.552083" stop-color="#FBBB2D"/>
<stop offset="0.552183" stop-color="#7AC74D"/>
<stop offset="0.671875" stop-color="#7AC74D"/>
<stop offset="0.671975" stop-color="#00B0FF"/>
<stop offset="0.770833" stop-color="#00B0FF"/>
<stop offset="0.770933" stop-color="#B99FE4"/>
<stop offset="0.9999" stop-color="#B99FE4"/>
<stop offset="1" stop-color="#B99FE4"/>
</linearGradient>
<linearGradient id="paint1_linear_3_4938" x1="37.2664" y1="257.816" x2="35.7309" y2="272.087" gradientUnits="userSpaceOnUse">
<stop stop-color="#FF575B"/>
<stop offset="0.291567" stop-color="#FF575B"/>
<stop offset="0.291667" stop-color="#FF8353"/>
<stop offset="0.427083" stop-color="#FF8353"/>
<stop offset="0.427183" stop-color="#FABA2C"/>
<stop offset="0.552083" stop-color="#FBBB2D"/>
<stop offset="0.552183" stop-color="#7AC74D"/>
<stop offset="0.671875" stop-color="#7AC74D"/>
<stop offset="0.671975" stop-color="#00B0FF"/>
<stop offset="0.770833" stop-color="#00B0FF"/>
<stop offset="0.770933" stop-color="#B99FE4"/>
<stop offset="0.9999" stop-color="#B99FE4"/>
<stop offset="1" stop-color="#B99FE4"/>
</linearGradient>
<linearGradient id="paint2_linear_3_4938" x1="10.5535" y1="253.372" x2="10.3003" y2="266.241" gradientUnits="userSpaceOnUse">
<stop stop-color="#FF575B"/>
<stop offset="0.291567" stop-color="#FF575B"/>
<stop offset="0.291667" stop-color="#FF8353"/>
<stop offset="0.427083" stop-color="#FF8353"/>
<stop offset="0.427183" stop-color="#FABA2C"/>
<stop offset="0.552083" stop-color="#FBBB2D"/>
<stop offset="0.552183" stop-color="#7AC74D"/>
<stop offset="0.671875" stop-color="#7AC74D"/>
<stop offset="0.671975" stop-color="#00B0FF"/>
<stop offset="0.770833" stop-color="#00B0FF"/>
<stop offset="0.770933" stop-color="#B99FE4"/>
<stop offset="0.9999" stop-color="#B99FE4"/>
<stop offset="1" stop-color="#B99FE4"/>
</linearGradient>
<linearGradient id="paint3_linear_3_4938" x1="91.6182" y1="181.86" x2="108.67" y2="189.65" gradientUnits="userSpaceOnUse">
<stop stop-color="#FF575B"/>
<stop offset="0.291567" stop-color="#FF575B"/>
<stop offset="0.291667" stop-color="#FF8353"/>
<stop offset="0.427083" stop-color="#FF8353"/>
<stop offset="0.427183" stop-color="#FABA2C"/>
<stop offset="0.552083" stop-color="#FBBB2D"/>
<stop offset="0.552183" stop-color="#7AC74D"/>
<stop offset="0.671875" stop-color="#7AC74D"/>
<stop offset="0.671975" stop-color="#00B0FF"/>
<stop offset="0.770833" stop-color="#00B0FF"/>
<stop offset="0.770933" stop-color="#B99FE4"/>
<stop offset="0.9999" stop-color="#B99FE4"/>
<stop offset="1" stop-color="#B99FE4"/>
</linearGradient>
<linearGradient id="paint4_linear_3_4938" x1="94.027" y1="225.502" x2="107.083" y2="231.466" gradientUnits="userSpaceOnUse">
<stop stop-color="#FF575B"/>
<stop offset="0.291567" stop-color="#FF575B"/>
<stop offset="0.291667" stop-color="#FF8353"/>
<stop offset="0.427083" stop-color="#FF8353"/>
<stop offset="0.427183" stop-color="#FABA2C"/>
<stop offset="0.552083" stop-color="#FBBB2D"/>
<stop offset="0.552183" stop-color="#7AC74D"/>
<stop offset="0.671875" stop-color="#7AC74D"/>
<stop offset="0.671975" stop-color="#00B0FF"/>
<stop offset="0.770833" stop-color="#00B0FF"/>
<stop offset="0.770933" stop-color="#B99FE4"/>
<stop offset="0.9999" stop-color="#B99FE4"/>
<stop offset="1" stop-color="#B99FE4"/>
</linearGradient>
<linearGradient id="paint5_linear_3_4938" x1="103.842" y1="200.263" x2="115.037" y2="206.614" gradientUnits="userSpaceOnUse">
<stop stop-color="#FF575B"/>
<stop offset="0.291567" stop-color="#FF575B"/>
<stop offset="0.291667" stop-color="#FF8353"/>
<stop offset="0.427083" stop-color="#FF8353"/>
<stop offset="0.427183" stop-color="#FABA2C"/>
<stop offset="0.552083" stop-color="#FBBB2D"/>
<stop offset="0.552183" stop-color="#7AC74D"/>
<stop offset="0.671875" stop-color="#7AC74D"/>
<stop offset="0.671975" stop-color="#00B0FF"/>
<stop offset="0.770833" stop-color="#00B0FF"/>
<stop offset="0.770933" stop-color="#B99FE4"/>
<stop offset="0.9999" stop-color="#B99FE4"/>
<stop offset="1" stop-color="#B99FE4"/>
</linearGradient>
<linearGradient id="paint6_linear_3_4938" x1="122.438" y1="137.184" x2="165.178" y2="69.4092" gradientUnits="userSpaceOnUse">
<stop stop-color="#FF575B"/>
<stop offset="0.291567" stop-color="#FF575B"/>
<stop offset="0.291667" stop-color="#FF8353"/>
<stop offset="0.427083" stop-color="#FF8353"/>
<stop offset="0.427183" stop-color="#FABA2C"/>
<stop offset="0.552083" stop-color="#FBBB2D"/>
<stop offset="0.552183" stop-color="#7AC74D"/>
<stop offset="0.671875" stop-color="#7AC74D"/>
<stop offset="0.671975" stop-color="#00B0FF"/>
<stop offset="0.770833" stop-color="#00B0FF"/>
<stop offset="0.770933" stop-color="#B99FE4"/>
<stop offset="0.9999" stop-color="#B99FE4"/>
<stop offset="1" stop-color="#B99FE4"/>
</linearGradient>
<linearGradient id="paint7_linear_3_4938" x1="178.825" y1="62.4506" x2="197.578" y2="95.7967" gradientUnits="userSpaceOnUse">
<stop stop-color="#FF575B"/>
<stop offset="0.291567" stop-color="#FF575B"/>
<stop offset="0.291667" stop-color="#FF8353"/>
<stop offset="0.427083" stop-color="#FF8353"/>
<stop offset="0.427183" stop-color="#FABA2C"/>
<stop offset="0.552083" stop-color="#FBBB2D"/>
<stop offset="0.552183" stop-color="#7AC74D"/>
<stop offset="0.671875" stop-color="#7AC74D"/>
<stop offset="0.671975" stop-color="#00B0FF"/>
<stop offset="0.770833" stop-color="#00B0FF"/>
<stop offset="0.770933" stop-color="#B99FE4"/>
<stop offset="0.9999" stop-color="#B99FE4"/>
<stop offset="1" stop-color="#B99FE4"/>
</linearGradient>
</defs>
</svg>
