<svg width="311" height="407" viewBox="0 0 311 407" fill="none" xmlns="http://www.w3.org/2000/svg">
<rect x="312.467" y="164.986" width="8.83833" height="152.019" rx="4.41916" transform="rotate(28.8293 312.467 164.986)" fill="#C4C4C4" stroke="black" stroke-width="3.03028"/>
<path fill-rule="evenodd" clip-rule="evenodd" d="M336.276 212.537C339.584 206.847 344.692 193.756 340.921 183.702C340.391 182.289 338.648 181.919 337.301 182.597C332.742 184.89 324.698 186.907 316.255 182.925C306.003 178.089 300.122 175.054 298.463 174.141C296.919 174.588 292.875 177.694 289.044 186.539L289.044 186.539C283.62 194.508 283.16 199.587 283.607 201.13C285.266 202.043 290.977 205.388 300.547 211.463C308.428 216.466 311.027 224.341 311.528 229.419C311.676 230.921 312.922 232.195 314.399 231.887C324.91 229.694 333.239 218.375 336.276 212.537Z" fill="#FFE68B"/>
<path d="M340.921 183.702L341.631 183.436L340.921 183.702ZM336.276 212.537L335.621 212.156L335.612 212.171L335.604 212.187L336.276 212.537ZM337.301 182.597L336.96 181.92L336.96 181.92L337.301 182.597ZM316.255 182.925L316.578 182.24L316.255 182.925ZM298.463 174.141L298.828 173.477L298.553 173.326L298.252 173.413L298.463 174.141ZM289.044 186.539L288.349 186.238L288.075 186.871L288.679 187.203L289.044 186.539ZM289.044 186.539L289.67 186.966L290.139 186.277L289.409 185.876L289.044 186.539ZM283.607 201.13L282.88 201.341L282.967 201.642L283.242 201.794L283.607 201.13ZM300.547 211.463L300.141 212.103L300.547 211.463ZM311.528 229.419L310.774 229.494L311.528 229.419ZM314.399 231.887L314.244 231.146L314.399 231.887ZM340.212 183.968C342.023 188.797 341.718 194.415 340.515 199.584C339.315 204.745 337.241 209.37 335.621 212.156L336.931 212.918C338.619 210.014 340.753 205.249 341.991 199.928C343.227 194.615 343.59 188.66 341.631 183.436L340.212 183.968ZM337.641 183.273C338.734 182.724 339.893 183.118 340.212 183.968L341.631 183.436C340.89 181.461 338.563 181.114 336.96 181.92L337.641 183.273ZM315.932 183.61C324.649 187.722 332.947 185.635 337.641 183.273L336.96 181.92C332.537 184.145 324.746 186.093 316.578 182.24L315.932 183.61ZM298.098 174.804C299.777 175.729 305.675 178.772 315.932 183.61L316.578 182.24C306.332 177.406 300.467 174.379 298.828 173.477L298.098 174.804ZM289.739 186.84C291.629 182.476 293.56 179.557 295.183 177.688C296.829 175.793 298.108 175.032 298.674 174.868L298.252 173.413C297.274 173.696 295.76 174.713 294.039 176.694C292.297 178.701 290.289 181.758 288.349 186.238L289.739 186.84ZM289.409 185.876L289.409 185.876L288.679 187.203L288.679 187.203L289.409 185.876ZM288.418 186.113C285.67 190.149 284.162 193.481 283.398 196.026C282.645 198.54 282.596 200.363 282.88 201.341L284.335 200.919C284.171 200.353 284.129 198.866 284.85 196.462C285.561 194.09 286.994 190.898 289.67 186.966L288.418 186.113ZM283.242 201.794C284.881 202.696 290.576 206.031 300.141 212.103L300.953 210.823C291.379 204.746 285.652 201.391 283.973 200.466L283.242 201.794ZM300.141 212.103C307.766 216.942 310.288 224.566 310.774 229.494L312.282 229.345C311.766 224.115 309.091 215.989 300.953 210.823L300.141 212.103ZM310.774 229.494C310.95 231.279 312.489 233.06 314.553 232.629L314.244 231.146C313.356 231.331 312.402 230.562 312.282 229.345L310.774 229.494ZM314.553 232.629C320.016 231.489 324.853 227.997 328.68 224.111C332.514 220.218 335.398 215.866 336.948 212.886L335.604 212.187C334.116 215.046 331.318 219.273 327.6 223.048C323.876 226.829 319.293 230.092 314.244 231.146L314.553 232.629Z" fill="black"/>
<rect x="-0.646006" y="-2.04303" width="8.83833" height="152.019" rx="4.41916" transform="matrix(-0.461022 0.887389 0.887389 0.461022 94.5893 232.986)" fill="#C4C4C4" stroke="black" stroke-width="3.03028"/>
<path fill-rule="evenodd" clip-rule="evenodd" d="M99.6658 284.239C93.7559 281.343 82.2401 273.288 79.7954 262.833C79.4519 261.364 80.6965 260.088 82.1936 259.904C87.2589 259.281 95.0692 256.494 99.881 248.495C105.724 238.781 108.931 232.992 109.804 231.311C111.336 230.827 116.425 231.165 124.521 236.396C133.456 240.013 136.658 243.982 137.143 245.514C136.27 247.195 133.376 253.148 128.788 263.513C125.01 272.048 127.22 280.041 129.622 284.544C130.332 285.875 130.004 287.627 128.604 288.19C118.644 292.201 105.433 287.409 99.6658 284.239Z" fill="#FFE68B"/>
<path d="M79.7954 262.833L79.0577 263.005L79.7954 262.833ZM99.6658 284.239L99.9992 283.558L100.015 283.566L100.031 283.575L99.6658 284.239ZM82.1936 259.904L82.1011 259.152L82.1011 259.152L82.1936 259.904ZM99.881 248.495L99.2319 248.104L99.881 248.495ZM109.804 231.311L109.132 230.962L109.277 230.684L109.576 230.589L109.804 231.311ZM124.521 236.396L124.237 237.098L124.17 237.071L124.11 237.032L124.521 236.396ZM137.143 245.514L137.865 245.286L137.96 245.585L137.815 245.864L137.143 245.514ZM128.788 263.513L129.481 263.819L128.788 263.513ZM129.622 284.544L130.29 284.187L129.622 284.544ZM128.604 288.19L128.321 287.487L128.604 288.19ZM80.533 262.66C81.7074 267.683 85.0797 272.186 88.9496 275.818C92.8126 279.444 97.105 282.14 99.9992 283.558L99.3325 284.919C96.3167 283.441 91.8963 280.662 87.9127 276.923C83.936 273.19 80.328 268.438 79.0577 263.005L80.533 262.66ZM82.2861 260.656C81.0722 260.805 80.3264 261.776 80.533 262.66L79.0577 263.005C78.5775 260.951 80.3207 259.371 82.1011 259.152L82.2861 260.656ZM100.53 248.885C95.5617 257.144 87.5018 260.014 82.2861 260.656L82.1011 259.152C87.0159 258.547 94.5766 255.843 99.2319 248.104L100.53 248.885ZM110.476 231.661C109.593 233.362 106.376 239.167 100.53 248.885L99.2319 248.104C105.072 238.396 108.27 232.622 109.132 230.962L110.476 231.661ZM124.11 237.032C120.115 234.451 116.889 233.095 114.501 232.441C112.081 231.778 110.594 231.856 110.033 232.034L109.576 230.589C110.547 230.282 112.371 230.287 114.901 230.98C117.465 231.682 120.831 233.11 124.932 235.76L124.11 237.032ZM124.806 235.694C129.331 237.526 132.436 239.46 134.484 241.153C136.506 242.826 137.558 244.315 137.865 245.286L136.42 245.743C136.243 245.181 135.452 243.92 133.518 242.321C131.61 240.743 128.646 238.883 124.237 237.098L124.806 235.694ZM137.815 245.864C136.953 247.523 134.067 253.459 129.481 263.819L128.095 263.206C132.686 252.836 135.587 246.867 136.471 245.165L137.815 245.864ZM129.481 263.819C125.825 272.077 127.959 279.819 130.29 284.187L128.954 284.901C126.48 280.264 124.194 272.02 128.095 263.206L129.481 263.819ZM130.29 284.187C131.135 285.77 130.844 288.105 128.887 288.893L128.321 287.487C129.163 287.148 129.529 285.98 128.954 284.901L130.29 284.187ZM128.887 288.893C123.711 290.977 117.749 290.757 112.409 289.649C107.059 288.539 102.244 286.52 99.3008 284.902L100.031 283.575C102.855 285.127 107.529 287.09 112.716 288.166C117.913 289.244 123.537 289.414 128.321 287.487L128.887 288.893Z" fill="black"/>
<circle r="2.52524" transform="matrix(-0.957022 0.290014 0.290014 0.957022 93.991 265.821)" fill="black" fill-opacity="0.16"/>
<circle r="2.52524" transform="matrix(-0.957022 0.290014 0.290014 0.957022 98.8977 273.305)" fill="black" fill-opacity="0.16"/>
<circle r="2.52524" transform="matrix(-0.957022 0.290014 0.290014 0.957022 107.737 277.223)" fill="black" fill-opacity="0.16"/>
<circle r="2.52524" transform="matrix(-0.957022 0.290014 0.290014 0.957022 118.144 279.347)" fill="black" fill-opacity="0.16"/>
<path d="M260.842 335.976C257.456 325.498 245.426 314.13 240.71 311.337L283.365 298.411C279.417 303.521 274.832 316.749 281.285 320.282C287.739 323.815 288.333 333.67 287.701 335.357C277.576 338.953 264.229 346.455 260.842 335.976Z" fill="#2C2B35" stroke="black" stroke-width="3.03028" stroke-linejoin="round"/>
<path d="M230.754 345.094C227.755 334.499 231.45 318.365 233.823 313.424L191.168 326.35C197.289 328.409 208.445 336.867 205.038 343.388C201.631 349.909 206.608 358.436 208.07 359.488C218.488 356.859 233.754 355.689 230.754 345.094Z" fill="#2C2B35" stroke="black" stroke-width="3.03028" stroke-linejoin="round"/>
<path d="M201.601 207.17C202.49 202.522 199.921 197.905 195.502 196.211C191.374 194.628 186.696 196.015 184.098 199.592L176.83 209.6C158.936 234.24 150.442 264.467 152.882 294.822L154.623 316.48C155.1 322.409 159.53 327.263 165.391 328.279C172.397 329.493 179.083 324.869 180.419 317.885L201.601 207.17Z" fill="#7CE69A" stroke="black" stroke-width="3.03028"/>
<path d="M208.406 205.108C205.087 201.735 204.661 196.469 207.396 192.607C209.951 188.998 214.611 187.555 218.759 189.089L230.359 193.379C258.921 203.941 282.765 224.369 297.585 250.972L308.159 269.953C311.054 275.149 310.064 281.646 305.753 285.744C300.6 290.643 292.471 290.508 287.483 285.441L208.406 205.108Z" fill="#7CE69A" stroke="black" stroke-width="3.03028"/>
<path d="M199.389 185.416C199.089 185.405 198.792 185.483 198.537 185.641C178.445 198.044 149.869 242.822 188.134 324.121C189.083 326.138 191.395 327.205 193.558 326.549L237.598 313.203L281.055 300.034C283.083 299.42 284.461 297.483 284.243 295.312C282.371 276.663 275.725 249.836 262.327 227.356C248.921 204.865 228.606 186.509 199.389 185.416Z" fill="#7CE69A" stroke="black" stroke-width="3.03028" stroke-linecap="round" stroke-linejoin="round"/>
<ellipse opacity="0.16" rx="4.04222" ry="3.82317" transform="matrix(0.997239 0.0742533 -0.074457 0.997224 232.706 296.701)" fill="black"/>
<path d="M118.103 267.652C132.09 253.586 146.199 254.037 159.515 254.33C159.948 254.34 160.355 254.53 160.63 254.864C168.166 264 174.973 279.655 158.365 272.638C141.439 265.486 131.3 277.589 127.923 281.956L125.34 286.244C124.565 287.53 122.593 287.027 122.528 285.528L122.427 283.18C122.372 281.921 120.895 281.275 119.934 282.089L118.449 283.345C117.379 284.251 115.759 283.343 115.973 281.957L116.272 280.019C116.474 278.71 115.017 277.79 113.922 278.535L111.746 280.017C110.65 280.762 109.207 279.838 109.608 278.575C110.658 275.266 112.688 273.097 118.103 267.652Z" fill="#F1F1F1" stroke="black" stroke-width="1.51514" stroke-linejoin="round"/>
<path d="M174.094 268.578C171.467 281.984 178.693 279.329 184.151 282.137C188.724 282.861 181.875 304.393 180.524 305.595C171.745 306.851 158.08 283.102 160.992 278.072C163.322 274.047 172.58 268.856 174.094 268.578Z" fill="white" stroke="black" stroke-width="1.51514" stroke-linejoin="round"/>
<path d="M172.926 217.393C170.299 230.799 184.188 251.473 189.645 254.281C191.448 255.361 183.939 270.162 181.809 271.882C173.031 273.138 157.958 254.173 158.572 248.393C158.949 244.848 169.612 221.696 172.926 217.393Z" fill="#E2E2E2" stroke="black" stroke-width="1.51514" stroke-linejoin="round"/>
<path d="M173.161 263.085C171.872 276.545 161.625 274.12 155.858 275.025C153.911 275.468 150.958 291.017 152.433 293.315C160.12 297.294 182.686 279.848 181.407 274.184C180.384 269.652 174.469 263.828 173.161 263.085Z" fill="white" stroke="black" stroke-width="1.51514" stroke-linejoin="round"/>
<path d="M188.918 215.313C187.335 228.882 163.875 247.081 157.821 248.092C155.775 248.571 154.303 263.571 155.808 265.858C163.786 269.73 186.961 241.936 188.419 236.309C190.61 227.862 190.275 216.039 188.918 215.313Z" fill="white" stroke="black" stroke-width="1.51514" stroke-linejoin="round"/>
<path d="M155.155 261.93C160.667 274.235 175.685 272.578 181.347 271.554C183.115 275.198 181.306 282.789 179.234 284.996C173.349 291.263 152.883 284.706 152.259 278.934C151.761 274.316 154.174 263.059 155.155 261.93Z" fill="white" stroke="black" stroke-width="1.51514" stroke-linejoin="round"/>
<path d="M154.491 260.179C166.558 266.584 181 260.801 185.271 256.393C186.827 254.981 184.989 263.735 184.238 267.788C182.964 279.257 150.358 275.967 151.338 270.238C152.052 266.064 154.317 261.708 154.491 260.179Z" fill="#E2E2E2" stroke="black" stroke-width="1.51514" stroke-linejoin="round"/>
<path d="M269.933 250.717C277.31 262.216 268.951 264.108 264.909 268.727C268.608 273.616 272.631 283.416 275.244 284.231C286.219 281.47 290.168 258.329 285.609 254.723C281.962 251.838 271.443 250.418 269.933 250.717Z" fill="white" stroke="black" stroke-width="1.51514" stroke-linejoin="round"/>
<path d="M246.514 200.634C253.891 212.132 255.887 232.203 251.846 236.822C250.567 238.49 258.968 249.538 261.581 250.353C270.206 248.29 274.271 223.056 271.117 218.629C268.419 214.842 248.024 200.335 246.514 200.634Z" fill="#E2E2E2" stroke="black" stroke-width="1.51514" stroke-linejoin="round"/>
<path d="M268.704 236.931C275.17 248.965 281.442 241.389 287.442 240.101C289.521 239.794 300.961 256.238 300.404 258.919C294.41 265.455 265.852 256.027 264.915 250.291C264.166 245.702 267.709 238.105 268.704 236.931Z" fill="white" stroke="black" stroke-width="1.51514" stroke-linejoin="round"/>
<path d="M232.004 201.205C240.366 211.915 266.261 220.856 272.262 219.568C274.341 219.261 285.121 232.203 284.563 234.883C278.57 241.419 245.98 231.992 242.553 227.297C237.407 220.248 232.16 203.093 232.004 201.205Z" fill="white" stroke="black" stroke-width="1.51514" stroke-linejoin="round"/>
<path d="M280.942 228.593C280.213 242.119 263.594 247.426 257.825 248.612C258.007 250.525 261.331 258.736 263.698 260.3C272.487 263.123 290.978 246.998 289.45 241.395C288.229 236.912 282.292 229.273 280.942 228.593Z" fill="white" stroke="black" stroke-width="1.51514" stroke-linejoin="round"/>
<path d="M246.318 200.885C245.589 214.412 228.97 219.718 223.2 220.905C223.383 222.817 226.706 231.028 229.074 232.592C237.863 235.416 256.353 219.291 254.826 213.687C253.604 209.204 247.667 201.565 246.318 200.885Z" fill="white" stroke="black" stroke-width="1.51514" stroke-linejoin="round"/>
<path d="M280.591 228.303C267.83 231.906 255.354 236.759 249.761 234.233C247.794 233.493 252.725 240.955 254.915 244.448C260.32 254.642 290.04 239.155 286.407 234.617C283.839 231.409 283.535 230.182 280.591 228.303Z" fill="#E2E2E2" stroke="black" stroke-width="1.51514" stroke-linejoin="round"/>
<path opacity="0.16" d="M237.004 300.587C236.853 302.617 234.987 304.144 232.824 303.983C230.66 303.822 229.042 302.035 229.194 300.006C229.345 297.976 231.211 296.449 233.374 296.61C235.538 296.771 237.156 298.558 237.004 300.587Z" fill="black" stroke="black" stroke-width="0.252524"/>
<path d="M169.879 241.246C191.639 237.329 218.344 208.412 229.051 194.787C229.263 194.518 229.616 194.434 229.939 194.55C232.404 195.433 237.926 196.776 240.487 198.953C240.67 199.108 240.754 199.338 240.716 199.575C237.486 219.823 182.103 254.841 175.752 252.131C170.881 250.052 168.663 244.869 169.311 241.769C169.369 241.491 169.6 241.296 169.879 241.246Z" fill="#F1F1F1" stroke="black" stroke-width="1.51514" stroke-linejoin="round"/>
<path d="M183.043 310.596C204.49 307.041 247.528 274.38 258.194 261.225C258.451 260.909 258.894 260.858 259.243 261.068C261.69 262.547 268.403 265.917 271.006 268.202C271.181 268.356 271.268 268.573 271.233 268.804C268.3 288.524 192.104 328.902 188.045 323.359C185.309 319.624 182.932 314.865 182.437 311.403C182.381 311.009 182.65 310.661 183.043 310.596Z" fill="#F1F1F1" stroke="black" stroke-width="1.51514" stroke-linejoin="round"/>
<path d="M269.699 246.512C245.818 262.414 204.346 287.223 183.192 283.403C176.057 282.315 176.155 289.787 177.801 294.059C177.903 294.322 178.137 294.496 178.418 294.514C210.079 296.642 279.496 277.031 277.916 268.155C276.651 261.046 273.779 249.248 270.479 246.527C270.253 246.341 269.943 246.35 269.699 246.512Z" fill="#D5D5D5" stroke="black" stroke-width="1.51514" stroke-linejoin="round"/>
<path d="M173.65 241.553C194.668 243.282 230.779 219.067 240.425 199.745C240.637 199.32 241.175 199.187 241.559 199.467C247.516 203.799 254.141 209.169 256.991 211.245C257.261 211.442 257.382 211.771 257.262 212.082C250.138 230.442 182.545 257.452 177.126 253.299C172.986 250.126 171.83 244.733 172.947 241.957C173.06 241.677 173.348 241.529 173.65 241.553Z" fill="#E2E2E2" stroke="black" stroke-width="1.51514" stroke-linejoin="round"/>
<path d="M186.091 315.902C213.286 307.62 265.224 285.891 276.886 266.468C277.242 265.875 278.169 265.963 278.356 266.629C280.549 274.473 281.82 282.845 282.22 286.604C282.232 286.714 282.221 286.816 282.183 286.92C275.476 305.479 211.994 322.033 192.563 326.079C187.323 327.171 184.478 319.169 185.679 316.258C185.753 316.079 185.906 315.959 186.091 315.902Z" fill="#E2E2E2" stroke="black" stroke-width="1.51514" stroke-linejoin="round"/>
<path d="M250.754 212.883C232.043 222.018 195.198 211.943 180.262 206.911C179.948 206.805 179.619 206.916 179.423 207.183C176.673 210.937 170.765 219.147 171.312 222.46C171.329 222.568 171.376 222.662 171.446 222.747C183.555 237.55 246.923 231.385 250.504 225.534C253.216 221.105 253.417 215.265 251.559 213.02C251.363 212.783 251.03 212.748 250.754 212.883Z" fill="#F7F7F7" stroke="black" stroke-width="1.51514" stroke-linejoin="round"/>
<path d="M279.976 278.765C260.472 287.598 224.168 279.419 209.217 274.37C204.009 272.774 199.826 280.911 200.513 284.356C200.535 284.464 200.581 284.556 200.652 284.64C213.252 299.603 283.164 300.665 283.442 293.79C283.556 290.973 281.857 283.27 281.063 279.317C280.964 278.825 280.432 278.558 279.976 278.765Z" fill="white" stroke="black" stroke-width="1.51514" stroke-linejoin="round"/>
<path d="M250.341 212.73C235.088 235.711 192.065 249.137 172.245 253.371C170.405 253.929 169.689 255.857 169.479 258.251C168.917 264.648 174.08 270.57 180.478 270.019C209.349 267.533 261.919 233.215 259.622 225.635C258.064 220.493 254.37 215.42 251.478 212.594C251.143 212.266 250.6 212.339 250.341 212.73Z" fill="#F1F1F1" stroke="black" stroke-width="1.51514" stroke-linejoin="round"/>
<path d="M180.889 305.316C197.245 281.841 243.885 263.371 264.796 258.812C269.409 257.414 267.468 248.335 267.523 243.626C267.527 243.288 267.336 242.984 267.013 242.885C241.972 235.149 171.206 277.372 173.815 285.98C175.387 291.17 177.101 301.877 179.832 305.392C180.11 305.75 180.63 305.688 180.889 305.316Z" fill="#F1F1F1" stroke="black" stroke-width="1.51514" stroke-linejoin="round"/>
<path d="M263.101 236.144C239.899 251.693 197.993 247.864 177.586 244.121C170.539 243.035 168.16 252.19 169.773 256.433C169.813 256.535 169.873 256.622 169.955 256.696C188.889 273.713 265.228 255.257 268.842 247.005C271.579 240.756 266.827 238.658 264.084 236.222C263.81 235.979 263.406 235.939 263.101 236.144Z" fill="#D3D3D3" stroke="black" stroke-width="1.51514" stroke-linejoin="round"/>
<path d="M267.626 240.347C241.295 258.642 198.425 247.6 178.582 240.846C171.674 238.779 168.275 251.088 169.139 256.777C169.154 256.878 169.19 256.97 169.246 257.055C185.061 281.104 277.482 266.742 274.229 255.551C272.599 249.943 271.266 243.638 268.589 240.451C268.35 240.166 267.932 240.135 267.626 240.347Z" fill="white" stroke="black" stroke-width="1.51514" stroke-linejoin="round"/>
<ellipse cx="248.03" cy="347.247" rx="70.3278" ry="12.4999" transform="rotate(-16.8588 248.03 347.247)" fill="black" fill-opacity="0.04"/>
<path d="M264.719 90.6173C253.35 86.6981 247.555 95.4045 246.079 100.248C236.911 108.742 225.038 126.509 250.89 129.627C283.206 133.525 278.93 95.5162 264.719 90.6173Z" fill="#7CE69A" stroke="black" stroke-width="3.03028"/>
<path d="M261.802 98.0594C254.226 95.45 250.368 101.237 249.386 104.457C243.28 110.102 235.375 121.912 252.601 123.993C274.133 126.595 271.272 101.321 261.802 98.0594Z" fill="black" fill-opacity="0.16"/>
<path d="M93.4313 144.3C100.481 134.598 110.241 138.419 114.24 141.542C126.639 143.262 146.596 151.031 127.227 168.347C103.015 189.992 84.6191 156.426 93.4313 144.3Z" fill="#7CE69A" stroke="black" stroke-width="3.03028"/>
<path d="M100.106 148.729C104.805 142.266 111.297 144.802 113.956 146.878C122.207 148.014 135.483 153.17 122.579 164.711C106.45 179.137 94.232 156.808 100.106 148.729Z" fill="black" fill-opacity="0.16"/>
<path d="M250.832 108.773C262.215 146.171 240.993 185.686 203.416 197.023C165.839 208.36 126.156 187.221 114.772 149.823C103.389 112.424 124.611 72.91 162.188 61.5729C199.765 50.2359 239.449 71.3746 250.832 108.773Z" fill="#7CE69A" stroke="black" stroke-width="3.03028"/>
<ellipse opacity="0.32" rx="10.5737" ry="6.74724" transform="matrix(0.998075 0.0740903 -0.0746206 0.996384 206.458 82.4523)" fill="white"/>
<ellipse opacity="0.32" rx="6.24113" ry="4.60892" transform="matrix(0.998075 0.0740906 -0.0746202 0.996384 186.481 75.8396)" fill="white"/>
<ellipse rx="8.45174" ry="6.54278" transform="matrix(0.769885 -0.63681 0.641267 0.768463 223.404 158.747)" fill="black" fill-opacity="0.1"/>
<ellipse rx="8.45174" ry="6.54277" transform="matrix(-0.995435 -0.104206 -0.104936 0.993594 165.403 176.246)" fill="black" fill-opacity="0.1"/>
<path d="M170.029 135.085C175.275 142.986 173.122 153.643 165.222 158.889C157.321 164.134 146.664 161.982 141.418 154.081C136.172 146.18 138.325 135.523 146.226 130.277C154.127 125.032 164.784 127.184 170.029 135.085Z" fill="#FFC700" stroke="black" stroke-width="1.51514"/>
<path d="M162.915 155.504C168.987 151.472 170.642 143.28 166.61 137.207C162.578 131.135 154.386 129.48 148.313 133.512C142.241 137.544 140.586 145.736 144.618 151.809C148.65 157.881 156.842 159.536 162.915 155.504Z" fill="#FFE58B"/>
<path d="M159.236 141.999C160.347 140.64 160.07 139.432 159.285 138.25C158.863 137.614 156.987 135.49 153.673 137.662L152.456 135.829L151.241 136.636L152.456 138.467L151.397 139.17L150.181 137.34L148.966 138.147L150.181 139.977L146.877 142.171L147.684 143.387L149.307 142.309L155.416 151.51L153.793 152.588L154.6 153.803L157.903 151.61L159.078 153.38L160.294 152.573L159.119 150.803L160.179 150.1L161.354 151.87L162.569 151.063L161.394 149.293L161.81 149.017C165.163 146.79 164.06 144.305 163.414 143.332C162.871 142.513 161.748 141.306 159.236 141.999ZM156.689 140.405C157.53 141.692 156.537 142.385 155.833 142.852L154.44 143.777L152.748 141.229L153.946 140.434C154.514 140.057 155.873 139.155 156.689 140.405ZM159.098 147.705L157.675 148.65L155.814 145.846L157.356 144.822C158.013 144.386 159.568 143.441 160.445 144.761C161.435 146.254 159.813 147.233 159.099 147.707L159.098 147.705Z" fill="#FFC700"/>
<path d="M228.558 122.983C230.41 132.284 224.372 141.326 215.071 143.178C205.77 145.03 196.728 138.992 194.876 129.691C193.024 120.39 199.062 111.348 208.363 109.496C217.664 107.644 226.705 113.682 228.558 122.983Z" fill="#FFC700" stroke="black" stroke-width="1.51514"/>
<path d="M214.222 139.171C221.371 137.747 226.012 130.797 224.589 123.648C223.165 116.499 216.215 111.857 209.066 113.281C201.917 114.705 197.275 121.655 198.699 128.804C200.123 135.953 207.073 140.594 214.222 139.171Z" fill="#FFE58B"/>
<path d="M215.947 125.28C217.492 124.445 217.694 123.222 217.417 121.831C217.268 121.082 216.338 118.405 212.448 119.156L212.018 116.998L210.588 117.283L211.017 119.438L209.769 119.687L209.34 117.532L207.909 117.817L208.338 119.972L204.449 120.746L204.734 122.177L206.644 121.797L208.801 132.629L206.891 133.009L207.176 134.44L211.065 133.666L211.48 135.749L212.911 135.464L212.496 133.381L213.743 133.132L214.158 135.216L215.589 134.931L215.174 132.847L215.663 132.75C219.611 131.964 219.535 129.245 219.306 128.1C219.115 127.136 218.534 125.593 215.947 125.28ZM214.197 122.839C214.485 124.349 213.304 124.613 212.475 124.778L210.835 125.104L210.238 122.105L211.648 121.824C212.316 121.691 213.916 121.372 214.197 122.839ZM213.653 130.507L211.978 130.84L211.321 127.54L213.136 127.179C213.91 127.024 215.707 126.741 216.017 128.295C216.366 130.051 214.494 130.341 213.653 130.509L213.653 130.507Z" fill="#FFC700"/>
<path fill-rule="evenodd" clip-rule="evenodd" d="M118.649 92.9717C118.689 93.0961 118.731 93.2192 118.774 93.3409C118.365 95.0741 118.405 96.9363 118.983 98.7573C119.304 99.7674 119.768 100.693 120.345 101.519C115.93 104.729 112.774 110.369 111.195 116.506C113.292 123.117 117.158 126.474 123.792 124.385C128.464 122.914 131.337 120.903 132.372 117.588C134.978 119.795 138.633 120.659 142.135 119.557C146.862 118.07 149.748 113.497 149.264 108.773C149.618 108.699 149.973 108.607 150.325 108.496C155.664 106.816 158.796 101.436 157.773 96.0918C158.892 95.6073 159.907 94.8961 160.762 93.9225C168.255 83.7454 162.536 76.7713 159.166 73.1806C154.613 69.4793 150.133 71.1814 145.052 73.1121L145.052 73.1121L145.052 73.1121L145.052 73.1121L145.052 73.1121C143.751 73.6064 142.41 74.1157 141.019 74.5532C137.566 75.6389 136.291 77.2113 136.153 79.3798C135.247 79.8422 134.431 80.4282 133.722 81.1095C131.288 79.6607 128.266 79.2157 125.35 80.1332C119.939 81.8355 116.939 87.5835 118.649 92.9717Z" fill="black" fill-opacity="0.13"/>
<path d="M112.37 117.134C113.168 118.108 114.137 118.93 115.229 119.56C118.861 121.649 123.546 121.421 126.97 118.637C130.474 115.787 131.604 111.116 130.12 107.095C136.976 102.296 138.3 96.3916 135.308 89.6214C138.328 85.4015 138.265 79.5202 134.795 75.2941C132.551 72.5608 129.34 71.0789 126.065 70.9435C122.966 70.8147 119.947 71.9015 117.656 73.9707C115.364 76.0398 113.984 78.9261 113.811 82.0099C112.291 82.1699 110.837 82.7017 109.578 83.5579C108.318 84.4141 107.292 85.5683 106.591 86.9178C104.967 90.0507 105.242 93.979 107.59 96.9188C107.616 96.9539 107.643 96.9866 107.671 97.0207C107.705 97.0615 107.737 97.101 107.772 97.1408L107.773 97.1421C106.595 97.7366 105.615 98.6559 104.949 99.7911C104.283 100.926 103.958 102.23 104.014 103.547L104.012 103.548C104.077 105.107 104.671 106.601 105.695 107.786C106.72 108.971 108.115 109.777 109.654 110.074C109.774 110.099 109.897 110.119 110.021 110.137C109.912 112.673 110.749 115.165 112.37 117.134Z" fill="#FFB3B3"/>
<g opacity="0.3">
<path opacity="0.3" d="M115.23 119.561C118.863 121.65 123.548 121.422 126.972 118.639C130.476 115.79 131.605 111.119 130.12 107.098C136.976 102.3 138.298 96.396 135.305 89.6258C138.324 85.4064 138.26 79.5253 134.789 75.2991C132.544 72.5657 129.332 71.0836 126.057 70.9479C128.818 72.4904 128.498 77.6997 123.374 78.7336C123.144 78.591 122.892 78.4882 122.627 78.4297C121.846 78.2494 121.232 79.0625 121.606 79.7693C122.702 81.837 121.291 84.3044 117.522 81.9698L115.224 81.9752C120.097 84.9479 118.503 88.8931 114.744 90.2794C114.423 90.3972 114.396 90.837 114.705 90.9884C118.941 93.0932 119.367 99.7521 113.355 102.319C117.846 104.411 120.402 109.535 115.124 112.121C114.886 112.238 114.956 112.595 115.222 112.61C116.047 112.655 117.417 112.472 119.077 111.256C124.372 113.376 125.732 121.33 115.23 119.559L115.23 119.561Z" fill="black"/>
</g>
<path d="M120.603 111.293C119.939 111.834 119.22 112.302 118.456 112.69C118.311 112.761 118.144 112.772 117.99 112.721C117.837 112.669 117.709 112.56 117.635 112.416C117.561 112.272 117.547 112.106 117.595 111.952C117.643 111.798 117.75 111.67 117.892 111.595C118.578 111.246 119.225 110.825 119.821 110.339C124.434 106.584 125.103 99.7685 121.312 95.1465C119.59 93.0422 117.14 91.658 114.45 91.2701C114.288 91.2467 114.142 91.1601 114.043 91.0294C113.945 90.8988 113.902 90.7348 113.925 90.5735C113.948 90.4123 114.034 90.2669 114.164 90.1695C114.295 90.0721 114.459 90.0305 114.621 90.054C117.617 90.4862 120.346 92.0279 122.264 94.3717C126.485 99.5195 125.741 107.11 120.603 111.293Z" fill="black"/>
<path d="M122.144 90.1061C122.018 90.2088 121.856 90.2571 121.693 90.2404C121.53 90.2236 121.38 90.1431 121.277 90.0167C121.173 89.8903 121.123 89.7282 121.139 89.5662C121.155 89.4041 121.235 89.2554 121.362 89.1527C124.331 86.7381 124.913 82.3966 122.687 79.2688C122.639 79.2029 122.604 79.1282 122.585 79.0491C122.566 78.9699 122.563 78.8879 122.576 78.8078C122.59 78.7277 122.618 78.651 122.662 78.5822C122.705 78.5135 122.761 78.454 122.827 78.4072C122.894 78.3604 122.969 78.3273 123.048 78.3098C123.128 78.2922 123.21 78.2906 123.291 78.305C123.371 78.3194 123.448 78.3495 123.517 78.3936C123.585 78.4377 123.645 78.4948 123.691 78.5618C126.291 82.2145 125.612 87.2859 122.144 90.1061Z" fill="black"/>
<path d="M111.34 96.8485C111.229 96.9388 111.09 96.9873 110.946 96.9856C109.938 96.9756 108.944 97.2073 108.048 97.6612C107.903 97.7322 107.736 97.7434 107.582 97.6924C107.428 97.6415 107.3 97.5324 107.226 97.3888C107.151 97.2452 107.136 97.0785 107.184 96.9248C107.232 96.7711 107.339 96.6427 107.482 96.5673C108.555 96.0235 109.745 95.7458 110.952 95.7577C111.079 95.7589 111.202 95.7992 111.306 95.8729C111.41 95.9465 111.488 96.0501 111.53 96.1694C111.573 96.2887 111.577 96.418 111.543 96.5395C111.509 96.661 111.438 96.769 111.34 96.8485Z" fill="black"/>
<path d="M118.911 83.1791C118.824 83.2502 118.719 83.2959 118.607 83.3113C118.495 83.3266 118.381 83.3111 118.277 83.2663C116.906 82.6765 115.408 82.4481 113.926 82.6032C113.767 82.6137 113.61 82.5624 113.488 82.4601C113.366 82.3578 113.287 82.2125 113.27 82.0546C113.252 81.8967 113.297 81.7385 113.394 81.6132C113.491 81.488 113.633 81.4053 113.791 81.3827C115.484 81.2051 117.196 81.4661 118.763 82.1405C118.861 82.1824 118.946 82.2486 119.01 82.3326C119.075 82.4166 119.116 82.5157 119.131 82.6202C119.146 82.7247 119.134 82.8311 119.096 82.9293C119.058 83.0274 118.995 83.114 118.913 83.1805L118.911 83.1791Z" fill="black"/>
<path d="M127.361 119.113C122.679 122.92 115.741 122.206 111.894 117.521C110.297 115.579 109.415 113.153 109.395 110.65C107.711 110.293 106.197 109.372 105.107 108.04C102.466 104.823 102.931 100.08 106.145 97.4666C106.369 97.2844 106.604 97.1152 106.848 96.9599C103.781 92.7618 104.491 86.8563 108.556 83.551C109.9 82.4547 111.515 81.7353 113.234 81.4662C113.557 78.1887 115.172 75.1797 117.725 73.0991C123.036 68.7804 130.906 69.5915 135.271 74.907C138.759 79.1557 139.045 85.1865 136.009 89.6933C138.996 96.7389 137.262 102.671 130.852 107.33C131.522 109.423 131.548 111.665 130.926 113.766C130.304 115.866 129.062 117.729 127.361 119.113ZM106.928 98.42C104.239 100.606 103.85 104.574 106.059 107.266C107.072 108.503 108.517 109.311 110.101 109.528C110.254 109.549 110.393 109.626 110.491 109.744C110.59 109.861 110.641 110.011 110.635 110.164C110.535 112.55 111.322 114.893 112.846 116.745C116.261 120.905 122.422 121.538 126.578 118.159C128.143 116.885 129.268 115.156 129.799 113.211C130.33 111.266 130.24 109.201 129.541 107.302C129.494 107.175 129.491 107.037 129.531 106.908C129.571 106.779 129.652 106.668 129.763 106.59C136.12 102.141 137.75 96.6694 134.743 89.8647C134.7 89.7672 134.683 89.6603 134.694 89.5546C134.704 89.4489 134.742 89.3479 134.804 89.2615C137.728 85.1755 137.527 79.5904 134.317 75.6801C130.385 70.8903 123.292 70.1596 118.506 74.0511C117.307 75.0279 116.326 76.2424 115.623 77.6184C114.921 78.9944 114.513 80.5019 114.425 82.0462C114.416 82.1913 114.357 82.3286 114.256 82.4337C114.156 82.5387 114.021 82.6046 113.876 82.6196C112.209 82.7923 110.631 83.4468 109.337 84.5027C105.651 87.5004 105.117 92.9415 108.147 96.6324C108.176 96.668 108.204 96.7024 108.235 96.7371C108.239 96.7423 108.243 96.7476 108.247 96.7527C108.306 96.8239 108.348 96.9073 108.37 96.9967C108.392 97.0861 108.394 97.1791 108.375 97.269C108.357 97.359 108.318 97.4435 108.262 97.5163C108.206 97.5891 108.135 97.6485 108.052 97.6899C107.652 97.8922 107.275 98.137 106.928 98.42Z" fill="black"/>
<path d="M110.361 110.591C110.267 110.667 110.153 110.713 110.033 110.725C109.913 110.737 109.791 110.713 109.684 110.657C109.577 110.601 109.489 110.514 109.43 110.408C109.371 110.303 109.345 110.182 109.355 110.062C109.436 109.189 109.57 108.323 109.757 107.467C109.773 107.387 109.805 107.311 109.851 107.243C109.897 107.176 109.956 107.118 110.024 107.074C110.093 107.03 110.169 106.999 110.25 106.985C110.33 106.97 110.413 106.972 110.493 106.99C110.573 107.008 110.649 107.041 110.716 107.089C110.783 107.136 110.84 107.196 110.884 107.265C110.927 107.335 110.957 107.412 110.97 107.493C110.984 107.573 110.981 107.656 110.962 107.735C110.787 108.537 110.661 109.349 110.584 110.166C110.577 110.248 110.554 110.328 110.516 110.401C110.478 110.474 110.425 110.539 110.361 110.591Z" fill="black"/>
<path d="M146.227 105.774C146.146 105.839 146.051 105.883 145.949 105.902C145.846 105.92 145.741 105.912 145.642 105.879C145.544 105.846 145.455 105.788 145.384 105.711C145.314 105.635 145.264 105.542 145.239 105.441C145.005 104.489 144.611 103.582 144.075 102.759C144.031 102.691 144 102.615 143.985 102.536C143.97 102.456 143.971 102.375 143.988 102.296C144.004 102.217 144.036 102.142 144.082 102.076C144.128 102.009 144.186 101.953 144.253 101.909C144.321 101.865 144.397 101.835 144.476 101.821C144.556 101.806 144.637 101.807 144.717 101.824C144.796 101.841 144.871 101.874 144.937 101.92C145.004 101.966 145.061 102.024 145.106 102.092C145.717 103.031 146.166 104.066 146.434 105.152C146.462 105.265 146.457 105.383 146.421 105.494C146.384 105.604 146.317 105.701 146.227 105.774Z" fill="black"/>
<path d="M125.576 112.478C125.938 113.495 126.475 114.443 127.162 115.278C130.694 119.579 137.327 119.998 141.983 116.213C145.434 113.407 146.825 109.081 145.875 105.278C147.595 105.134 149.228 104.476 150.562 103.391C153.66 100.873 154.521 96.6157 152.945 93.0326C153.65 92.703 154.311 92.2882 154.914 91.7977C158.96 88.5083 159.546 82.5586 156.22 78.5084C153.666 75.3978 149.547 74.3139 145.94 75.472C145.678 74.9307 145.353 74.4221 144.971 73.9567C141.955 70.2838 136.1 70.0795 131.892 73.5005C129.476 75.4645 128.127 78.2002 127.989 80.865C126.314 81.188 124.747 81.9201 123.429 82.9958C119.166 86.4622 118.425 92.5799 121.776 96.6606C121.855 96.7579 121.936 96.8529 122.02 96.9438C119.03 100.45 119.012 105.857 122.208 109.749C123.131 110.879 124.278 111.808 125.576 112.478Z" fill="#FFB3B3"/>
<g opacity="0.3">
<path opacity="0.3" d="M129.41 104.073C135.46 104.189 140.649 97.6482 134.604 91.5813L137.659 93.7707C139.903 92.2306 141.597 93.4752 143.175 95.3068L145.153 95.8473C145.153 95.8473 141.625 95.7431 139.134 100.493C136.643 105.243 136.004 106.676 136.506 108.991L135.912 109.281C132.154 108.864 129.088 107.908 128.664 104.886C128.603 104.446 128.963 104.064 129.41 104.073Z" fill="black"/>
</g>
<g opacity="0.3">
<path opacity="0.3" d="M143.344 87.5676C139.815 90.0188 135.258 89.5975 135.882 86.0592C139.163 84.5276 138.683 82.5072 138.683 82.5072C138.399 78.7723 140.708 77.2272 143.901 76.4312C140.202 80.167 143.84 86.2903 148.396 84.1703C148.288 84.3779 146.145 87.4032 146.145 87.4032L144.315 87.4872" fill="black"/>
</g>
<g opacity="0.3">
<path opacity="0.3" d="M120.276 87.3785C120.87 92.0026 123.005 94.6963 128.064 93.7296C125.828 94.1932 123.752 94.9531 122.115 96.5199C119.297 93.795 119.334 90.6523 120.276 87.3785Z" fill="black"/>
</g>
<g opacity="0.3">
<path opacity="0.3" d="M131.608 73.7669C130.214 76.6017 129.704 79.112 131.924 80.6222L128.529 80.2781L129.065 77.7985L129.669 76.3233" fill="black"/>
</g>
<g opacity="0.3">
<path opacity="0.3" d="M125.362 112.584C122.198 110.031 120.456 107.202 119.806 104.16C121.513 107.356 123.213 108.786 124.9 106.991L124.783 109.346" fill="black"/>
</g>
<g opacity="0.3">
<path opacity="0.3" d="M127.124 115.279C130.66 119.58 137.3 120.001 141.959 116.22C145.414 113.416 146.806 109.092 145.854 105.29C147.575 105.147 149.21 104.49 150.545 103.406C153.646 100.89 154.508 96.635 152.929 93.0526C153.942 92.5793 154.863 91.9327 155.65 91.1422C159.091 87.6941 159.305 82.2678 156.175 78.4991C155.845 78.1024 155.484 77.7325 155.096 77.393C157.362 81.3338 156.516 86.4209 152.884 89.368C152.281 89.8582 151.619 90.2725 150.914 90.6017C152.492 94.1842 151.63 98.439 148.529 100.955C147.481 101.807 146.242 102.398 144.916 102.679C144.641 102.737 144.398 102.896 144.237 103.123C144.075 103.351 144.006 103.632 144.042 103.909C144.515 107.43 143.077 111.225 139.944 113.768C135.737 117.182 129.913 117.169 126.219 113.969C126.484 114.43 126.786 114.868 127.124 115.279Z" fill="black"/>
</g>
<path d="M125.908 112.935C125.831 112.997 125.741 113.04 125.644 113.06C125.547 113.08 125.447 113.076 125.352 113.049C125.257 113.023 125.169 112.973 125.097 112.906C125.025 112.838 124.969 112.755 124.936 112.662C124.235 110.701 124.145 108.555 124.676 106.455C124.716 106.297 124.817 106.162 124.957 106.079C125.097 105.996 125.265 105.972 125.424 106.013C125.582 106.054 125.718 106.155 125.802 106.296C125.886 106.436 125.911 106.603 125.871 106.761C125.4 108.625 125.478 110.524 126.096 112.255C126.139 112.374 126.144 112.504 126.11 112.625C126.076 112.747 126.006 112.855 125.908 112.935Z" fill="black"/>
<path d="M153.341 93.5293C153.268 93.589 153.181 93.6309 153.088 93.6517C152.996 93.6724 152.899 93.6715 152.807 93.6489C152.715 93.6263 152.628 93.5827 152.555 93.5215C152.482 93.4603 152.424 93.3832 152.386 93.2961C152.067 92.5694 151.649 91.8894 151.145 91.2754C149.09 88.7672 145.896 87.6254 142.809 88.2949C142.728 88.3156 142.645 88.3199 142.563 88.3076C142.481 88.2953 142.402 88.2665 142.331 88.2231C142.26 88.1797 142.199 88.1225 142.151 88.055C142.102 87.9875 142.068 87.9109 142.05 87.8301C142.032 87.7492 142.031 87.6656 142.046 87.5843C142.061 87.503 142.092 87.4257 142.138 87.357C142.184 87.2883 142.243 87.2296 142.313 87.1845C142.382 87.1394 142.46 87.1088 142.541 87.0944C146.084 86.3255 149.745 87.6304 152.096 90.5004C152.672 91.202 153.149 91.9788 153.514 92.809C153.568 92.9319 153.58 93.0687 153.549 93.1987C153.518 93.3287 153.445 93.4448 153.341 93.5293Z" fill="black"/>
<path d="M146.397 75.956C146.337 76.0042 146.269 76.0408 146.196 76.064C145.439 76.3053 144.72 76.648 144.058 77.0825C143.921 77.1691 143.756 77.1987 143.597 77.1647C143.438 77.1307 143.299 77.036 143.209 76.901C143.12 76.7659 143.087 76.6015 143.118 76.4433C143.149 76.285 143.242 76.1457 143.376 76.0555C144.132 75.56 144.952 75.1692 145.815 74.894C145.951 74.8503 146.099 74.8557 146.233 74.9092C146.367 74.9627 146.478 75.0609 146.547 75.1868C146.616 75.3127 146.639 75.4585 146.612 75.5988C146.584 75.7392 146.508 75.8654 146.397 75.9555L146.397 75.956Z" fill="black"/>
<path d="M128.424 81.3178C128.33 81.3943 128.215 81.4412 128.094 81.4525C127.973 81.4639 127.851 81.4392 127.743 81.3816C127.636 81.324 127.548 81.236 127.49 81.1288C127.433 81.0216 127.408 80.9 127.42 80.7793L127.42 80.7769C127.43 80.6764 127.465 80.5801 127.521 80.4964C127.577 80.4127 127.654 80.3443 127.743 80.2972C127.832 80.2501 127.932 80.2258 128.034 80.2264C128.135 80.227 128.235 80.2525 128.324 80.3007C128.413 80.3488 128.49 80.4181 128.546 80.5025C128.602 80.5868 128.637 80.6835 128.647 80.7841C128.657 80.8847 128.642 80.986 128.603 81.0791C128.564 81.1722 128.503 81.2542 128.424 81.3178Z" fill="black"/>
<path d="M132.557 81.405C132.484 81.4644 132.398 81.5062 132.307 81.5273C132.215 81.5483 132.119 81.548 132.027 81.5264C130.753 81.2328 129.434 81.2061 128.152 81.4481C128.072 81.4631 127.991 81.4623 127.911 81.4458C127.832 81.4293 127.757 81.3974 127.689 81.352C127.622 81.3065 127.565 81.2484 127.52 81.1809C127.475 81.1134 127.444 81.0379 127.429 80.9586C127.413 80.8793 127.414 80.7979 127.43 80.7189C127.446 80.64 127.478 80.5651 127.523 80.4984C127.568 80.4318 127.626 80.3748 127.694 80.3306C127.761 80.2864 127.837 80.256 127.916 80.241C129.367 79.9678 130.861 79.9985 132.302 80.3312C132.414 80.3575 132.517 80.4146 132.599 80.496C132.681 80.5773 132.738 80.6797 132.764 80.7916C132.791 80.9034 132.785 81.0202 132.748 81.1287C132.712 81.2373 132.645 81.3332 132.556 81.4057L132.557 81.405Z" fill="black"/>
<path d="M142.374 116.69C137.465 120.681 130.427 120.221 126.686 115.665C126.006 114.838 125.464 113.908 125.08 112.91C123.794 112.212 122.656 111.27 121.731 110.137C118.503 106.205 118.319 100.745 121.22 96.952C117.75 92.6155 118.552 86.1674 123.038 82.5202C124.313 81.4833 125.807 80.7457 127.409 80.3619C127.689 77.5782 129.162 74.9259 131.5 73.0249C135.964 69.3962 142.22 69.641 145.447 73.5707C145.748 73.9372 146.017 74.3287 146.25 74.7409C148.128 74.244 150.112 74.2989 151.966 74.8987C153.819 75.4986 155.462 76.618 156.697 78.1224C160.233 82.4282 159.609 88.7764 155.305 92.2754C154.814 92.6752 154.287 93.0282 153.729 93.3298C155.127 97.1067 154.029 101.369 150.954 103.869C149.707 104.884 148.212 105.553 146.619 105.807C147.334 109.768 145.714 113.975 142.374 116.69ZM123.821 83.4735C119.826 86.7211 119.122 92.4637 122.251 96.2748C122.339 96.3818 122.408 96.4609 122.473 96.5314C122.574 96.6419 122.632 96.7853 122.636 96.9348C122.639 97.0843 122.588 97.2296 122.491 97.3434C119.635 100.693 119.717 105.748 122.685 109.362C123.553 110.428 124.633 111.303 125.857 111.932C125.997 112.004 126.105 112.127 126.157 112.275C126.496 113.225 126.998 114.11 127.64 114.89C130.949 118.921 137.208 119.3 141.592 115.736C144.756 113.164 146.202 109.116 145.277 105.423C145.255 105.337 145.253 105.248 145.269 105.161C145.286 105.074 145.321 104.991 145.372 104.919C145.424 104.848 145.49 104.788 145.567 104.744C145.644 104.7 145.73 104.673 145.819 104.666C147.416 104.532 148.932 103.922 150.171 102.914C152.968 100.64 153.877 96.6768 152.381 93.276C152.316 93.1293 152.311 92.9636 152.368 92.8142C152.424 92.6647 152.536 92.5434 152.681 92.4759C153.34 92.1677 153.958 91.7801 154.522 91.3216C158.299 88.2505 158.848 82.6764 155.743 78.8961C153.404 76.0476 149.632 74.9333 146.132 76.0571C145.99 76.1027 145.836 76.0953 145.699 76.0365C145.561 75.9776 145.45 75.8712 145.385 75.7371C145.144 75.24 144.845 74.7728 144.494 74.3452C141.698 70.9404 136.221 70.7764 132.283 73.978C130.08 75.7683 128.74 78.2917 128.605 80.9011C128.598 81.0377 128.545 81.1678 128.455 81.2707C128.365 81.3736 128.243 81.4435 128.109 81.4693C126.534 81.7752 125.061 82.4635 123.821 83.4733L123.821 83.4735Z" fill="black"/>
<path d="M130.795 94.2388C130.731 94.2914 130.656 94.3302 130.575 94.353C130.495 94.3757 130.411 94.3819 130.328 94.3711C127.855 94.053 125.465 94.7125 123.597 96.228C123.191 96.5564 122.817 96.921 122.478 97.3173C122.372 97.438 122.222 97.5121 122.06 97.5235C121.899 97.5349 121.739 97.4827 121.615 97.3782C121.491 97.2737 121.414 97.1252 121.399 96.9648C121.384 96.8044 121.433 96.6449 121.535 96.5207C121.922 96.0672 122.35 95.65 122.814 95.2743C124.946 93.5446 127.669 92.7912 130.481 93.1526C130.601 93.168 130.714 93.2179 130.805 93.2963C130.897 93.3746 130.964 93.478 130.998 93.5935C131.032 93.709 131.03 93.8315 130.995 93.946C130.959 94.0605 130.89 94.1618 130.797 94.2375L130.795 94.2388Z" fill="black"/>
<path d="M136.846 104.785C135.902 105.557 134.793 106.104 133.603 106.387C132.413 106.67 131.172 106.681 129.974 106.419C129.817 106.382 129.679 106.285 129.592 106.149C129.505 106.012 129.475 105.848 129.508 105.69C129.542 105.532 129.636 105.395 129.771 105.306C129.906 105.218 130.071 105.186 130.23 105.218C131.246 105.441 132.299 105.432 133.31 105.192C134.32 104.952 135.262 104.487 136.064 103.832C139.014 101.433 139.442 97.0784 137.018 94.1254C136.003 92.8914 134.595 92.0414 133.029 91.7188C132.872 91.6828 132.735 91.587 132.648 91.452C132.56 91.317 132.529 91.1534 132.56 90.9963C132.592 90.8392 132.684 90.701 132.817 90.6113C132.95 90.5215 133.113 90.4873 133.272 90.516C135.115 90.8962 136.774 91.8975 137.969 93.351C140.825 96.83 140.321 101.959 136.846 104.785Z" fill="black"/>
<path d="M136.607 109.776C136.545 109.827 136.473 109.865 136.396 109.888C136.318 109.911 136.237 109.919 136.157 109.911C136.076 109.902 135.998 109.878 135.927 109.84C135.856 109.801 135.793 109.749 135.741 109.687C134.771 108.502 134.11 107.097 133.816 105.597C133.801 105.518 133.801 105.436 133.817 105.357C133.833 105.278 133.865 105.203 133.91 105.136C133.955 105.07 134.013 105.013 134.081 104.968C134.148 104.924 134.224 104.894 134.303 104.879C134.382 104.864 134.464 104.865 134.543 104.881C134.622 104.898 134.698 104.93 134.765 104.975C134.832 105.021 134.889 105.079 134.934 105.147C134.978 105.214 135.009 105.29 135.025 105.369C135.279 106.668 135.852 107.885 136.693 108.911C136.744 108.974 136.783 109.046 136.806 109.123C136.83 109.201 136.838 109.282 136.83 109.362C136.822 109.443 136.798 109.521 136.76 109.592C136.722 109.663 136.67 109.725 136.607 109.776Z" fill="black"/>
<path d="M145.774 96.1571C145.696 96.2206 145.603 96.264 145.504 96.2834C145.405 96.3028 145.303 96.2977 145.206 96.2684C143.173 95.6546 141.028 95.8551 139.166 96.8327C139.095 96.8731 139.016 96.8987 138.934 96.908C138.852 96.9173 138.769 96.9101 138.69 96.8869C138.61 96.8637 138.537 96.8249 138.472 96.7728C138.408 96.7208 138.355 96.6565 138.317 96.5838C138.278 96.5111 138.254 96.4314 138.247 96.3496C138.239 96.2677 138.248 96.1853 138.274 96.1073C138.299 96.0292 138.34 95.9571 138.393 95.8951C138.447 95.8331 138.513 95.7827 138.587 95.7466C140.736 94.6168 143.212 94.3856 145.558 95.0937C145.666 95.126 145.762 95.1868 145.838 95.2694C145.913 95.3521 145.965 95.4535 145.987 95.5628C146.009 95.6722 146.001 95.7853 145.964 95.8901C145.926 95.9948 145.861 96.0873 145.774 96.1576L145.774 96.1571Z" fill="black"/>
<path d="M146.75 88.1571C146.648 88.2397 146.523 88.2876 146.391 88.2938C146.26 88.3001 146.129 88.2644 146.019 88.1919C145.909 88.1194 145.825 88.0139 145.779 87.8909C145.733 87.7679 145.728 87.6338 145.765 87.5082C146.164 86.1354 146.897 84.8831 147.9 83.8619C148.903 82.8407 150.145 82.0819 151.516 81.6525C151.67 81.6078 151.837 81.6251 151.979 81.7008C152.122 81.7764 152.229 81.9043 152.279 82.0572C152.328 82.2101 152.315 82.3757 152.244 82.5188C152.172 82.6618 152.046 82.7709 151.894 82.8227C150.716 83.1916 149.649 83.8434 148.787 84.7206C147.925 85.5979 147.295 86.6736 146.952 87.853C146.918 87.9726 146.847 88.0787 146.75 88.1571Z" fill="black"/>
<path d="M137.1 86.2224C136.631 86.6035 136.109 86.9155 135.55 87.1489C135.4 87.2074 135.233 87.2051 135.084 87.1425C134.935 87.08 134.816 86.9622 134.753 86.8143C134.69 86.6664 134.688 86.5001 134.747 86.3511C134.805 86.202 134.92 86.0821 135.067 86.0168C135.903 85.668 136.629 85.1043 137.171 84.3832C137.714 83.6621 138.053 82.8096 138.155 81.9128C138.162 81.8318 138.186 81.7531 138.225 81.6815C138.263 81.6098 138.316 81.5467 138.38 81.4956C138.443 81.4446 138.516 81.4067 138.595 81.3842C138.674 81.3616 138.756 81.3549 138.838 81.3644C138.919 81.3739 138.998 81.3995 139.069 81.4395C139.141 81.4796 139.204 81.5334 139.255 81.5977C139.305 81.6621 139.342 81.7358 139.364 81.8145C139.386 81.8932 139.392 81.9753 139.381 82.056C139.201 83.6915 138.382 85.1876 137.1 86.2224Z" fill="black"/>
<g opacity="0.6">
<path opacity="0.6" d="M123.991 88.7401C124.883 89.8243 125.704 87.5409 127.447 86.1273C129.19 84.7137 131.195 84.7049 130.303 83.6207C129.412 82.5365 127.276 82.8038 125.533 84.2174C123.79 85.631 123.1 87.6559 123.991 88.7401Z" fill="white"/>
</g>
<g opacity="0.6">
<path opacity="0.6" d="M122.983 100.88C123.746 101.808 123.953 100.093 125.282 99.0149C126.612 97.9364 128.559 97.9027 127.797 96.9751C127.034 96.0474 125.338 96.1697 124.009 97.2482C122.679 98.3267 122.22 99.9529 122.983 100.88Z" fill="white"/>
</g>
<g opacity="0.6">
<path opacity="0.6" d="M139.898 110.144C139.429 109.041 138.41 110.764 136.37 111.613C134.329 112.462 132.042 112.118 132.511 113.22C132.98 114.322 135.016 114.528 137.055 113.677C139.093 112.826 140.368 111.246 139.898 110.144Z" fill="white"/>
</g>
<g opacity="0.6">
<path opacity="0.6" d="M146.766 79.2836C146.706 80.4771 148.018 79.3529 149.734 79.4479C151.451 79.5429 152.921 80.8213 152.98 79.6276C153.04 78.434 151.697 77.3896 149.981 77.2946C148.265 77.1996 146.825 78.09 146.766 79.2836Z" fill="white"/>
</g>
<g opacity="0.6">
<path opacity="0.6" d="M136.888 74.1745C136.757 75.0647 137.928 74.8815 139.309 75.091C140.689 75.3004 141.757 75.8227 141.887 74.9328C142.018 74.043 141.005 73.1514 139.625 72.9421C138.244 72.7328 137.019 73.2845 136.888 74.1745Z" fill="white"/>
</g>
<g opacity="0.6">
<path opacity="0.6" d="M135.627 74.1056C135.416 73.6799 134.741 73.5806 134.119 73.884C133.498 74.1874 133.165 74.7784 133.376 75.2042C133.587 75.6299 134.262 75.7292 134.883 75.4258C135.505 75.1225 135.838 74.5314 135.627 74.1056Z" fill="white"/>
</g>
<g opacity="0.6">
<path opacity="0.6" d="M123.464 103.348C123.465 102.731 123.088 102.229 122.62 102.225C122.153 102.221 121.774 102.718 121.772 103.335C121.771 103.951 122.149 104.454 122.616 104.458C123.083 104.462 123.463 103.965 123.464 103.348Z" fill="white"/>
</g>
<g opacity="0.6">
<path opacity="0.6" d="M144.127 91.6269C143.917 92.162 144.654 92.0237 145.556 92.4621C146.458 92.9006 147.036 93.6641 147.394 93.2145C148.05 92.3923 147.396 91.3141 146.494 90.8755C145.592 90.4368 144.515 90.6405 144.127 91.6269Z" fill="white"/>
</g>
<path d="M116.276 102.287C116.173 102.37 116.046 102.418 115.913 102.423C115.061 102.457 114.244 102.766 113.586 103.303C113.403 103.452 113.233 103.617 113.079 103.795C112.972 103.916 112.822 103.99 112.66 104.001C112.498 104.012 112.338 103.959 112.215 103.854C112.091 103.749 112.014 103.599 112 103.439C111.986 103.278 112.036 103.119 112.139 102.995C112.341 102.761 112.563 102.545 112.803 102.35C113.666 101.646 114.737 101.241 115.855 101.197C115.985 101.192 116.113 101.227 116.222 101.298C116.33 101.369 116.414 101.473 116.46 101.593C116.507 101.714 116.514 101.846 116.481 101.97C116.448 102.095 116.376 102.206 116.276 102.287Z" fill="black"/>
<g opacity="0.3">
<path opacity="0.3" d="M105.543 107.626C106.571 108.886 108.011 109.744 109.608 110.048L110.527 107.3C110.554 107.22 110.559 107.133 110.542 107.05C110.524 106.967 110.485 106.889 110.428 106.826C110.371 106.762 110.299 106.715 110.218 106.688C110.137 106.661 110.05 106.657 109.967 106.674C105.746 107.572 103.976 103.516 103.976 103.516L103.974 103.518C104.035 105.019 104.586 106.462 105.543 107.626Z" fill="black"/>
</g>
<g opacity="0.3">
<path opacity="0.3" d="M107.598 96.8897C108.774 96.3747 110.245 96.1583 111.279 96.0678C111.645 96.0357 111.751 95.5587 111.438 95.3656C107.542 92.9606 106.751 89.9822 106.968 86.817L106.6 86.8823C104.978 90.0178 105.253 93.9484 107.598 96.8897Z" fill="black"/>
</g>
<g opacity="0.6">
<path opacity="0.6" d="M109.073 88.1954C109.71 88.9697 110.259 87.6961 111.441 86.7376C112.622 85.7791 113.988 85.4991 113.351 84.7248C112.714 83.9505 111.241 84.0997 110.059 85.0581C108.878 86.0164 108.436 87.4211 109.073 88.1954Z" fill="white"/>
</g>
<g opacity="0.6">
<path opacity="0.6" d="M107.003 102.856C107.64 103.631 108.189 102.357 109.37 101.399C110.552 100.44 111.918 100.16 111.281 99.3857C110.644 98.6114 109.171 98.7607 107.989 99.7192C106.808 100.678 106.367 102.082 107.003 102.856Z" fill="white"/>
</g>
<g opacity="0.6">
<path opacity="0.6" d="M121.081 116.034C121.037 115.037 119.828 115.724 118.303 115.782C116.777 115.841 115.511 115.249 115.556 116.246C115.601 117.243 116.873 118.003 118.399 117.945C119.925 117.887 121.126 117.031 121.081 116.034Z" fill="white"/>
</g>
<g opacity="0.6">
<path opacity="0.6" d="M119.72 76.2057C120.11 77.127 121.218 75.9751 122.893 75.2823C124.569 74.5895 126.176 74.6192 125.786 73.698C125.397 72.7769 123.723 72.5911 122.048 73.2839C120.373 73.9767 119.331 75.284 119.72 76.2057Z" fill="white"/>
</g>
<path d="M118.869 77.4785C118.918 76.9444 118.58 76.4754 118.115 76.4309C117.649 76.3863 117.233 76.7831 117.184 77.3172C117.136 77.8512 117.474 78.3203 117.939 78.3648C118.404 78.4094 118.821 78.0125 118.869 77.4785Z" fill="white"/>
<g opacity="0.6">
<path opacity="0.6" d="M116.052 109.446C116.523 108.562 116.38 107.568 115.732 107.224C115.084 106.881 114.177 107.318 113.706 108.202C113.235 109.086 113.379 110.081 114.026 110.424C114.674 110.768 115.581 110.33 116.052 109.446Z" fill="white"/>
</g>
<path d="M142.628 116.986C138.634 120.233 133.066 120.694 128.958 118.157C128.549 118.62 128.103 119.048 127.624 119.438C122.77 123.384 115.576 122.643 111.588 117.787C110.005 115.857 109.098 113.467 109.005 110.982C107.355 110.559 105.882 109.622 104.8 108.308C102.018 104.92 102.509 99.9243 105.894 97.1725C106.022 97.068 106.155 96.9672 106.29 96.871C103.354 92.5005 104.2 86.5949 108.305 83.258C109.625 82.184 111.195 81.4562 112.873 81.1401C113.27 77.8954 114.936 74.8727 117.476 72.8081C121.739 69.3426 127.699 68.9802 132.388 71.8766C134.54 70.5055 137.042 69.8699 139.462 70.0847C141.999 70.3096 144.235 71.4536 145.756 73.3059C146.006 73.6104 146.235 73.9315 146.441 74.2669C150.383 73.3335 154.408 74.6933 157.006 77.857C160.683 82.3339 160.033 88.9353 155.559 92.5723C155.137 92.9159 154.688 93.2264 154.217 93.5011C155.509 97.3843 154.323 101.633 151.207 104.165C150.01 105.138 148.592 105.807 147.076 106.116C147.652 110.133 145.972 114.268 142.628 116.986ZM128.624 117.321C128.691 117.268 128.773 117.237 128.858 117.233C128.944 117.229 129.029 117.252 129.101 117.3C132.943 119.857 138.296 119.472 142.118 116.365C145.346 113.741 146.919 109.716 146.221 105.86C146.212 105.808 146.213 105.755 146.225 105.703C146.236 105.651 146.258 105.603 146.289 105.56C146.319 105.517 146.358 105.48 146.403 105.452C146.448 105.424 146.498 105.406 146.551 105.398C148.074 105.153 149.504 104.514 150.698 103.544C153.635 101.156 154.702 97.1004 153.351 93.452C153.318 93.3619 153.318 93.2633 153.352 93.1739C153.385 93.0844 153.45 93.01 153.534 92.9641C154.07 92.6746 154.577 92.3357 155.049 91.9519C159.181 88.5929 159.781 82.4965 156.386 78.3619C153.925 75.3657 150.082 74.1216 146.354 75.115C146.268 75.1377 146.177 75.1313 146.094 75.0966C146.012 75.062 145.943 75.0012 145.899 74.9237C145.677 74.5317 145.422 74.1593 145.135 73.8106C142.268 70.3184 136.886 69.8347 132.618 72.6854C132.553 72.7287 132.477 72.752 132.398 72.7525C132.319 72.7529 132.242 72.7305 132.176 72.6879C127.748 69.8291 122.047 70.1276 117.986 73.4286C115.531 75.4244 113.946 78.3752 113.638 81.5244C113.63 81.6122 113.592 81.6944 113.532 81.7584C113.471 81.8224 113.391 81.8646 113.303 81.8785C111.654 82.1382 110.106 82.8283 108.815 83.8788C104.931 87.0359 104.212 92.6851 107.176 96.742C107.208 96.7862 107.231 96.8365 107.243 96.8897C107.255 96.9428 107.256 96.9978 107.246 97.0513C107.236 97.1048 107.215 97.1556 107.185 97.2007C107.154 97.2458 107.115 97.2842 107.069 97.3135C106.838 97.4604 106.616 97.6205 106.403 97.7931C103.36 100.267 102.919 104.758 105.421 107.803C106.455 109.061 107.887 109.933 109.481 110.273C109.571 110.293 109.651 110.342 109.709 110.412C109.767 110.483 109.799 110.571 109.801 110.662C109.823 113.074 110.673 115.409 112.209 117.282C115.915 121.795 122.602 122.484 127.114 118.816C127.645 118.384 128.132 117.901 128.568 117.374C128.585 117.355 128.603 117.337 128.623 117.32L128.624 117.321Z" fill="black"/>
<path d="M109.49 136.43C109.091 135.117 108.926 132.574 109.234 130.235C109.387 129.073 109.651 128.016 110.027 127.217C110.411 126.402 110.849 125.982 111.284 125.851C111.718 125.72 112.317 125.827 113.09 126.293C113.848 126.749 114.657 127.483 115.432 128.365C116.993 130.14 118.274 132.347 118.673 133.659C119.43 136.144 118.002 138.792 115.456 139.56C112.911 140.328 110.247 138.914 109.49 136.43Z" fill="#FFB3B3" stroke="black" stroke-width="1.51514"/>
<path opacity="0.6" d="M112.478 136.245C113.231 136.137 112.334 135.239 112.138 133.861C111.942 132.482 112.518 131.146 111.766 131.254C111.014 131.362 110.563 132.567 110.76 133.945C110.958 135.323 111.726 136.353 112.478 136.245Z" fill="white"/>
<path d="M121.127 146.051C120.909 145.336 120.812 143.89 120.992 142.544C121.082 141.879 121.232 141.292 121.437 140.862C121.648 140.417 121.855 140.262 121.991 140.222C122.126 140.181 122.385 140.195 122.809 140.448C123.218 140.693 123.671 141.098 124.116 141.602C125.017 142.621 125.742 143.878 125.959 144.593C126.351 145.879 125.607 147.268 124.259 147.675C122.911 148.081 121.518 147.337 121.127 146.051Z" fill="#FFB3B3" stroke="black" stroke-width="1.51514"/>
<path opacity="0.6" d="M122.776 144.952C123.111 144.904 122.712 144.505 122.625 143.892C122.538 143.28 122.794 142.685 122.46 142.733C122.126 142.781 121.925 143.317 122.013 143.93C122.101 144.542 122.442 145 122.776 144.952Z" fill="white"/>
<path opacity="0.16" d="M204.361 177.568C200.772 175.535 197.079 178.475 195.681 180.199C193.744 182.395 189.383 182.656 191.296 184.128C192.508 185.061 194.107 184.205 198.857 183.323C203.608 182.441 208.848 180.109 204.361 177.568Z" fill="black" stroke="#EF467D" stroke-width="0.252524"/>
<path d="M225.052 164.756C207.183 175.448 219.16 190.157 202.848 195.101C187.117 200.659 186.051 182.776 167.534 182.186C169.895 179.757 175.055 176.716 176.231 173.878C177.186 165.276 176.285 153.808 188.548 150.091C199.232 146.854 207.626 156.448 211.635 163.149C215.201 165.777 222.085 165.655 225.052 164.756Z" fill="#FF87AE"/>
<mask id="path-112-inside-1_3_5015" fill="white">
<path d="M224.746 163.747C206.829 174.282 218.641 188.444 202.328 193.387C186.591 198.922 185.689 181.581 167.228 181.177C169.605 178.799 174.778 175.802 175.976 173.038C177.007 164.684 176.212 153.566 188.475 149.85C199.159 146.612 207.443 155.844 211.381 162.309C214.913 164.826 221.78 164.646 224.746 163.747Z"/>
</mask>
<path d="M224.746 163.747C206.829 174.282 218.641 188.444 202.328 193.387C186.591 198.922 185.689 181.581 167.228 181.177C169.605 178.799 174.778 175.802 175.976 173.038C177.007 164.684 176.212 153.566 188.475 149.85C199.159 146.612 207.443 155.844 211.381 162.309C214.913 164.826 221.78 164.646 224.746 163.747Z" fill="#FF87AE"/>
<path d="M224.746 163.747L225.514 165.053L224.307 162.297L224.746 163.747ZM202.328 193.387L201.889 191.937L201.857 191.947L201.826 191.958L202.328 193.387ZM167.228 181.177L166.157 180.106L163.65 182.614L167.195 182.692L167.228 181.177ZM211.381 162.309L210.087 163.097L210.248 163.362L210.501 163.543L211.381 162.309ZM175.976 173.038L177.366 173.641L177.453 173.44L177.48 173.223L175.976 173.038ZM223.978 162.441C219.292 165.196 216.475 168.238 214.667 171.37C212.876 174.469 212.123 177.583 211.463 180.307C210.786 183.101 210.224 185.385 208.935 187.308C207.7 189.151 205.701 190.782 201.889 191.937L202.768 194.837C207.112 193.521 209.754 191.528 211.452 188.996C213.096 186.543 213.759 183.701 214.408 181.02C215.074 178.269 215.747 175.559 217.291 172.885C218.816 170.244 221.241 167.565 225.514 165.053L223.978 162.441ZM201.826 191.958C198.154 193.249 195.494 193.165 193.276 192.432C190.987 191.677 189.017 190.19 186.761 188.338C182.287 184.666 177.075 179.877 167.262 179.662L167.195 182.692C175.843 182.881 180.312 186.965 184.838 190.68C187.082 192.522 189.442 194.358 192.326 195.31C195.279 196.285 198.633 196.293 202.831 194.816L201.826 191.958ZM188.914 151.3C193.695 149.851 197.961 151.159 201.593 153.685C205.257 156.233 208.181 159.968 210.087 163.097L212.675 161.521C210.643 158.185 207.456 154.071 203.323 151.197C199.158 148.3 193.939 146.611 188.036 148.4L188.914 151.3ZM210.501 163.543C212.609 165.045 215.547 165.657 218.181 165.821C220.84 165.987 223.487 165.712 225.185 165.197L224.307 162.297C223.039 162.681 220.769 162.946 218.369 162.797C215.946 162.646 213.684 162.09 212.26 161.075L210.501 163.543ZM168.3 182.248C169.41 181.137 171.134 179.92 172.99 178.435C173.876 177.727 174.766 176.973 175.521 176.2C176.265 175.44 176.959 174.579 177.366 173.641L174.586 172.435C174.394 172.879 173.992 173.429 173.354 174.082C172.728 174.723 171.952 175.386 171.097 176.069C169.473 177.369 167.423 178.839 166.157 180.106L168.3 182.248ZM177.48 173.223C177.612 172.151 177.714 171.041 177.815 169.933C177.916 168.817 178.016 167.702 178.145 166.587C178.402 164.352 178.767 162.187 179.447 160.194C180.772 156.31 183.305 153 188.914 151.3L188.036 148.4C181.382 150.416 178.18 154.523 176.579 159.216C175.796 161.511 175.401 163.924 175.134 166.24C175.001 167.399 174.898 168.553 174.797 169.659C174.696 170.772 174.598 171.836 174.472 172.852L177.48 173.223Z" fill="black" mask="url(#path-112-inside-1_3_5015)"/>
<path d="M225.188 165.207C207.287 175.794 219.154 190.135 202.841 195.078C187.105 200.621 186.15 183.102 167.671 182.637C170.042 180.242 175.211 177.231 176.402 174.443C177.408 166.008 176.578 154.774 188.841 151.058C199.525 147.82 207.845 157.171 211.806 163.714C215.349 166.267 222.222 166.106 225.188 165.207Z" fill="#EF467D"/>
<path d="M225.307 165.599C207.265 175.72 218.642 188.445 202.329 193.389C186.572 198.862 186.103 182.947 167.789 183.029C170.206 180.785 175.414 177.904 176.672 175.334C177.9 167.631 177.384 157.433 189.647 153.716C200.331 150.479 208.326 158.76 212.077 164.605C215.52 166.832 222.341 166.497 225.307 165.599Z" fill="#EF467D"/>
<path d="M217.224 170.562C216.631 171.349 216.12 172.145 215.676 172.945C213.971 176.012 213.265 179.108 212.627 181.917C211.982 184.762 211.414 187.258 210.05 189.366C208.714 191.43 206.567 193.182 202.628 194.376L202.611 194.381L202.595 194.386C198.799 195.728 195.962 195.635 193.546 194.795C191.093 193.943 189.003 192.299 186.725 190.371C186.47 190.155 186.213 189.936 185.954 189.715C181.898 186.256 177.244 182.287 169.314 181.539C171.277 179.832 172.956 179.153 174.509 179.015C176.415 178.846 178.265 179.474 180.445 180.357C180.742 180.478 181.043 180.602 181.349 180.728C185.52 182.449 190.625 184.556 198.289 182.234C206.372 179.784 210.947 176.209 214.623 172.922C215.14 172.46 215.636 172.007 216.119 171.567C216.494 171.224 216.861 170.888 217.224 170.562Z" fill="#731533" stroke="black" stroke-width="1.51514"/>
<path d="M224.747 163.75C206.83 174.284 218.641 188.443 202.328 193.387C186.59 198.922 185.69 181.584 167.229 181.18C177.656 170.746 181.803 185.059 197.686 180.246C213.569 175.433 215.684 166.496 224.747 163.75Z" fill="#4A0A1F"/>
<path d="M197.646 145.955C193.539 145.576 190.242 149.701 188.584 150.203C186.926 150.706 181.894 149.105 178.689 151.699C172.363 156.816 172.859 169.63 177.264 180.54C184.266 197.835 198.613 197.967 202.682 196.734C206.751 195.501 218.609 187.419 214.835 169.155C212.448 157.633 205.735 146.703 197.646 145.955Z" fill="#E83174"/>
<path d="M200.568 155.394C196.355 153.824 192.199 155.084 190.662 157.021C188.3 156.265 184.152 157.522 181.519 161.167C178.886 164.812 179.481 177.481 180.023 178.986C180.565 180.492 190.757 190.057 199.826 187.309C208.896 184.56 212.054 170.95 211.679 169.393C211.304 167.837 204.778 156.963 200.568 155.394Z" fill="#9E0F45"/>
<path d="M182.396 160.701C182.687 161.66 182.033 162.356 181.057 162.652L180.001 162.972C179.026 163.268 177.935 162.524 177.644 161.564L176.708 158.473C176.569 158.013 176.622 157.516 176.855 157.091C177.088 156.666 177.482 156.347 177.951 156.205L179.007 155.885C179.475 155.743 179.98 155.79 180.41 156.014C180.84 156.238 181.16 156.622 181.299 157.082L182.396 160.701Z" fill="#EEEEEE"/>
<path d="M199.555 155.501C199.846 156.46 200.734 156.689 201.659 156.409L202.659 156.106C203.583 155.826 204.036 154.614 203.745 153.655L202.808 150.564C202.668 150.104 202.358 149.717 201.946 149.488C201.533 149.258 201.052 149.204 200.608 149.339L199.608 149.642C199.164 149.777 198.794 150.088 198.578 150.508C198.363 150.928 198.319 151.422 198.458 151.882L199.555 155.501Z" fill="#EEEEEE"/>
<path opacity="0.3" d="M192.757 193.15L193.567 193.097C194.077 193.063 194.789 193.024 195.616 192.955C196.032 192.928 196.475 192.882 196.938 192.838C197.401 192.794 197.884 192.736 198.376 192.67L199.122 192.559L199.874 192.425C200.372 192.317 200.882 192.226 201.372 192.081C201.862 191.935 202.35 191.784 202.829 191.639C203.062 191.544 203.299 191.464 203.529 191.379C203.759 191.293 203.985 191.193 204.203 191.094C204.644 190.896 205.066 190.691 205.465 190.479L206.045 190.159L206.585 189.835C206.765 189.737 206.915 189.617 207.079 189.519C207.242 189.422 207.397 189.324 207.539 189.222C207.814 189.021 208.079 188.86 208.278 188.709C208.69 188.413 208.948 188.238 208.948 188.238C208.948 188.238 208.876 188.528 208.695 189.011C208.577 189.3 208.444 189.583 208.296 189.859C208.097 190.217 207.875 190.563 207.63 190.893L207.183 191.446C207.019 191.63 206.839 191.818 206.651 191.998C206.246 192.386 205.809 192.742 205.344 193.06C204.846 193.396 204.319 193.69 203.771 193.938C203.203 194.189 202.616 194.394 202.016 194.553C199.838 195.115 197.551 195.072 195.416 194.429C194.728 194.224 194.066 193.947 193.442 193.601C193.202 193.468 192.974 193.317 192.757 193.15Z" fill="white"/>
<path d="M227.892 155.582L209.889 165.657C210.292 166.719 211.064 169.629 211.207 170.007C211.386 170.479 211.877 173.481 211.776 173.924C211.674 174.368 211.692 176.052 211.709 176.451C211.722 176.771 213.059 177.005 212.929 177.73L234.787 165.931L233.382 165.788L232.153 165.039L230.004 163.288L228.579 161.668L227.773 159.543L227.501 157.756L227.892 155.582Z" fill="#2C2B35"/>
<path d="M244.5 147.208C243.947 147.538 239.193 149.62 238.835 149.746L241.021 151.384L242.002 152.644L242.906 154.065L243.18 155.977L243.811 157.763L243.49 159.885C244.001 159.437 245.095 158.515 245.381 158.414C245.738 158.288 246.795 157.11 247.229 156.823C247.663 156.536 248.713 154.96 248.909 154.756C249.066 154.594 250.118 153.124 250.624 152.409L251.932 149.67L252.673 146.462L251.811 145.16L250.634 144.103L249.087 144.65C247.742 145.393 244.943 146.945 244.5 147.208Z" fill="#2C2B35"/>
<path fill-rule="evenodd" clip-rule="evenodd" d="M250.709 144.888C250.373 144.949 249.914 145.137 249.424 145.434L249.422 145.435L249.42 145.437C248.284 146.12 246.669 147.116 245.059 148.108C244.516 148.443 243.972 148.778 243.448 149.101C242.415 149.736 241.456 150.324 240.724 150.763C240.359 150.983 240.62 150.936 240.377 151.076C240.256 151.145 240.234 151.109 240.139 151.16L240.216 150.999C240.152 151.032 240.086 150.911 239.936 150.964L237.864 149.131C237.818 149.148 237.542 149.181 238.008 148.837C238.015 148.834 238.029 148.827 238.051 148.815C238.105 148.786 238.186 148.742 238.294 148.679C238.51 148.556 238.804 148.382 239.163 148.166C239.88 147.735 240.827 147.155 241.86 146.52C242.377 146.202 242.915 145.87 243.455 145.537C245.069 144.543 246.704 143.534 247.855 142.842C248.522 142.438 249.337 142.057 250.169 141.906C250.985 141.758 252.121 141.79 252.989 142.654C253.821 143.481 254.011 144.691 253.922 145.917C253.83 147.184 253.42 148.802 252.653 150.843C251.547 153.783 249.623 156.262 247.431 158.312L243.499 162.069L243.342 158.33L245.361 156.099C247.322 154.265 248.92 152.159 249.816 149.777C250.538 147.857 250.838 146.549 250.899 145.697C250.933 145.239 250.893 144.99 250.86 144.868C250.822 144.871 250.773 144.877 250.709 144.888ZM250.965 144.873C250.965 144.873 250.959 144.872 250.95 144.869C250.961 144.87 250.965 144.872 250.965 144.873Z" fill="black"/>
<path fill-rule="evenodd" clip-rule="evenodd" d="M236.751 166.356L211.006 180.227L211.993 176.21L232.67 164.979L236.751 166.356Z" fill="black"/>
<path fill-rule="evenodd" clip-rule="evenodd" d="M245.91 152.334C245.253 152.566 244.531 152.222 244.299 151.564C244.067 150.907 244.411 150.186 245.069 149.953C245.726 149.721 246.448 150.065 246.68 150.723C246.912 151.38 246.568 152.102 245.91 152.334ZM217.31 170.752C216.012 171.211 214.582 170.517 214.117 169.202C213.653 167.887 214.329 166.449 215.628 165.99C216.926 165.531 218.356 166.225 218.821 167.54C219.285 168.855 218.609 170.293 217.31 170.752ZM221.418 165.432C221.883 166.747 223.313 167.441 224.612 166.982C225.91 166.523 226.587 165.085 226.122 163.77C225.657 162.455 224.228 161.761 222.929 162.22C221.63 162.679 220.954 164.117 221.418 165.432ZM237.704 159.52C236.405 159.979 234.975 159.285 234.51 157.97C234.046 156.655 234.722 155.217 236.021 154.758C237.32 154.299 238.749 154.993 239.214 156.308C239.679 157.623 239.002 159.061 237.704 159.52Z" fill="white" fill-opacity="0.15"/>
<rect x="225.755" y="152.274" width="16.1615" height="16.1615" rx="8.08076" transform="rotate(-16.8588 225.755 152.274)" stroke="black" stroke-width="1.51514"/>
<path fill-rule="evenodd" clip-rule="evenodd" d="M228.239 157.733L210.885 167.202L209.244 164.401L227.534 154.637L228.239 157.733Z" fill="black"/>
<path d="M157.959 176.774L178.526 175.161C178.781 176.268 179.754 179.117 179.844 179.511C179.957 180.003 181.215 182.773 181.546 183.085C181.877 183.398 182.796 184.809 183.004 185.15C183.171 185.422 182.188 186.36 182.699 186.89L157.969 189.21L159.058 188.311L159.664 187.006L160.48 184.356L160.766 182.218L160.256 180.003L159.491 178.365L157.959 176.774Z" fill="#2C2B35"/>
<path d="M139.496 179.028C140.139 178.995 145.249 178.088 145.616 177.995L144.707 180.57L144.591 182.163L144.628 183.847L145.462 185.59L145.928 187.425L147.373 189.012C146.699 188.923 145.278 188.763 144.984 188.838C144.617 188.931 143.084 188.539 142.564 188.541C142.043 188.543 140.295 187.814 140.019 187.754C139.798 187.706 138.107 187.067 137.29 186.754L134.681 185.202L132.283 182.945L132.278 181.383L132.67 179.851L134.261 179.446C135.791 179.318 138.981 179.055 139.496 179.028Z" fill="#2C2B35"/>
<path fill-rule="evenodd" clip-rule="evenodd" d="M133.043 180.545C133.357 180.409 133.843 180.311 134.415 180.286L134.418 180.286L134.421 180.286C135.745 180.224 137.64 180.155 139.53 180.087C140.169 180.064 140.806 180.041 141.421 180.018C142.634 179.973 143.758 179.93 144.61 179.889C145.036 179.869 144.793 179.975 145.072 179.956C145.211 179.947 145.21 179.905 145.317 179.894L145.164 179.803C145.235 179.795 145.223 179.657 145.377 179.618L146.083 176.944C146.131 176.932 146.379 176.806 145.8 176.779C145.793 176.78 145.777 176.782 145.752 176.785C145.691 176.791 145.599 176.798 145.475 176.807C145.227 176.824 144.885 176.842 144.467 176.862C143.631 176.902 142.522 176.945 141.309 176.99C140.704 177.012 140.072 177.035 139.437 177.058C137.543 177.126 135.623 177.196 134.281 177.259C133.503 177.293 132.613 177.429 131.838 177.765C131.077 178.095 130.149 178.752 129.907 179.952C129.674 181.102 130.188 182.214 130.942 183.184C131.722 184.187 132.961 185.305 134.732 186.577C137.284 188.409 140.261 189.403 143.222 189.891L148.577 190.833L146.633 187.637L143.715 186.902C141.066 186.464 138.568 185.6 136.5 184.116C134.834 182.92 133.859 181.998 133.334 181.324C133.052 180.961 132.947 180.731 132.907 180.612C132.94 180.593 132.984 180.571 133.043 180.545ZM132.822 180.674C132.823 180.674 132.827 180.671 132.833 180.663C132.824 180.67 132.822 180.674 132.822 180.674Z" fill="black"/>
<path fill-rule="evenodd" clip-rule="evenodd" d="M156.571 190.654L185.685 187.9L182.634 185.107L159.201 187.243L156.571 190.654Z" fill="black"/>
<path fill-rule="evenodd" clip-rule="evenodd" d="M141.168 184.075C141.844 183.903 142.253 183.216 142.081 182.54C141.91 181.864 141.223 181.455 140.547 181.627C139.871 181.799 139.462 182.486 139.634 183.162C139.806 183.838 140.493 184.246 141.168 184.075ZM175.181 183.518C176.516 183.179 177.32 181.808 176.977 180.457C176.633 179.105 175.272 178.284 173.937 178.623C172.602 178.963 171.798 180.333 172.142 181.685C172.485 183.037 173.846 183.858 175.181 183.518ZM168.811 181.374C169.154 182.726 168.35 184.096 167.015 184.435C165.68 184.775 164.319 183.954 163.976 182.602C163.632 181.25 164.436 179.88 165.772 179.54C167.107 179.201 168.467 180.022 168.811 181.374ZM151.983 185.496C153.318 185.157 154.122 183.786 153.779 182.434C153.436 181.083 152.075 180.262 150.74 180.601C149.405 180.94 148.601 182.311 148.944 183.663C149.287 185.014 150.648 185.835 151.983 185.496Z" fill="white" fill-opacity="0.15"/>
<rect x="0.505306" y="-0.944719" width="16.1615" height="16.1615" rx="8.08076" transform="matrix(-0.957022 0.290014 0.290014 0.957022 158.657 173.593)" stroke="black" stroke-width="1.51514"/>
<path fill-rule="evenodd" clip-rule="evenodd" d="M158.864 178.756L178.555 176.999L178.365 173.758L157.732 175.79L158.864 178.756Z" fill="black"/>
<rect x="172.543" y="161.274" width="36.8685" height="36.8685" rx="18.4342" transform="rotate(-16.8588 172.543 161.274)" fill="url(#paint0_linear_3_5015)" stroke="black" stroke-width="1.51514"/>
<path opacity="0.32" d="M188.237 190.425L188.808 182.732L182.675 186.437L188.237 190.425Z" fill="black"/>
<path opacity="0.22" d="M213.433 174.645L202.791 175.742L211.859 182.607L213.433 174.645Z" fill="black"/>
<path opacity="0.12" d="M182.221 160.123L186.442 162.976L189.312 156.237L182.221 160.123Z" fill="black"/>
<path d="M186.73 160.199C187.062 161.294 186.353 162.103 185.272 162.43L184.106 162.784C183.027 163.11 181.987 162.832 181.655 161.737L180.409 157.627C180.25 157.101 180.303 156.533 180.556 156.05C180.81 155.567 181.244 155.207 181.762 155.05L182.929 154.697C183.185 154.619 183.455 154.593 183.722 154.62C183.99 154.648 184.25 154.729 184.487 154.858C184.725 154.988 184.935 155.163 185.106 155.374C185.277 155.585 185.406 155.828 185.484 156.089L186.73 160.199Z" fill="#FAF9F9"/>
<path d="M197.429 150.303L196.262 150.656C195.183 150.983 194.577 152.136 194.909 153.23L196.051 157C196.383 158.095 197.527 158.717 198.606 158.39L199.772 158.036C200.852 157.709 201.458 156.557 201.126 155.462L199.984 151.692C199.652 150.598 198.508 149.976 197.429 150.303Z" fill="#FAF9F9"/>
<path d="M191.798 160.072C192.144 161.214 191.359 161.952 190.217 162.298L188.985 162.671C187.842 163.018 186.748 162.734 186.402 161.592L185.106 157.315C184.94 156.767 184.999 156.176 185.269 155.671C185.539 155.167 185.998 154.79 186.546 154.624L187.779 154.25C188.326 154.084 188.918 154.143 189.422 154.413C189.927 154.683 190.304 155.142 190.47 155.69L191.798 160.072Z" fill="white"/>
<path d="M191.798 160.072C192.144 161.214 193.206 161.392 194.348 161.046L195.581 160.673C196.723 160.327 197.475 159.483 197.129 158.341L195.833 154.065C195.667 153.517 195.29 153.057 194.786 152.787C194.281 152.517 193.69 152.459 193.142 152.625L191.909 152.999C191.362 153.165 190.902 153.541 190.632 154.046C190.362 154.551 190.304 155.142 190.47 155.69L191.798 160.072Z" fill="white"/>
<defs>
<linearGradient id="paint0_linear_3_5015" x1="192.649" y1="195.444" x2="208.841" y2="161.779" gradientUnits="userSpaceOnUse">
<stop stop-color="#BC4E9C"/>
<stop offset="1" stop-color="#F80759"/>
</linearGradient>
</defs>
</svg>
